<?xml version="1.0" standalone="no"?>
<!DOCTYPE svg PUBLIC "-//W3C//DTD SVG 1.1//EN" "http://www.w3.org/Graphics/SVG/1.1/DTD/svg11.dtd" >
<svg>
<metadata>
Created by FontForge 20110222 at Mon Mar  7 08:28:18 2011
 By www-data
           Skurri                                               
</metadata>
<defs>
<font id="Skurri" horiz-adv-x="666" >
  <font-face 
    font-family="Skurri"
    font-weight="400"
    font-stretch="normal"
    units-per-em="1000"
    panose-1="2 11 114 0 0 0 0 0 0 0"
    ascent="800"
    descent="-200"
    x-height="506"
    cap-height="657.5"
    bbox="-81.2 -305.684 936.5 988"
    underline-thickness="12"
    underline-position="-19"
    unicode-range="U+0020-2122"
  />
    <missing-glyph />
    <glyph glyph-name="space" unicode=" " horiz-adv-x="242" 
 />
    <glyph glyph-name="exclam" unicode="!" horiz-adv-x="208" 
d="M26 52q-6 30 13.5 47.5t48.5 8.5l52 -60q5 -27 -13 -45t-45 -13q-29 -6 -46.5 13.5t-9.5 48.5zM104 156q0 -20 -12.5 -26t-27.5 6q-14 9 -13 22.5t15 20.5q-2 8 -2 21.5t3 21.5q-6 8 -5.5 21t7.5 21q-5 8 -4 22t6 21q-12 8 -11.5 21.5t12.5 21.5q-20 9 -19.5 22.5
t21.5 20.5q-15 8 -14.5 21.5t16.5 20.5q-8 8 -7 21.5t9 21.5q-9 8 -8.5 22t9.5 21q-21 9 -20.5 22.5t22.5 20.5q-18 9 -17.5 22t19.5 20q-19 8 -19 22t20 21q-3 8 -2.5 21.5t4.5 21.5q-2 17 9 24.5t26 0.5q-1 17 10 24.5t26 -0.5q-5 21 6 29t29 -4q2 -16 0.5 -38.5t-5.5 -46
t-10.5 -44.5t-14.5 -36q9 -12 6.5 -29.5t-15.5 -25.5q25 -14 36 -30.5t8.5 -32.5t-17.5 -28.5t-43 -19.5q7 -12 4.5 -29.5t-12.5 -26.5q13 -23 8.5 -57.5t-22.5 -53.5q7 -11 5.5 -28.5t-11.5 -27.5q24 -13 22.5 -30.5t-27.5 -25.5z" />
    <glyph glyph-name="quotedbl" unicode="&#x22;" horiz-adv-x="202" 
d="M78 592q10 -6 0 -12q18 -10 17 -22.5t-21 -18.5q7 -8 5 -21t-10 -20q13 -9 11.5 -21.5t-15.5 -19.5q4 -8 2 -20.5t-7 -20.5q-7 -10 -14 0q-8 7 -9.5 20t4.5 21q-17 5 -18.5 18t12.5 23q-16 6 -17.5 18.5t12.5 22.5q-9 7 -11 19.5t5 21.5q-4 14 3 29.5t21 20.5
q9 -4 18.5 -16t11.5 -22zM180 590q5 -5 0 -10q2 -8 1 -21t-6 -20q12 -10 10 -22.5t-16 -18.5q10 -9 8.5 -22t-13.5 -19q16 -11 14.5 -23.5t-20.5 -17.5q-7 -14 -14 0q-13 6 -14.5 19t9.5 22q-13 6 -14.5 19t9.5 22q-8 7 -9.5 20t4.5 21q-4 7 -5.5 20t0.5 21q-20 21 -12 36.5
t36 13.5q20 4 30 -8t2 -32z" />
    <glyph glyph-name="numbersign" unicode="#" horiz-adv-x="480" 
d="M235 246q8 16 21.5 20t24.5 -4q-5 17 19 25q-8 9 -6 22t12 20q0 21 6 41q-11 -8 -29.5 -8t-29.5 8q-9 -22 -23 -26t-26 9q2 -17 -16 -24q18 -11 16 -24t-22 -18q10 -10 7 -25q11 8 24.5 4t21.5 -20zM434 244q8 -9 8 -24t-8 -24q-9 -16 -24.5 -16t-24.5 16
q-9 -14 -24.5 -14t-24.5 14q2 -10 0 -25t-6 -24q8 -11 6 -26t-13 -23q1 -10 -0.5 -25t-5.5 -24q23 -13 20.5 -28t-27.5 -21q-10 -7 -26 -7t-26 7q-5 10 -2.5 25.5t9.5 23.5q-14 11 -12 26.5t19 22.5q-20 12 -18 27.5t25 21.5q-10 10 -9.5 23.5t10.5 21.5q-11 -7 -27 -5.5
t-25 9.5q-10 -7 -29 -7t-29 7q0 -9 -2.5 -24.5t-4.5 -24.5q11 -11 9 -26t-16 -23q14 -11 11.5 -26.5t-18.5 -22.5q11 -11 9 -26t-16 -23q-10 -22 -26 -22t-26 22q-11 10 -9.5 26t15.5 23q-20 12 -17.5 27.5t24.5 21.5q-15 11 -13 26.5t19 22.5q-7 10 -5 24t10 23
q-9 -9 -23 -8.5t-22 10.5q-9 -20 -23.5 -20t-23.5 20q-2 9 -2 24t2 24q10 13 25.5 13t25.5 -13q7 13 17.5 17t20.5 -2q-7 18 19 26q-5 9 -3.5 22t9.5 20q-15 8 -17.5 18t8.5 17q-18 -3 -33 6h-48q-11 9 -11 25t11 25q10 10 25.5 10t25.5 -10q10 22 25 23t25 -21
q-3 9 -1 22.5t8 21.5q-10 10 -8 25t15 22q-18 11 -16 25.5t22 20.5q-4 10 -1.5 24.5t8.5 22.5q10 21 26 21t26 -21q8 -10 6 -24t-12 -22q8 -10 6 -25t-13 -22q2 -9 0.5 -23.5t-6.5 -22.5q1 -9 -1 -24t-6 -23q11 2 29.5 2t29.5 -2q11 1 29.5 1t29.5 -1q-6 10 -4 24t10 22
q-9 10 -6.5 25t13.5 22q-20 11 -18.5 25.5t24.5 20.5q-16 11 -14 26t21 21q10 16 26 16t26 -16q7 -10 5 -24t-11 -22q-2 -9 -4 -23.5t-3 -23.5q14 -11 12.5 -25t-18.5 -21q28 -18 14 -35q13 0 22 -12q8 2 21.5 2t21.5 -2q10 -9 10 -25t-10 -25q-9 -5 -23.5 -5t-23.5 5
q-8 -12 -21 -13t-23 9q5 -9 2.5 -20t-11.5 -17q16 -11 14.5 -24t-20.5 -18q4 -7 3 -19t-7 -20q9 9 22.5 8.5t20.5 -10.5q8 9 22.5 9t22.5 -9z" />
    <glyph glyph-name="dollar" unicode="$" horiz-adv-x="462" 
d="M386 570q2 -10 -1.5 -25t-10.5 -23l-36 -28q-9 -4 -14 0t-2 14q-14 8 -13 19t15 17q-28 2 -35 20t12 38q-16 -14 -29 -14.5t-21 8.5q-3 -5 -9 -8q16 -8 16 -21.5t-16 -21.5q16 -8 16 -22t-16 -22q4 -8 4 -22t-4 -22q14 -8 14 -21.5t-14 -21.5q8 -8 8 -22t-8 -22
q20 15 35 7t14 -33q11 -2 25 -10t20 -17q14 1 26 -8.5t14 -22.5q21 6 30.5 -6t-0.5 -31q9 -6 15.5 -20t5.5 -25q9 -10 11 -27.5t-4 -28.5q1 -10 -1 -25t-6 -24q4 -12 -2 -26.5t-17 -19.5q11 -19 2 -31t-31 -7q-5 -9 -17 -18.5t-22 -11.5q0 -24 -14.5 -30.5t-31.5 10.5
q-6 -19 -19.5 -22.5t-26.5 9.5q4 -8 3 -19t-9 -17q1 -8 1 -21t-1 -21q-6 -9 -17 -9t-17 9q-13 8 -13 21t13 20q-6 7 -6.5 19t4.5 20q-10 -13 -25 -11t-22 18q-17 -19 -32 -14t-17 31q-14 -3 -27 5.5t-16 22.5q-13 2 -23 14t-8 26q-20 6 -23.5 22t11.5 30q-23 19 -17.5 37
t34.5 21q1 14 15 25t28 9q12 -8 16 -20q25 -11 25 -30t-25 -30q8 -4 9 -12.5t-7 -13.5q35 5 46 -13.5t-11 -46.5q12 3 25.5 -4.5t18.5 -18.5q5 -1 13.5 -2t13.5 -3q-1 8 -1 21.5t1 21.5q-14 8 -14 21.5t14 21.5q-14 8 -14 21.5t14 21.5q-7 8 -7 21t7 21q-19 8 -19 21.5
t19 21.5q-9 8 -9 21.5t9 21.5q-2 8 -2 21.5t2 21.5q-14 -14 -29.5 -10.5t-20.5 22.5q-10 2 -24.5 12t-21.5 19q-20 -2 -31 11.5t-5 32.5q-9 7 -17 23t-8 28q-14 8 -16.5 23.5t7.5 26.5q-4 11 -2 28.5t10 27.5q-2 12 5 27t18 21q4 10 15 21.5t21 15.5q-4 27 10.5 35t35.5 -9
q10 6 27 10.5t28 2.5q-18 14 -18 38t18 38q6 15 16 15t16 -15q34 -13 37 -34t-26 -35q13 4 27.5 0t22.5 -14q13 -1 30 -10t24 -20q7 -10 16.5 -27.5t12.5 -29.5zM116 510q26 -4 29.5 -20t-16.5 -32q9 -7 19 -20.5t14 -24.5q10 1 21 -5t19 -13q-7 19 6 32q-19 7 -19 20t19 21
q-14 8 -14 21t14 20q-18 7 -18 20t18 21q-10 8 -10 21t10 20q-11 5 -14 14t2 17q-11 -4 -17 0q1 -16 -12 -27.5t-30 -8.5q31 -24 24.5 -48t-45.5 -28zM278 264q-8 -2 -17.5 1.5t-15.5 9.5q9 -20 -3 -35q5 -8 5 -20t-5 -20q12 -8 12 -20t-12 -20q13 -8 13 -20t-13 -20
q2 -20 0 -40q8 -8 8 -20t-8 -20q13 -7 15 -16q17 8 33 -14q-6 22 5 30.5t31 -2.5q-16 19 -9.5 32t31.5 10q-3 10 0 26.5t10 25.5q-15 7 -18.5 23t7.5 29q-11 5 -20 19.5t-10 26.5q-23 -12 -35 -1.5t-4 35.5z" />
    <glyph glyph-name="percent" unicode="%" horiz-adv-x="688" 
d="M428 512q9 -10 5.5 -22.5t-16.5 -16.5q-1 -7 -4 -19.5t-7 -19.5q8 -10 5 -22t-15 -16q4 -9 1 -21.5t-12 -17.5q12 -11 8.5 -23.5t-19.5 -15.5q4 -9 0 -21t-11 -18q-4 -20 -10 -38q-1 -7 -5 -19t-6 -20q0 -8 -3.5 -20t-7.5 -19q8 -11 5 -23t-16 -16q10 -10 7 -22t-17 -16
q7 -10 3.5 -22t-14.5 -17q10 -11 6.5 -23t-17.5 -16q-10 -10 -18.5 -7t-9.5 17q-14 11 -11 23.5t21 15.5q0 7 3 19t8 19q-13 11 -10 23t20 16q-9 10 -5.5 22t16.5 16q-10 10 -7 22t17 17q-4 9 -0.5 21.5t11.5 17.5q-11 10 -8 22t18 16q-13 11 -9.5 23.5t20.5 15.5
q0 7 3 19.5t7 19.5q-16 12 -12.5 24t23.5 14q-4 9 -0.5 21t10.5 18q-15 12 -12 24t23 14q-2 8 1.5 20t8.5 19q8 8 18 5.5t14 -13.5zM20 358q-23 13 -20.5 28.5t27.5 21.5q4 8 10.5 22.5t11.5 22.5q-3 15 7.5 26t25.5 10q3 13 16 20.5t26 3.5q7 12 22 14.5t26 -5.5
q14 14 30.5 10t23.5 -22q14 1 28 -9.5t17 -24.5q23 2 32.5 -13t-1.5 -35q13 -8 16.5 -25.5t-4.5 -30.5q17 -13 15 -30t-22 -25q-3 -9 -9 -24t-11 -23q11 -22 1 -34t-33 -4q1 -19 -11.5 -26.5t-28.5 1.5q-5 -21 -19.5 -24t-27.5 15q-11 -12 -26 -9t-21 18q-14 -8 -26.5 -0.5
t-13.5 23.5q-10 4 -20 15t-13 21q-11 4 -17.5 18t-3.5 25q-12 7 -14 23t7 26zM60 374q16 -7 19 -23t-10 -28q10 -6 17.5 -20t7.5 -25q20 8 31.5 -2t5.5 -30q11 8 26 4.5t21 -16.5q1 25 16 31t33 -11q5 10 16.5 26.5t19.5 24.5q-1 13 3 33.5t10 31.5q-28 4 -33 23t18 37
q-26 -9 -38 4.5t-1 38.5q-12 -2 -29 3t-25 14q-6 -17 -23.5 -22.5t-31.5 5.5q-1 -13 -12.5 -26t-24.5 -16q2 -12 -3 -30t-13 -27zM372 158q2 9 4 24.5t3 24.5q-5 13 2 27t20 18q2 10 12.5 21t20.5 15q4 10 17 18t24 7q5 25 19 28t28 -19q14 14 30.5 10.5t23.5 -22.5
q16 4 30.5 -6t15.5 -27q12 -5 22 -20t9 -28q28 -5 32 -23t-19 -34q-2 -10 -4 -27t-3 -27t-7 -25t-13 -23q5 -16 -5 -28t-27 -10q-2 -14 -15 -21.5t-26 -3.5q-5 -20 -19.5 -22.5t-26.5 13.5q-9 0 -24 2.5t-23 5.5q-18 -14 -31 -6t-10 30q-12 2 -22 12.5t-10 22.5
q-7 7 -13 20.5t-7 23.5q-21 6 -23.5 21.5t15.5 27.5zM412 170q2 -4 -2 -4q25 -4 28 -19t-18 -29q7 -7 15 -20t10 -22q8 -4 20 -14t18 -17q9 -1 23.5 -4.5t23.5 -6.5q3 22 20 29.5t35 -5.5q-19 26 -9 41.5t41 8.5q-28 17 -24.5 36.5t35.5 25.5q-21 7 -25.5 25t10.5 34
q-20 -3 -32.5 11t-7.5 33q-11 3 -28 8t-27 9q-8 -11 -25 -16.5t-30 -1.5q-2 -12 -13.5 -26t-23.5 -18q-1 -11 -5.5 -29.5t-8.5 -28.5z" />
    <glyph glyph-name="ampersand" unicode="&#x26;" 
d="M262 396q9 7 24.5 14.5t26.5 9.5q-5 19 6.5 32t30.5 11q-16 15 -11.5 32t25.5 23q-22 4 -28 22t9 35q-12 -1 -28.5 6t-24.5 17q-4 -14 -19 -21t-29 -2q20 -19 14.5 -39.5t-32.5 -25.5q18 -6 21.5 -22t-10.5 -30q34 0 41.5 -19.5t-16.5 -42.5zM196 324q7 -29 -10 -42.5
t-44 -0.5q28 -22 21.5 -44.5t-41.5 -26.5q10 -9 14 -27t-3 -31q23 1 33 -15t-2 -36q14 1 28.5 -10t17.5 -25q16 18 33.5 13.5t22.5 -27.5q6 22 23.5 34t37.5 10q-9 13 -5 29q-8 8 -18.5 22t-16.5 23q-25 -4 -35 11t3 37q-15 4 -24.5 20t-5.5 31q-7 10 -16 27t-13 28z
M482 167q17 -26 9.5 -43t-33.5 -15q10 -5 18.5 -14.5t9.5 -20.5q15 18 30 13.5t18 -27.5q10 6 27 13.5t27 11.5q2 13 10 33t16 30q8 9 19 7.5t17 -11.5q10 -18 3.5 -40t-25.5 -31q1 -13 -8.5 -26.5t-21.5 -17.5q-1 -16 -13.5 -23t-26.5 0q-8 -18 -24 -20t-28 14
q-16 -15 -36.5 -10.5t-28.5 24.5q-23 -9 -41 2.5t-20 33.5q-1 -20 -15.5 -28t-33.5 3q-8 -11 -25.5 -17t-30.5 -3q-8 -26 -26.5 -28.5t-32.5 21.5q-16 -23 -37.5 -20t-30.5 30q-18 -10 -35.5 -0.5t-19.5 29.5q-31 -10 -43 5.5t4 43.5q-40 6 -47 32t25 52q-1 10 1.5 25.5
t6.5 24.5q-16 19 -8.5 32.5t31.5 12.5q1 12 11 24t22 14q-3 20 9.5 30t31.5 2q0 19 14.5 27t30.5 -2q-12 9 -20 29t-5 35q-4 12 -8 32.5t-5 33.5q-1 11 2.5 28.5t7.5 27.5q0 13 9 28.5t20 21.5q6 10 20.5 20t25.5 11q8 16 26.5 19.5t32.5 -8.5q13 20 29 17.5t23 -25.5
q18 14 32 6t13 -30q17 2 26.5 -9t4.5 -28q21 -5 24.5 -20t-12.5 -29q7 -12 2.5 -29t-15.5 -24q-4 -11 -15 -25t-20 -21q0 -18 -14.5 -28t-31.5 -3q0 -28 -17 -37q5 -7 3 -19t-13 -26q30 4 40.5 -13.5t-6.5 -42.5q22 0 33 -17t3 -37q27 -2 38 -28q4 16 16.5 29t30.5 14
q-2 12 3 29.5t13 27.5q-31 -16 -52 -1t-16 49q-9 -7 -18 0q-16 8 -16 19t16 19q8 17 21 17t20 -17q7 4 20 4t20 -4h41q8 14 21 14t20 -14q7 5 20 5t20 -5q7 20 20 20t21 -20q16 -8 16 -21t-16 -21q-7 -29 -28.5 -34t-41.5 18q-3 -5 -9.5 -12.5t-11.5 -12.5q5 -14 -4 -29
t-24 -19q3 -17 -8 -35t-27 -23z" />
    <glyph glyph-name="quotesingle" unicode="'" horiz-adv-x="202" 
d="M114 626q4 8 13 8t13 -8q8 -7 13.5 -21t5.5 -24q14 -4 20.5 -18t-1.5 -27q9 -13 3.5 -24t-21.5 -12q10 -13 4.5 -24.5t-21.5 -12.5q13 -15 7.5 -26t-25.5 -10q7 -12 1 -23.5t-19 -12.5q2 -10 -3.5 -21.5t-13.5 -15.5q-1 -8 -6.5 -19.5t-11.5 -16.5q-9 -19 -24 -19t-24 19
q-10 28 4.5 61t42.5 44q-11 14 -5.5 28.5t23.5 17.5q-14 13 -10.5 28t23.5 19q-10 11 -7 27.5t16 23.5q-24 12 -23 30.5t26 28.5z" />
    <glyph glyph-name="parenleft" unicode="(" horiz-adv-x="182" 
d="M166 -98q-14 -14 -41 -26.5t-47 -13.5q-11 5 -14.5 18.5t3.5 23.5q-11 8 -14 23.5t3 26.5q-7 10 -10.5 27.5t-0.5 28.5q-31 7 -34 26t24 35q-15 10 -17.5 29.5t9.5 33.5q-29 10 -30 30.5t25 34.5q-28 11 -28.5 31.5t26.5 33.5q-5 4 -5 13t5 13q-24 10 -24 27t25 27
q-5 10 -3 27t8 27q-4 10 -2 27t9 26q-24 14 -21.5 30.5t30.5 21.5q-21 15 -17.5 31t29.5 21q-6 12 -1.5 28.5t15.5 23.5q-5 12 0 28t16 23q-10 14 -4.5 29.5t21.5 20.5q-17 17 -10.5 32.5t29.5 17.5q7 -3 17 -10t15 -12q13 -16 7.5 -34.5t-25.5 -24.5q2 -11 -3 -28t-13 -26
q10 -13 6.5 -29t-18.5 -23q16 -13 13 -28.5t-22 -22.5q17 -12 15 -28.5t-21 -24.5q25 -13 23.5 -30t-28.5 -25q17 -12 16.5 -31t-18.5 -29q8 -10 9 -28t-7 -28q5 -12 6 -32t-3 -33q26 -9 28 -29t-21 -35q13 -10 16 -29.5t-6 -32.5q22 -7 26 -25t-12 -34q22 -4 27 -21
t-12 -33q13 -5 18 -20t-2 -28q20 -2 24.5 -15t-9.5 -27z" />
    <glyph glyph-name="parenright" unicode=")" horiz-adv-x="194" 
d="M22 718q4 36 31.5 48.5t56.5 -8.5q8 -20 12 -40q5 -8 8.5 -23t2.5 -25q18 -7 21.5 -24.5t-10.5 -30.5q5 -11 8.5 -29.5t1.5 -29.5q28 -8 30.5 -27.5t-22.5 -34.5q2 -12 3.5 -31.5t1.5 -31.5q7 -11 7.5 -30.5t-5.5 -31.5v-18.5t-1 -18.5q7 -11 6.5 -29.5t-8.5 -28.5
q0 -10 -2 -27t-3 -28q18 -12 16 -28.5t-22 -23.5q11 -11 8.5 -27t-16.5 -24q5 -11 1.5 -26.5t-12.5 -23.5q3 -10 -1 -26t-12 -24q14 -15 9 -30.5t-25 -19.5q-2 -10 -7.5 -26t-10.5 -25q2 -13 -4.5 -29t-16.5 -24q-13 -5 -23 1.5t-9 20.5q-22 19 -16.5 37t34.5 20
q-11 14 -6 30.5t22 22.5q-22 15 -18 31t30 20q-16 13 -13 29t22 22q-14 11 -12.5 27.5t18.5 24.5q-17 12 -16 29t20 26q-28 11 -27.5 30t28.5 29q-22 10 -22 29t21 30q-18 10 -19.5 28.5t15.5 30.5q-3 10 -5 28.5t-1 29.5q-16 9 -18.5 26.5t10.5 30.5q-22 7 -25.5 24.5
t13.5 32.5q-6 10 -10 27.5t-3 28.5q-8 9 -13 26.5t-4 29.5q-17 5 -23 22t4 32z" />
    <glyph glyph-name="asterisk" unicode="*" horiz-adv-x="238" 
d="M58 400q-12 17 -7 41t23 35q-17 0 -34 14.5t-20 31.5q14 8 38.5 10.5t39.5 -2.5q4 13 12.5 34t13.5 34q16 -9 24 -31t0 -39q14 20 35.5 19t32.5 -23q6 -28 -9 -43t-41 -8q16 -9 20 -27t-8 -34q-28 -20 -47.5 -8t-14.5 46q-7 -14 -25 -30t-33 -20z" />
    <glyph glyph-name="plus" unicode="+" horiz-adv-x="496" 
d="M26 200q-16 9 -16 25t16 25q9 22 24.5 22t24.5 -22q9 18 24.5 18t24.5 -18q9 10 24.5 10t24.5 -10q8 3 21.5 4t23.5 -2q-14 10 -13 24.5t17 22.5q-22 9 -22 24.5t22 24.5q-24 9 -24 24.5t24 24.5q-7 9 -7 24.5t7 24.5q9 6 24 6t24 -6q6 -9 6 -24.5t-6 -24.5
q14 -9 14 -24.5t-14 -24.5q15 -9 15 -24.5t-15 -24.5q18 -10 14 -30q9 5 19.5 0.5t16.5 -19.5q9 6 24.5 6t24.5 -6q9 24 24.5 24t24.5 -24q9 16 25 16t25 -16q3 -9 3 -25t-3 -25q-9 -2 -24.5 -2t-24.5 2q-9 -14 -24.5 -14t-24.5 14q-9 -16 -24.5 -16t-24.5 16
q-9 -4 -24.5 -4t-24.5 4q5 -8 5 -20t-5 -20q18 -8 18 -20t-18 -20q8 -8 8 -20t-8 -20q14 -8 14 -20t-14 -20q10 -8 10 -20t-10 -20q-9 -10 -25 -10t-25 10q-7 8 -7 20t7 20q-4 8 -4 20t4 20v40q-7 8 -7 20t7 20q-17 10 -12 26q-9 -6 -19.5 -2.5t-17.5 16.5q-9 -13 -24.5 -13
t-24.5 13q-9 -22 -24.5 -22t-24.5 22q-9 -4 -24.5 -4t-24.5 4z" />
    <glyph glyph-name="comma" unicode="," horiz-adv-x="154" 
d="M62 182q8 2 18 4q16 -4 24.5 -19.5t1.5 -30.5q7 -8 15 -24t11 -26q-1 -10 -7 -26.5t-12 -25.5q14 -17 7.5 -33t-28.5 -18q13 -17 6 -33t-28 -19q2 -13 -5 -29.5t-18 -23.5q18 -20 10 -37t-35 -17q15 -20 6.5 -37.5t-33.5 -18.5q6 -16 -3 -34.5t-26 -23.5q-20 -6 -40 0
q-12 18 -4 33.5t30 15.5q-10 17 -3 32.5t27 17.5q-8 15 -1 31t23 21q-13 16 -6.5 32.5t25.5 20.5q-17 16 -12 32.5t28 20.5q-19 15 -15 32t27 22q-24 15 -21 32t31 22q-16 12 -14 29t19 25q-22 11 -21 27.5t23 25.5z" />
    <glyph glyph-name="hyphen" unicode="-" horiz-adv-x="362" 
d="M334 312q4 -12 4 -33t-4 -33q-8 -14 -22.5 -14t-22.5 14q-8 -11 -22 -11t-22 11q-8 -20 -22.5 -20t-22.5 20q-8 -8 -22 -8t-22 8q-8 -4 -22.5 -4t-22.5 4q-22 -4 -44 0q-8 -9 -22.5 -9t-22.5 9q-18 12 -18 33t18 33q8 19 22.5 19t22.5 -19q8 14 22 14t22 -14
q8 14 22.5 14t22.5 -14q8 20 22 20t22 -20q8 7 22.5 7t22.5 -7q8 9 22 9t22 -9q8 10 22.5 10t22.5 -10z" />
    <glyph glyph-name="period" unicode="." horiz-adv-x="160" 
d="M22 54q-12 36 7.5 54t54.5 4q20 -2 36.5 -21t15.5 -39q0 -21 -17.5 -40.5t-38.5 -21.5q-27 -3 -45 17t-13 47z" />
    <glyph glyph-name="slash" unicode="/" horiz-adv-x="364" 
d="M56 -6q-11 -10 -21 -5.5t-11 19.5q-7 11 -1.5 22.5t18.5 13.5q-4 10 1.5 21.5t15.5 15.5q-4 11 1 22t16 14q-9 13 -4 24t21 13q-7 11 -1.5 22.5t18.5 13.5q-5 10 0.5 22t16.5 15q-11 13 -6 24.5t23 11.5q-12 14 -6.5 25.5t23.5 11.5q2 8 7.5 19t10.5 17q3 8 8 19t9 18
q-5 11 0.5 22t16.5 14q-7 12 -1.5 23.5t18.5 13.5q-13 14 -8 25.5t25 10.5q-9 13 -3.5 24.5t20.5 12.5q-1 8 4 19.5t13 16.5q-4 11 1 22t16 15q-2 9 3.5 20.5t13.5 15.5q7 1 16.5 -2.5t13.5 -7.5q2 -9 -3.5 -20.5t-13.5 -16.5q9 -13 4 -24t-21 -12q15 -15 10 -27t-27 -10
q13 -14 8 -26t-25 -11q2 -10 -3 -21.5t-14 -15.5q4 -10 -1.5 -21t-15.5 -15q-2 -8 -7 -19.5t-10 -17.5q11 -13 6 -25t-23 -12q11 -13 6 -24t-22 -12q15 -15 9.5 -26.5t-26.5 -10.5q2 -9 -3.5 -21t-13.5 -16q14 -15 8.5 -26.5t-25.5 -9.5q11 -14 5.5 -25t-22.5 -12
q14 -15 8.5 -26.5t-25.5 -10.5q11 -13 5 -24.5t-22 -12.5q-1 -7 -6.5 -18.5t-10.5 -17.5q-1 -7 -7 -19t-10 -18z" />
    <glyph glyph-name="zero" unicode="0" horiz-adv-x="552" 
d="M22 268q-6 10 -4 26t10 25q-3 11 1.5 26t12.5 22q-14 17 -6.5 31t29.5 13q-4 14 5.5 26t24.5 12q-7 21 4.5 31t31.5 1q1 17 14.5 24t28.5 0q5 13 19.5 18t27.5 -2q8 17 24 19t27 -14q11 9 27.5 7.5t25.5 -12.5q16 17 31 12t17 -28q14 6 28 -1.5t16 -22.5q19 9 30.5 -1
t6.5 -30q21 4 30.5 -8t-0.5 -31q9 -6 16.5 -19.5t6.5 -24.5q5 -8 9.5 -23t4.5 -25q25 -7 26.5 -23t-21.5 -28q21 -12 19.5 -29t-24.5 -25q7 -12 3 -27.5t-16 -22.5q19 -19 12 -33.5t-33 -12.5q9 -18 0 -30.5t-29 -9.5q5 -20 -6.5 -30t-30.5 -3q-5 -9 -19 -17t-24 -8
q-4 -16 -20 -21t-29 5q-9 -14 -26 -15.5t-29 9.5q-11 -12 -27.5 -10.5t-25.5 15.5q-12 -5 -27.5 0.5t-21.5 16.5q-10 1 -24 9t-20 16q-8 6 -19 16.5t-18 17.5q-23 -5 -32 7.5t2 32.5q-22 0 -28.5 14.5t6.5 31.5q-4 9 -8 24.5t-5 25.5q-6 10 -7 26.5t3 26.5zM102 270
q23 -8 24.5 -25t-19.5 -29q6 -9 10.5 -25.5t4.5 -26.5q21 0 28.5 -15t-4.5 -32q22 6 32.5 -6.5t0.5 -32.5q16 9 28.5 1t11.5 -26q12 17 27 14t20 -23q2 4 5.5 5t6.5 -3q8 18 26.5 22t32.5 -9q5 11 19 17.5t25 4.5q-5 17 5.5 27t27.5 6q-8 14 -1 26t22 14q-12 12 -8.5 27
t19.5 20q-15 11 -13.5 27.5t17.5 25.5q-8 10 -9.5 27.5t4.5 28.5q-25 4 -29.5 20t14.5 32q-10 5 -18 19t-6 26q-13 1 -24 12t-11 24q-14 -7 -28.5 0.5t-16.5 23.5q-15 -25 -32.5 -22t-23.5 31q-8 -10 -24.5 -12t-27.5 5q-8 -5 -20.5 -11.5t-20.5 -9.5q-5 -7 -15 -17t-17 -16
q1 -11 -6 -24t-17 -18q14 -13 9.5 -29t-23.5 -20q14 -12 12 -29t-18 -25z" />
    <glyph glyph-name="one" unicode="1" horiz-adv-x="344" 
d="M92 460q-8 -12 -19.5 -11.5t-18.5 13.5q-6 19 0 38q13 10 32.5 8t29.5 -15q14 23 36 22t34 -25q14 10 36.5 11t36.5 -8q11 13 30.5 15t32.5 -8q16 -8 16 -20t-16 -20q-9 -14 -23 -14t-23 14q-4 -17 -21 -36.5t-33 -25.5q17 -9 16.5 -22.5t-18.5 -21.5q5 -9 4 -23t-7 -22
q3 -8 2.5 -22t-4.5 -22q5 -8 4 -22t-6 -22q20 -10 19.5 -24t-22.5 -21q14 -9 13 -22.5t-15 -21.5q33 -10 34.5 -30.5t-29.5 -35.5q9 -2 20 -11t15 -17q10 2 28 2t28 -2q4 -7 4 -18t-4 -18q-14 -4 -35 -2t-34 7q-13 -28 -35.5 -27.5t-35.5 28.5q-13 -26 -35.5 -26t-35.5 25
q-12 -23 -34 -24t-37 19q-9 19 0 38q9 10 25 10t25 -10q4 22 19 25.5t28 -15.5q-5 14 1 33t16 29q-10 8 -9 21t12 20q-17 8 -16 20.5t18 19.5q-3 8 -2 20.5t5 20.5q-9 8 -8.5 20.5t10.5 19.5q0 8 1 21t2 20q0 20 2 40q-11 8 -10 21t13 20q-16 6 -20 22t8 29
q-12 -8 -27.5 -4.5t-22.5 17.5z" />
    <glyph glyph-name="two" unicode="2" horiz-adv-x="526" 
d="M237 119q-5 -8 -13 -18.5t-17 -18.5q9 4 19 1.5t15 -12.5q10 12 23.5 10.5t20.5 -14.5q9 6 22 4.5t21 -9.5q10 20 23.5 18.5t20.5 -22.5q8 1 22 -0.5t21 -4.5q9 4 23 2.5t21 -6.5q9 8 22.5 6.5t20.5 -11.5q4 -10 0 -24t-14 -20q-11 -22 -27.5 -21t-25.5 24
q-11 -1 -28 -0.5t-28 2.5q-11 -23 -30 -22t-29 23q-12 -28 -31 -28t-31 28q-13 -10 -34.5 -10.5t-35.5 9.5q-11 -14 -30.5 -14.5t-31.5 13.5q-10 -2 -26.5 -3t-26.5 0q-7 -11 -21 -12t-24 7q-27 8 -29.5 26t21.5 32q5 4 13.5 3t12.5 -5q14 2 28 2q4 22 20 26t31 -13
q-5 27 9.5 36t36.5 -8q7 8 19.5 20.5t20.5 18.5q-3 15 7 29.5t26 15.5q2 11 9.5 26t15.5 23q-18 16 -13 31.5t29 17.5q-10 9 -8.5 22.5t13.5 20.5q-4 10 -6.5 27t-2.5 28q-16 2 -24.5 16t-4.5 29q-10 0 -26 5.5t-24 12.5q-7 -12 -22.5 -17t-27.5 1q-4 -9 -15 -22t-18 -20
q11 -14 7 -33.5t-20 -28.5q9 -4 9.5 -11.5t-7.5 -12.5q-6 -8 -15 -8t-15 8q-8 10 -7 27t11 26q0 10 3.5 25.5t7.5 24.5q-17 18 -10.5 31.5t31.5 11.5q-6 16 3.5 27t26.5 8q3 13 16 20.5t25 3.5q7 23 23 26t30 -17q14 22 29 19t20 -29q20 13 32.5 4t7.5 -32q11 -4 20 -17.5
t7 -25.5q19 -7 22 -24t-12 -31q21 -14 19 -32.5t-26 -26.5q1 -11 -5 -28t-14 -25q-4 -10 -13 -25.5t-15 -24.5q16 -26 5 -40t-40 -6q-1 -14 -13 -28t-25 -17z" />
    <glyph glyph-name="three" unicode="3" horiz-adv-x="346" 
d="M66 94q-20 2 -24 13.5t12 24.5q-1 14 10.5 23t24.5 5q-6 20 4.5 29t29.5 -1q4 9 15 17.5t20 10.5q-14 29 -1 43t43 1q-10 17 -2 32.5t28 17.5q-12 13 -9.5 30.5t17.5 25.5q-13 8 -19.5 25.5t-2.5 31.5q-23 -22 -40 -13.5t-14 40.5q-2 -4 -4 0q-6 -12 -21 -18t-27 -2
q8 -18 -1 -32.5t-29 -13.5q7 -13 1.5 -28.5t-18.5 -21.5q10 -8 8.5 -17t-13.5 -13q-12 -2 -21.5 6t-8.5 20q2 8 5 21.5t4 21.5q-1 12 7 27.5t18 21.5q-6 19 5 33.5t31 12.5q-10 26 2.5 37t37.5 -2q5 11 18.5 15.5t23.5 -2.5q12 0 31 -5.5t30 -11.5q25 10 39.5 -3.5
t6.5 -39.5q29 -4 34.5 -23.5t-17.5 -38.5q13 -12 9.5 -26t-20.5 -19q-1 -13 -9.5 -33t-17.5 -30q-5 -11 -17 -28.5t-20 -27.5q-1 -12 -13 -20l2 -2q16 22 34.5 17.5t23.5 -30.5q10 -4 21.5 -16.5t14.5 -23.5q32 -7 35.5 -27.5t-23.5 -37.5q21 -13 19 -29.5t-25 -24.5
q10 -14 5 -30t-21 -21q1 -12 -7.5 -27t-19.5 -21q-4 -10 -14.5 -23t-19.5 -18q-5 -9 -18 -20t-23 -15q3 -27 -11.5 -35t-35.5 9q-1 -29 -17 -34t-34 17q-9 -10 -26 -12t-28 6q-10 -2 -27 0t-27 6q-11 19 0 38q17 24 35.5 19.5t22.5 -33.5q8 2 22 4t23 2q5 11 19 16.5t25 1.5
q2 13 14.5 22.5t25.5 7.5q5 8 15 20.5t18 18.5q-10 16 -3 31t25 18q-9 12 -6.5 30t14.5 28q-25 7 -26.5 23t20.5 28q-10 3 -17 13.5t-6 20.5q-13 -9 -28.5 -4.5t-20.5 19.5q-7 -18 -26.5 -25t-36.5 4q-3 -9 -13.5 -17t-19.5 -10z" />
    <glyph glyph-name="four" unicode="4" horiz-adv-x="546" 
d="M36 22q-17 2 -21.5 14.5t7.5 25.5q-10 21 0 34.5t33 8.5q-11 20 -1 33.5t33 9.5q3 10 12.5 24t18.5 20q-10 19 -0.5 32.5t30.5 11.5q-9 19 0.5 32.5t29.5 12.5q8 19 26 47.5t31 44.5q0 12 8.5 27t19.5 21q-19 23 -10 38t38 11q0 12 8.5 27.5t18.5 22.5q20 32 44.5 28.5
t33.5 -40.5q4 -8 3 -21t-5 -21q19 -9 18.5 -21.5t-20.5 -19.5q4 -8 3 -21.5t-5 -20.5q4 -8 3.5 -20.5t-5.5 -20.5q5 -8 4.5 -21t-6.5 -21q4 -8 3.5 -21t-5.5 -21q10 -8 9 -21t-11 -20q8 -8 7 -21.5t-9 -20.5q17 -8 16.5 -21t-18.5 -20q7 -8 6.5 -21t-8.5 -21q9 4 24 5t24 -2
q8 12 23 13.5t25 -9.5q8 13 23 14t25 -11q8 -15 1 -32.5t-23 -23.5q-8 -12 -21.5 -12.5t-21.5 11.5q-21 -4 -42 0q-7 -14 -21 -14.5t-22 13.5q2 -9 1 -23.5t-3 -22.5q14 -10 12.5 -24.5t-15.5 -22.5q2 -9 1.5 -23.5t-3.5 -22.5q7 -9 6 -24t-9 -23q-6 -6 -18 -13.5t-20 -9.5
q2 -20 -10 -27.5t-28 4.5q-10 11 -8 28t14 26q0 10 1 28t3 28q-2 11 -1 29.5t4 28.5q-23 10 -26 26.5t15 27.5q-20 -5 -34 6q-8 -7 -22.5 -7.5t-23.5 6.5q-8 -25 -24 -25.5t-27 22.5q-11 -4 -28.5 -6t-28.5 0q-8 -32 -27 -34.5t-35 26.5zM256 92q5 11 14 14.5t17 -1.5
q-7 19 13 30q-5 8 -4 21.5t7 20.5q-1 8 0 21.5t2 21.5q-13 9 -12 22.5t14 20.5q-15 9 -14.5 22t16.5 21q-15 9 -14 22t17 20q-2 8 -1 21.5t3 21.5q-2 8 -2 13q-9 -5 -19 -4q11 -16 4 -26.5t-26 -7.5q-3 -8 -10.5 -18.5t-12.5 -16.5q-2 -7 -9 -18t-13 -16q3 -11 -4 -22
t-19 -12q12 -17 5 -28t-28 -6q6 -13 -1 -24t-21 -10q2 -11 -5 -22t-18 -13q11 -16 4 -26.5t-26 -7.5q6 -10 4 -19q9 -3 15 -15q8 15 21 15t20 -15q8 10 21 10t21 -10q7 13 20 13t21 -13z" />
    <glyph glyph-name="five" unicode="5" horiz-adv-x="338" 
d="M90 294q17 8 29 -1t10 -28q17 13 30 6.5t12 -27.5q12 5 25 -0.5t17 -18.5q17 13 29 6t10 -28q13 3 23 -6t9 -22q18 0 25 -13t-3 -28q22 -8 24.5 -26t-16.5 -32q12 -12 10 -29.5t-16 -26.5q0 -10 -5 -26t-11 -24q10 -17 2 -30.5t-28 -12.5q2 -13 -8 -25t-24 -12
q6 -22 -6.5 -32t-32.5 1q2 -23 -11.5 -30t-31.5 6q-1 -24 -14.5 -29.5t-30.5 12.5q-4 -24 -18.5 -27t-27.5 17q-8 -4 -22 -5.5t-23 1.5q0 18 8 36q9 6 25 7.5t26 -2.5q6 13 21.5 18t28.5 -1q0 20 15 29t32 -2q-1 15 10.5 26t26.5 9q-1 12 7 25t19 17q-19 13 -16 28t25 20
q-22 8 -24.5 26t16.5 32q-14 3 -21.5 17.5t-1.5 27.5q-13 1 -24 11.5t-13 23.5q-20 -11 -36 -1.5t-16 31.5q-29 -26 -51.5 -14.5t-19.5 50.5q-11 4 -20.5 18.5t-8.5 27.5q-12 8 -11 20t15 18q-5 11 -7 26.5t-0.5 31t6.5 30.5t12 25q-21 15 -19 37t26 32q-4 5 -3 12.5t7 11.5
q8 4 20 4t20 -4q8 12 21 12t20 -12q7 19 20 19t20 -19q7 16 20 16t20 -16q7 11 20 11t21 -11q8 10 20 10t20 -10q15 -15 15 -39t-15 -39q-8 -19 -21 -19t-21 19q-8 -4 -21.5 -4t-21.5 4q-8 -7 -21 -7t-21 7q-8 -10 -21.5 -10t-21.5 10q-5 -10 -13.5 -13.5t-16.5 0.5
q13 -19 6.5 -40t-30.5 -31q10 -7 17 -23t5 -29z" />
    <glyph glyph-name="six" unicode="6" horiz-adv-x="442" 
d="M98 224q17 -8 18 -24t-15 -26q23 -6 26.5 -23t-15.5 -31q25 0 31.5 -15t-10.5 -33q17 4 27.5 -7t6.5 -28q12 10 27 5.5t20 -18.5q4 17 18 21t27 -9q-7 18 2.5 27.5t27.5 2.5q-9 14 -3 27.5t22 16.5q-7 11 -3.5 27.5t14.5 24.5q-21 11 -20 27.5t24 24.5q-16 9 -15.5 24
t16.5 24q-5 12 -7.5 32.5t0.5 33.5q-14 4 -21 19t0 29q-19 -10 -29.5 -1t-4.5 29q-9 1 -24 4t-24 6q-6 -10 -18.5 -12t-21.5 6q-2 16 2 30q6 36 27 40.5t41 -26.5q11 5 28.5 2t26.5 -12q22 14 35.5 5t7.5 -35q10 -5 19.5 -19t10.5 -25q13 -7 18.5 -23t0.5 -29
q14 -9 16.5 -27t-9.5 -31q10 -11 9 -28.5t-13 -27.5q15 -14 10.5 -31t-23.5 -23q11 -16 4 -31.5t-26 -17.5q5 -15 -4.5 -28.5t-25.5 -14.5q-3 -11 -15 -21.5t-23 -11.5q-7 -7 -20 -14t-23 -8q-8 -12 -23.5 -14.5t-26.5 7.5q-13 -15 -29.5 -12.5t-24.5 20.5
q-19 -17 -32.5 -10.5t-11.5 32.5q-14 -2 -25 8.5t-9 24.5q-12 4 -19.5 17t-4.5 26q-22 4 -27 19.5t12 30.5q-24 8 -25.5 25t20.5 30q-12 7 -11.5 16.5t13.5 14.5q-21 13 -18.5 28.5t26.5 21.5q-4 10 0 26t11 24q-11 14 -6 29.5t22 20.5q-20 19 -14.5 34t33.5 15
q-15 18 -7.5 33t30.5 14q5 9 13 22.5t14 21.5q-10 20 -0.5 33t31.5 8q-6 18 4.5 29.5t29.5 7.5q4 10 15.5 20t22.5 12q-1 19 12 27t29 -1q7 8 20.5 14t24.5 5q4 21 19 25t29 -12q8 16 24.5 17t26.5 -13q4 -16 4 -34q-8 -26 -23.5 -27t-27.5 22q-4 -18 -18.5 -22.5t-27.5 8.5
q-5 -10 -18 -17t-23 -6q6 -22 -5.5 -31t-31.5 1q9 -20 -1.5 -31.5t-31.5 -4.5q2 -13 -7 -25.5t-21 -15.5q6 -14 -1.5 -28t-22.5 -17q8 -14 1.5 -28.5t-21.5 -18.5q9 -13 4 -29t-20 -21q1 -11 -3 -26.5t-10 -23.5q7 -11 4.5 -26.5t-12.5 -23.5q22 -11 20 -26.5t-25 -22.5z
" />
    <glyph glyph-name="seven" unicode="7" horiz-adv-x="472" 
d="M24 404q-20 12 -18 28t24 24q-2 10 0 26t6 26q8 9 22 9t22 -9q8 14 21.5 14t21.5 -14q8 4 22 4t22 -4q8 20 21.5 20t21.5 -20q8 12 22 12t22 -12q8 17 21.5 17t21.5 -17q8 15 22 15t22 -15q8 7 21.5 7t21.5 -7q8 4 22 4t22 -4q20 2 26 -9t-6 -27q-3 -7 -9.5 -18
t-10.5 -17q7 -13 0 -24t-21 -11q5 -11 -1 -22.5t-19 -12.5q11 -14 4.5 -24.5t-24.5 -9.5q11 -15 4 -26t-25 -9q10 -15 4 -25.5t-24 -9.5q1 -9 -5.5 -20t-14.5 -15q2 -10 -5 -20.5t-16 -14.5q13 -16 6.5 -27t-26.5 -8q-1 -8 -7.5 -18.5t-12.5 -15.5q0 -8 -6.5 -19t-13.5 -16
q3 -11 -4 -22t-17 -13q2 -10 -4 -21t-16 -14q7 -13 0.5 -23.5t-20.5 -11.5q12 -16 5 -27t-26 -8q11 -15 5 -25.5t-25 -8.5q-3 -7 -9 -18t-11 -17q7 -13 0 -24t-21 -11q13 -16 6.5 -27t-26.5 -8q-14 -8 -24 -2t-8 22q0 9 6 20.5t14 15.5q-4 10 2 21.5t17 13.5q1 8 7.5 19.5
t12.5 16.5q-13 17 -7 27.5t27 7.5q2 8 8 19t11 17q-14 16 -7.5 27t27.5 8q-8 13 -1.5 24t21.5 12q-10 14 -4 25t23 10q-12 16 -5.5 27t25.5 9q-5 11 0.5 22.5t18.5 12.5q3 7 9.5 18.5t10.5 17.5q-12 16 -6 26.5t26 8.5q-2 10 4 21t15 15q-9 14 -3 25t23 10q-10 14 -3.5 25.5
t23.5 10.5q-12 15 -6.5 26t25.5 9q-4 4 -5 9t-1 9q-12 4 -19 18q-8 -23 -23 -23t-23 23q-8 -20 -22.5 -20t-22.5 20q-8 -10 -22.5 -10t-22.5 10q-8 -14 -23 -14t-23 14h-45q-2 -29 -23.5 -38.5t-44.5 8.5z" />
    <glyph glyph-name="eight" unicode="8" horiz-adv-x="444" 
d="M200 445q16 12 29.5 11t18.5 -13q4 17 19 20t36 -11q-4 16 6 32t26 19q-11 14 -7.5 33.5t18.5 29.5q-30 4 -34 22t21 34q-9 4 -20 14.5t-15 19.5q-14 -14 -29.5 -10.5t-20.5 22.5q-7 -11 -23 -16t-28 0q11 -25 -1 -38t-37 -4q14 -15 9.5 -32.5t-24.5 -23.5
q15 -10 20 -30.5t-4 -36.5q18 2 30.5 -11t9.5 -31zM84 160q2 -10 4.5 -26.5t3.5 -26.5q14 -3 21 -16t2 -27q19 10 31.5 1t7.5 -31q14 16 30.5 12.5t21.5 -24.5q4 4 8 2q10 4 27.5 9t28.5 7q-2 19 12 29.5t32 5.5q-2 13 7.5 29t22.5 20q-3 12 0 30t10 28q-16 7 -22 25t4 33
q-23 -7 -35 6.5t-2 35.5q-22 -13 -37.5 -3t-13.5 35q-20 -18 -35 -15t-20 22q-3 -13 -15 -17t-29 5q12 -23 2 -36t-35 -6q13 -17 6 -33t-28 -18q9 -13 6 -30.5t-16 -25.5zM111 324q-5 17 -1 29t15 15q-10 10 -8 25q-27 3 -36 23t8 42q-17 8 -20 24.5t9 29.5q-8 13 -5 31.5
t13 28.5q-11 17 -3.5 33.5t27.5 18.5q-10 22 1 35t34 5q-2 23 11.5 31.5t33.5 -4.5q8 16 24 18.5t28 -9.5q14 16 32.5 13t26.5 -22q16 7 31 -1t17 -25q20 2 29.5 -11t1.5 -32q20 -7 24 -24.5t-12 -31.5q1 0 1 -1t-1 -1q7 -11 4.5 -28.5t-12.5 -26.5q1 -11 -6 -24.5
t-15 -20.5q-5 -8 -15 -20t-18 -18q4 -16 -3 -28q14 -10 9 -36q26 10 39 -3t3 -39q22 0 31 -16t-1 -35q10 -10 13.5 -28t-1.5 -31q11 -10 9.5 -25.5t-14.5 -23.5q12 -14 7 -28t-24 -17q-2 -10 -9.5 -23t-15.5 -19q0 -13 -10.5 -24t-23.5 -11q-2 -13 -14.5 -21.5t-25.5 -5.5
q-1 -20 -15 -25t-29 8q-8 -5 -23 -6t-24 1h-2q-12 -7 -30 -4.5t-28 13.5q-17 -12 -33.5 -4.5t-17.5 28.5q-17 -4 -29.5 7.5t-9.5 29.5q-4 9 -12 23.5t-13 23.5q-27 6 -30 23.5t21 31.5q-12 14 -8 33t20 27q-3 16 7 33t25 22q-9 25 4.5 39.5t38.5 7.5z" />
    <glyph glyph-name="nine" unicode="9" horiz-adv-x="424" 
d="M338 264q-10 9 -10.5 24t8.5 25q-25 7 -27 25t20 31q-9 8 -14.5 24.5t-3.5 28.5q-11 3 -20.5 15.5t-10.5 23.5q-14 -12 -29 -7.5t-19 22.5q-6 -10 -18.5 -13t-22.5 3q-1 -10 -11 -18.5t-21 -8.5q-1 -10 -9 -22.5t-15 -17.5q19 -17 14 -32.5t-30 -17.5q13 -13 10 -30
t-20 -25q24 -12 23 -29.5t-26 -26.5q6 -10 7 -27t-3 -27q7 -8 11.5 -22t3.5 -24q11 -2 20.5 -13t9.5 -22q14 9 28.5 3t18.5 -22q8 10 18.5 8.5t15.5 -12.5q4 13 13 14t17 -10q13 -11 0 -22q-13 -32 -41 -36t-49 24q-12 -5 -29 -0.5t-25 14.5q-12 0 -25 9.5t-17 20.5
q-22 -4 -31 9t1 33q-17 4 -22.5 20.5t4.5 30.5q-4 11 -6 28.5t0 28.5q-15 12 -13.5 29.5t17.5 26.5q-9 14 -4.5 30.5t19.5 23.5q-19 21 -12 36.5t36 13.5q-5 16 5 29.5t27 14.5q4 10 17 21t24 13q-2 28 13 35t34 -13q7 20 24 21.5t29 -15.5q12 6 29 3t26 -13q17 11 30.5 3
t12.5 -28q21 6 30.5 -5.5t0.5 -31.5q13 -4 19.5 -19t0.5 -29q5 -10 9 -28t2 -29q22 -11 23.5 -31t-19.5 -34q15 -10 14.5 -25t-16.5 -23q17 -12 14.5 -27.5t-22.5 -21.5q17 -13 13.5 -28t-25.5 -20q14 -14 9 -29t-25 -18q18 -19 11.5 -32.5t-32.5 -12.5q8 -15 0.5 -28
t-24.5 -14q-3 -9 -12 -21.5t-17 -18.5q8 -19 -2 -30.5t-30 -6.5q-4 -8 -15.5 -18t-19.5 -14q-5 -8 -16.5 -17t-21.5 -11q-7 -6 -20 -13t-22 -10q-4 -15 -17.5 -20t-26.5 3q-5 -16 -19.5 -19t-26.5 9q-9 -4 -24 -5t-25 1q-4 5 -5.5 14.5t1.5 15.5q9 10 25.5 11.5t26.5 -6.5
q6 13 21 17t27 -4q-2 24 12 31t32 -9l20 15t19 14q5 8 16 19.5t19 15.5q2 10 11.5 22t18.5 17q-14 19 -5.5 32.5t31.5 11.5q-2 12 5 27t17 21q-11 14 -6 29.5t22 19.5q-19 14 -15 30t27 21q-3 11 -0.5 26.5t8.5 24.5q-17 10 -16.5 25.5t18.5 24.5z" />
    <glyph glyph-name="colon" unicode=":" horiz-adv-x="178" 
d="M38 394q-16 38 3 56t57 2q33 9 50 -9.5t4 -50.5q-9 -13 -26.5 -32.5t-29.5 -29.5q-27 -2 -45 18t-13 46zM18 56q2 21 21.5 39t40.5 19q27 4 44 -14.5t10 -45.5q10 -32 -8 -51t-50 -9q-16 8 -34 27t-24 35z" />
    <glyph glyph-name="semicolon" unicode=";" horiz-adv-x="162" 
d="M24 396q7 15 25.5 32.5t34.5 23.5q38 14 54.5 -5t-0.5 -55q13 -33 -4.5 -52.5t-51.5 -9.5q-8 3 -21 9.5t-21 11.5q-14 5 -19 18.5t3 26.5zM72 182q2 5 8 6.5t10 -2.5q22 0 30 -15.5t-4 -33.5q28 3 36 -12t-10 -37q19 -20 12 -38.5t-35 -20.5q15 -19 7.5 -36.5
t-30.5 -20.5q18 -20 11 -37t-34 -19q1 -13 -6.5 -29.5t-17.5 -24.5q-2 -10 -10 -26.5t-15 -25.5q18 -20 10 -36t-35 -15q13 -19 5 -34t-30 -15q-8 -4 -20 -4t-20 4q-10 16 -2.5 29.5t26.5 14.5q-2 12 5 27t18 21q-19 19 -12.5 34.5t32.5 16.5q-13 16 -7 32.5t26 20.5
q2 10 7 26t9 26q-20 16 -15.5 32t29.5 20q-6 11 -2 26.5t14 23.5q-14 12 -12 28.5t19 24.5q-24 14 -23 35.5t26 33.5z" />
    <glyph glyph-name="less" unicode="&#x3c;" horiz-adv-x="490" 
d="M24 204v50q5 8 16.5 13t20.5 4q-1 19 10 25t26 -7q2 14 13.5 19.5t23.5 -2.5q2 13 14 18.5t23 -1.5q5 7 16 13t20 5q4 11 15.5 16t21.5 1q0 19 11.5 24.5t25.5 -7.5q2 12 13.5 17.5t22.5 0.5q1 17 12.5 22t24.5 -5q2 14 13.5 19.5t23.5 -2.5q4 9 15 14.5t21 3.5
q3 11 15 16t22 1q26 -10 26 -27t-26 -27q-5 -7 -17 -12.5t-20 -5.5q-3 -12 -15 -17.5t-23 -0.5q-7 -4 -18 -10t-19 -9q-6 -5 -18 -11t-20 -7q-4 -10 -15.5 -15.5t-21.5 -2.5q-1 -16 -12.5 -21.5t-24.5 3.5q-6 -6 -18 -11.5t-20 -6.5q-5 -7 -17 -12.5t-20 -6.5
q-1 -16 -13 -21.5t-25 3.5q0 -14 -8 -20q7 -7 8 -15q11 6 23 0.5t15 -17.5q11 5 22.5 -0.5t14.5 -17.5q10 2 22 -3t16 -14q12 8 24 3t13 -20q13 10 24.5 4.5t12.5 -21.5q12 8 24 3t14 -20q8 0 20 -5.5t17 -12.5q9 1 21 -4.5t17 -12.5q15 13 26.5 8t10.5 -25q8 -10 8 -26
t-8 -26q-11 -7 -23 -1.5t-14 18.5q-10 -4 -21 1.5t-15 15.5q-15 -15 -26.5 -10t-10.5 26q-12 -8 -23.5 -2t-13.5 19q-9 -1 -20 4t-16 13q-15 -14 -27 -9t-10 26q-14 -11 -25 -5.5t-12 22.5q-7 2 -18 7.5t-18 9.5q-7 2 -18.5 7t-18.5 9q-8 1 -19.5 6.5t-17.5 10.5
q-13 -12 -24.5 -6.5t-11.5 23.5q-7 1 -19 7t-18 10z" />
    <glyph glyph-name="equal" unicode="=" horiz-adv-x="428" 
d="M20 194q8 4 21 4t21 -4q8 1 21 1t21 -1q8 4 21.5 4t21.5 -4q21 2 42 0q8 15 21 15t21 -15q8 12 21 12t21 -12q8 6 21.5 6t21.5 -6q8 16 21 16t21 -16q8 11 21 11t21 -11q6 -8 6 -22t-6 -22q-8 -15 -21 -15t-21 15q-8 -20 -21 -20t-21 20q-8 -15 -21.5 -15t-21.5 15
q-8 -8 -21 -8t-21 8q-21 -2 -42 0q-8 -4 -21 -4t-21 4q-8 -2 -21.5 -2t-21.5 2q-8 -11 -21 -11t-21 11q-8 -12 -21 -12t-21 12q-16 8 -16 22t16 22zM20 300q8 16 21 16t21 -16h42q8 13 21.5 13t21.5 -13q8 14 21 14t21 -14q8 16 21 16t21 -16q8 15 21 15t21 -15
q8 10 21.5 10t21.5 -10q8 16 21 16t21 -16q8 4 21 4t21 -4q9 -8 9 -21t-9 -21q-8 -6 -21 -6t-21 6q-8 -16 -21 -16t-21 16q-8 -19 -21.5 -19t-21.5 19q-8 -10 -21 -10t-21 10q-8 -16 -21 -16t-21 16q-8 -21 -21 -21t-21 21q-8 -11 -21.5 -11t-21.5 11q-8 -2 -21 -2t-21 2
q-8 -20 -21 -20t-21 20q-18 8 -18 21t18 21z" />
    <glyph glyph-name="greater" unicode="&#x3e;" horiz-adv-x="486" 
d="M24 408q-22 10 -22 27t22 27q12 8 23.5 2t13.5 -19q11 6 22.5 0.5t13.5 -18.5q13 11 24.5 5t12.5 -22q15 14 26.5 8.5t9.5 -25.5q12 7 24 1.5t13 -19.5q14 13 25.5 8t10.5 -25q13 10 24.5 4.5t12.5 -21.5q12 7 23 1t13 -19q11 6 22.5 1t14.5 -18q13 10 24 5t12 -22
q8 0 20 -5.5t17 -12.5q7 -3 18 -8.5t18 -8.5q25 -9 25 -25t-25 -25q-3 -11 -14.5 -16.5t-21.5 -0.5q-7 -4 -18.5 -9t-18.5 -8q0 -18 -11.5 -23t-24.5 7q-3 -12 -15 -17t-22 0q-5 -6 -16.5 -11.5t-19.5 -5.5q-6 -4 -18 -10t-19 -7q0 -18 -11.5 -23.5t-24.5 6.5
q-4 -10 -15.5 -15.5t-21.5 -1.5q-4 -9 -15 -14t-21 -2q-4 -10 -15.5 -15.5t-21.5 -1.5q-1 -14 -12.5 -19t-23.5 2q-3 -12 -15 -17t-22 0q-6 10 -6 26t6 26q6 4 18 10t19 7q4 11 15.5 16t22.5 1q1 16 12 22t25 -4q3 12 15 17.5t23 -0.5q4 8 16 13.5t21 3.5q-1 20 10.5 25.5
t26.5 -8.5q2 15 13.5 20.5t24.5 -3.5q5 8 16.5 13.5t20.5 4.5q2 14 14 19t24 -2q8 10 25 15q-20 2 -25 20q-10 -2 -21.5 3.5t-16.5 14.5q-8 2 -19.5 7.5t-17.5 11.5q-15 -13 -27 -7t-11 25q-10 -2 -21 3.5t-16 14.5q-10 -2 -21.5 3.5t-15.5 14.5q-8 1 -20 7t-18 11
q-16 -14 -27.5 -8t-9.5 27q-10 -2 -21.5 3.5t-16.5 14.5q-11 -4 -22.5 1.5t-14.5 16.5z" />
    <glyph glyph-name="question" unicode="?" horiz-adv-x="292" 
d="M52 34q6 16 24 36t34 28q22 -1 40 -19.5t18 -40.5q-10 -12 -28.5 -31.5t-29.5 -30.5q-14 8 -32 26t-26 32zM244 474q3 -10 -2 -22t-14 -16q6 -10 1.5 -22t-16.5 -16q-2 -8 -7 -19t-9 -18q13 -13 8 -25t-23 -13q2 -9 -3 -21t-13 -17q9 -12 4.5 -24t-19.5 -14q7 -11 2 -23
t-18 -14q2 -9 -2.5 -21t-12.5 -17q1 -8 -4 -20t-12 -18q-14 -10 -23 -4.5t-5 22.5q-12 14 -7 27.5t23 16.5q-2 10 3 24t12 21q1 9 6 23t10 21q-19 16 -14 29.5t29 15.5q-10 14 -5 27.5t21 16.5q-30 23 -23.5 45t44.5 25q-21 16 -17 35t30 25q-5 10 -4 25t8 23
q-34 4 -39.5 24.5t20.5 41.5q-22 -19 -39.5 -10.5t-17.5 36.5q-10 -20 -37 -31t-49 -5q-6 -4 -9 -1.5t-1 9.5q-14 17 -7.5 34t28.5 21q-11 11 -9 25.5t16 21.5q16 7 43 11.5t43 2.5q11 2 28 -1t27 -9q17 10 31 1.5t13 -28.5q17 0 26.5 -13t2.5 -29q10 -9 13 -26t-3 -29
q16 -13 13.5 -31t-20.5 -27q11 -17 4 -37.5t-25 -28.5z" />
    <glyph glyph-name="at" unicode="@" horiz-adv-x="662" 
d="M258 158q8 2 16 -2q3 12 13.5 16.5t21.5 -2.5q-13 23 -3 34.5t35 2.5q-17 21 -8.5 36.5t35.5 13.5q2 11 7 28.5t10 27.5q1 10 3 26.5t4 26.5q-19 4 -23 18t10 28q-18 -12 -30 -4.5t-9 28.5q-2 -16 -16 -22.5t-28 1.5q-2 -13 -13.5 -27.5t-22.5 -19.5q14 -17 7 -32
t-29 -16q31 -24 25.5 -53.5t-43.5 -40.5q33 2 45 -19t-7 -49zM379 445q14 -3 23 -15q5 16 24 20q14 13 38 13t38 -13q10 -12 6.5 -26t-18.5 -19q13 -13 9 -27t-22 -18q0 -9 -3.5 -23.5t-8.5 -22.5q19 -14 15 -28.5t-28 -16.5q0 -9 -4 -23t-8 -22q19 -14 15.5 -29t-25.5 -19
q8 0 12.5 -7t1.5 -15q7 2 18 2t18 -1q-2 17 9 24t25 0q-8 18 2 30.5t29 8.5q3 10 10.5 25t13.5 23q-19 17 -14 33t31 18q-17 11 -15.5 25.5t21.5 21.5q-3 10 -5 26t-1 27q-18 3 -24 17.5t5 29.5q-7 7 -17 19.5t-14 20.5q-14 -2 -26 8.5t-13 24.5q-12 -1 -26.5 7t-20.5 18
q-10 0 -26 5t-25 10q-11 -11 -28.5 -10t-26.5 15q-8 -8 -24 -10t-26 5q-4 -18 -19 -23t-28 8q-5 -12 -18.5 -19.5t-25.5 -3.5q1 -17 -11.5 -26.5t-28.5 -3.5q11 -23 0 -34t-34 -3q14 -20 5.5 -33t-32.5 -9q-1 -10 -6.5 -24t-12.5 -22q21 -14 18.5 -29.5t-27.5 -20.5
q9 -4 9 -11.5t-10 -11.5q20 -8 22 -24.5t-17 -28.5q19 -4 24 -20t-8 -30q27 4 34.5 -10.5t-9.5 -35.5q22 5 32.5 -8t0.5 -33q14 2 26.5 -8.5t12.5 -25.5q17 11 31 2.5t14 -28.5q14 10 29 4.5t20 -22.5q12 13 28.5 10.5t24.5 -17.5q11 18 32 20t35 -14q11 7 30 12.5t32 6.5
q9 7 25 16t26 13q-2 17 10 27.5t28 6.5q-4 11 2.5 22.5t17.5 13.5q10 14 27 14t27 -14q-4 -11 -14.5 -27.5t-19.5 -24.5q12 -27 -0.5 -40t-40.5 -2q-3 -14 -18 -24t-29 -8q-3 -19 -19.5 -26.5t-32.5 3.5q-10 -5 -28 -9t-29 -4q-9 -26 -27.5 -27.5t-31.5 23.5
q-12 -16 -29 -14t-25 19q-16 -23 -32 -19t-19 32q-9 3 -23.5 9.5t-22.5 11.5q-11 1 -24 9.5t-17 18.5q-10 2 -21.5 13.5t-14.5 21.5q-25 -8 -34.5 5t3.5 35q-17 2 -24 15.5t0 28.5q-19 3 -25 18.5t7 30.5q-19 6 -23 21.5t12 29.5q-12 9 -13 26t9 28q2 10 4 25.5t4 25.5
q-18 17 -13 32t30 17q-15 20 -7.5 33.5t32.5 11.5q2 11 12 24t20 17q5 8 17 19.5t21 16.5q-5 25 8.5 34t34.5 -5q2 18 16.5 25t30.5 -3q3 25 18.5 29.5t31.5 -15.5q9 5 25.5 6.5t26.5 -1.5q11 21 26.5 19.5t22.5 -23.5q11 8 26 4.5t22 -15.5q17 19 31.5 13t14.5 -31
q13 5 26.5 -3t15.5 -22q16 4 27.5 -6t10.5 -26q17 2 26.5 -9t4.5 -28q11 -5 18.5 -18t5.5 -25q23 -3 27.5 -18.5t-13.5 -30.5q2 -10 3 -26.5t1 -26.5q15 -14 12 -32t-22 -25q22 -21 15.5 -38t-37.5 -16q10 -20 -1 -34.5t-33 -11.5q3 -19 -10 -31t-32 -6q-1 -20 -16 -27.5
t-32 3.5q-7 -22 -23 -25t-29 17q-20 -16 -34 -8.5t-9 33.5q-17 5 -22 22q-5 -7 -12.5 -11.5t-16.5 -3.5q-1 -18 -14.5 -26t-29.5 1q-10 -1 -28.5 -1.5t-29.5 0.5q-8 4 -22 12t-21 13q-18 -1 -27 11t-2 29q-14 6 -18 21.5t4 27.5q-24 10 -23.5 26t25.5 24q-18 17 -12 32.5
t31 17.5q3 11 13 25t20 19q-6 22 7 33.5t35 2.5q4 12 18.5 19.5t27.5 3.5q7 11 21.5 13t24.5 -5q14 13 29 9t20 -23z" />
    <glyph glyph-name="A" unicode="A" 
d="M12 -4q-11 19 0 38q5 6 12 5t10 -9q4 19 20.5 25t32.5 -5q-16 26 -4 42.5t41 11.5q-22 25 -12.5 48.5t42.5 27.5q2 14 10 36.5t16 34.5q-6 16 1.5 36.5t22.5 29.5q-21 19 -14.5 38t34.5 22q-14 16 -8 33.5t25 22.5q-17 14 -13 29.5t26 20.5q2 8 5 22.5t6 22.5
q-9 9 -7 21.5t14 17.5q-6 7 -5 18t9 17q13 19 41 26.5t49 -2.5q38 -11 63.5 -35.5t36 -56t5 -67t-29.5 -66.5q7 -5 11.5 -17t1.5 -21q8 -5 12.5 -17.5t1.5 -22.5q14 -5 19 -19.5t-2 -27.5q25 -2 31.5 -19.5t-10.5 -36.5q36 -4 45.5 -30.5t-15.5 -52.5q11 -7 18 -25t3 -32
q19 3 25 -7.5t-6 -25.5q7 2 14.5 -1t9.5 -10q9 7 23 7t23 -7q8 -6 8 -17t-8 -17q-10 -20 -26.5 -19.5t-26.5 20.5q-13 -1 -34.5 -1t-34.5 2q-10 -18 -28.5 -18t-29.5 17q-16 -10 -44 -11t-44 8q-14 7 -14 18t14 18q11 21 28 20.5t26 -22.5q4 10 17.5 19t24.5 9q-8 2 -8.5 7
t6.5 9q-18 4 -23.5 20t6.5 30q-24 2 -29 18t13 32q-5 9 -10 24.5t-7 25.5q-8 -16 -21 -16t-20 16q-7 -2 -20 -2t-21 2q-8 -19 -20 -19t-20 19q-8 -8 -21 -8t-20 8q-7 -14 -19 -15.5t-20 10.5q4 -12 -1.5 -24t-17.5 -16q10 -13 4.5 -27.5t-22.5 -18.5q7 -13 2 -27t-19 -18
q8 -8 9 -22t-6 -23q11 11 22.5 7t13.5 -19q10 5 25.5 5t25.5 -4v-40q-16 -30 -39.5 -28t-34.5 34q-9 -3 -24 -2.5t-24 4.5q-9 -1 -24.5 -1.5t-24.5 -0.5q-12 -20 -35 -21.5t-38 15.5zM364 266q6 16 16.5 20t18.5 -5q-6 15 -4 24q-3 7 -7.5 19t-6.5 20q-8 5 -12 17.5t-1 21.5
q-8 6 -12 18.5t-2 21.5q-9 5 -13.5 17t0.5 22q-21 1 -25.5 13.5t11.5 25.5q-9 2 -13 6q-2 -1 -5 -3t-7 -3q0 -8 -3 -20t-8 -19q6 -10 2.5 -22t-14.5 -17q7 -11 3 -23t-15 -17q0 -8 -3.5 -20t-8.5 -19q8 -10 5 -22t-16 -17q8 -10 5 -21.5t-14 -16.5q9 1 21 1t20 -2q8 7 22 7
t22 -7q8 10 22 10t22 -10z" />
    <glyph glyph-name="B" unicode="B" horiz-adv-x="512" 
d="M48 588q-8 -18 -20 -18t-20 18q-14 6 -14 17t14 17q22 37 54.5 35t49.5 -41q12 7 33 8.5t35 -3.5q12 15 33 16t35 -13q11 9 28.5 7t27.5 -13q10 -3 25.5 -8.5t24.5 -10.5q8 -5 20 -14t19 -15q18 1 26 -11.5t0 -28.5q17 -6 20 -21t-11 -27q20 -19 14 -40.5t-32 -29.5
q-8 -12 -25.5 -28t-30.5 -24q2 -8 -6 -10q10 0 8 -10q14 6 31 -0.5t23 -20.5q12 -2 23.5 -13.5t13.5 -23.5q19 -2 26 -17t-3 -31q28 -7 31 -24.5t-23 -31.5q4 -10 2.5 -27t-7.5 -27q5 -11 0 -25.5t-16 -20.5q3 -13 -5.5 -24.5t-21.5 -13.5q-6 -7 -17.5 -15.5t-19.5 -13.5
q-7 -7 -22 -13t-26 -5q-7 -26 -25 -28.5t-32 21.5q-12 -7 -30 -5t-28 11q-14 -1 -36 2.5t-35 7.5q-12 -10 -30.5 -8t-28.5 14q-15 -32 -43.5 -33.5t-48.5 27.5q-4 18 0 36q10 22 27 22t27 -22q2 17 17.5 33.5t32.5 18.5q-20 8 -20 22t20 22q-11 8 -11 21.5t11 21.5
q-20 8 -20 21.5t20 21.5q-3 8 -3 22t3 22q-10 8 -10 22t10 22q-5 8 -5 21.5t5 21.5q-11 8 -11 21.5t11 21.5q-20 8 -20 22t20 22q-28 16 -30 45t23 48q-19 2 -25.5 16.5t4.5 30.5q-10 -9 -21 -6t-15 16zM244 314q-12 -2 -33 -2t-33 2q9 -8 9 -22.5t-9 -22.5q13 -8 13 -22.5
t-13 -22.5v-44q20 -8 20 -22.5t-20 -22.5q6 -8 6 -22.5t-6 -22.5q12 -6 21 -21.5t8 -28.5q19 19 41 13.5t30 -31.5q5 25 21.5 27.5t29.5 -18.5q0 17 12.5 24.5t27.5 0.5q-7 16 1 29t25 13q0 11 3 29.5t6 28.5q-8 9 -10.5 26t2.5 28q-26 -3 -33 10.5t10 33.5q-19 -7 -30 3.5
t-5 29.5l-44 20q-12 -18 -27.5 -16t-22.5 23zM220 580q-8 -2 -21 -2t-21 2q4 -23 0 -46q14 -9 14 -23t-14 -23q9 -9 9 -23t-9 -23q11 -9 11 -23t-11 -23q16 -8 17 -21.5t-13 -22.5q11 4 27.5 3.5t26.5 -5.5q7 16 25 22t33 -5q3 12 15.5 26t23.5 19q-6 14 -1 32.5t16 27.5
q-4 11 -10 30t-8 31q-9 6 -23.5 17.5t-22.5 18.5q-15 -17 -35 -14t-29 25z" />
    <glyph glyph-name="C" unicode="C" horiz-adv-x="640" 
d="M348 590q-10 -4 -26 -5t-27 1q-3 -23 -18.5 -27.5t-30.5 13.5q2 -24 -11.5 -31t-31.5 9q4 -20 -7.5 -28.5t-29.5 -0.5q0 -11 -10 -22t-21 -13q14 -18 6.5 -31t-29.5 -10q0 -10 -4.5 -23.5t-10.5 -21.5q6 -10 3.5 -25t-10.5 -23q21 -8 22.5 -23.5t-17.5 -26.5
q12 -7 16 -22t-3 -26q23 1 29.5 -13.5t-8.5 -31.5q11 -4 19.5 -16.5t8.5 -23.5q17 4 28 -7.5t6 -28.5q21 13 33 3.5t6 -32.5q10 -1 23.5 -7.5t20.5 -14.5q16 20 31 15.5t17 -29.5q10 2 25.5 0t24.5 -6q4 8 10 2q12 2 32.5 4t33.5 2q8 10 23.5 14t26.5 0q2 11 13.5 19.5
t22.5 6.5q2 10 10.5 23.5t17.5 18.5q-1 9 4.5 21t13.5 17q-2 10 4 22t14 16q9 2 19.5 -4t14.5 -14q7 -12 1 -24t-20 -13q1 -9 -5 -21t-14 -16q1 -9 -4.5 -20.5t-13.5 -15.5q5 -11 -1 -23t-18 -14q13 -15 7 -27t-26 -10q2 -14 -7.5 -20.5t-22.5 -1.5q-8 -22 -27 -26.5
t-36 12.5q-17 -46 -48 -47t-51 43q-10 -5 -27 -4t-27 8q-16 -21 -31.5 -16.5t-19.5 29.5q-16 -14 -30.5 -8t-16.5 27q-13 -2 -26 6.5t-17 20.5q-19 -8 -31 2t-7 31q-24 -8 -34.5 4t1.5 34q-23 -3 -31.5 10.5t5.5 32.5q-20 2 -26 16.5t6 30.5q-24 4 -28 20t16 31
q-11 9 -12.5 26t8.5 27q-10 10 -8 26.5t13 25.5q-18 15 -14 30.5t27 19.5q-18 18 -12 32.5t32 13.5q-8 17 0.5 30.5t27.5 11.5q1 12 11.5 24t22.5 14q-8 25 4 35t35 -3q2 15 15.5 23t27.5 3q4 13 19 19t28 1q5 22 20 25.5t29 -13.5q8 20 24.5 21.5t27.5 -17.5q11 8 28 6
t27 -11q30 37 66.5 30.5t50.5 -52.5q13 25 29.5 23.5t24.5 -28.5q16 -9 16 -23.5t-16 -23.5v-48q8 -9 8 -23.5t-8 -23.5q-6 -13 -16 -13t-16 13q-22 3 -27 18.5t11 31.5q-23 -8 -32.5 3.5t2.5 33.5q-12 -4 -25 3.5t-16 19.5q-10 0 -25.5 4.5t-24.5 9.5q-13 -26 -30.5 -25
t-26.5 29z" />
    <glyph glyph-name="D" unicode="D" horiz-adv-x="690" 
d="M38 588q-3 -5 -8 -5t-8 5q-9 19 0 38q11 8 29.5 6t28.5 -11q12 27 29.5 26t26.5 -29q12 6 32.5 6.5t33.5 -4.5q14 10 38.5 11t39.5 -7q12 32 33 32.5t35 -30.5q13 19 31.5 17.5t28.5 -21.5q12 5 29 1.5t26 -13.5q17 16 32 10t16 -29q14 5 26.5 -2.5t14.5 -22.5
q15 3 26.5 -7t9.5 -25q12 -2 21 -13t8 -23q5 -8 12 -21t11 -21q8 -7 13 -21t4 -24q3 -9 6 -24t4 -25q19 -9 20.5 -25.5t-17.5 -26.5q12 -10 11 -27t-14 -26q2 -10 -1 -25.5t-8 -24.5q1 -11 -4 -25t-12 -22q10 -16 2.5 -29t-25.5 -14q-2 -10 -11 -21.5t-18 -16.5
q5 -19 -6 -29t-29 -4q-1 -16 -14 -24.5t-28 -2.5q-3 -18 -18 -24.5t-30 4.5q-10 -2 -26.5 -6.5t-27.5 -6.5q-11 -11 -30 -12.5t-31 8.5q-12 -13 -30 -11.5t-28 15.5q-14 -13 -33 -18t-38 -3t-36.5 11t-28.5 25q-11 -3 -29.5 -2t-28.5 5q-13 -19 -36.5 -20.5t-39.5 14.5
q-15 8 -15 20t15 20q9 10 25 10t25 -10q4 14 20.5 29t31.5 19q-21 8 -21 22t21 22q-8 8 -8 21.5t8 21.5q-14 8 -14 21.5t14 21.5q-16 8 -16 22t16 22q-8 8 -8 22t8 22q-4 8 -4 21.5t4 21.5q-2 8 -2 21.5t2 21.5q-18 8 -18 22t18 22q-4 12 -4 31t4 31q-5 8 -7.5 23.5
t0.5 25.5q-14 -1 -22 9t-3 23q-11 -3 -28 0t-26 11zM280 588q-8 -2 -20 -2.5t-20 -0.5q-11 -17 -30 -10q8 -8 6 -17.5t-16 -15.5q16 -8 16 -20t-16 -20q5 -8 5 -20t-5 -20q13 -8 13 -20t-13 -20q2 -20 0 -40q10 -8 10 -20t-10 -20q14 -8 14 -20t-14 -20q14 -8 14 -20
t-14 -20q16 -8 16 -20t-16 -20q19 -8 19 -20t-19 -20q11 -8 11 -20t-11 -20q20 -7 22.5 -23t-14.5 -29q15 0 23 -12t3 -25q11 1 25.5 -6.5t20.5 -16.5q13 1 34 -1.5t34 -6.5q8 23 26 25t31 -19q4 20 19 25t30 -8q2 13 14 21.5t26 4.5q-8 20 2.5 31t30.5 4q-11 16 -3 29
t27 11q-7 13 -2 27.5t19 18.5q-6 11 -3 26.5t13 23.5q-3 10 -1.5 26t5.5 26q-6 9 -7 25t3 26q-16 6 -19.5 21.5t8.5 27.5q-7 8 -13 22t-7 24q-7 6 -15.5 18.5t-10.5 22.5q-20 -6 -30 5.5t-2 30.5q-8 4 -20 13.5t-18 16.5q-11 -1 -25 6t-19 17q-11 -1 -26 3.5t-23 10.5
q-11 -11 -28 -10t-26 14q-4 -12 -12 -12t-12 12z" />
    <glyph glyph-name="E" unicode="E" horiz-adv-x="528" 
d="M60 588q-9 -6 -24 -6t-24 6q-4 19 0 38q10 10 25.5 9t23.5 -12q11 16 27 15.5t25 -17.5q11 8 28 7.5t28 -9.5q11 14 30 13.5t29 -14.5q11 0 30 0.5t30 0.5q10 17 27.5 18t28.5 -16q10 13 26 13.5t27 -11.5q9 1 24.5 2t24.5 1q20 -8 21 -22.5t-18 -24.5q9 -9 9.5 -24
t-7.5 -24q7 -8 7.5 -23t-4.5 -24q-6 -14 -17 -14.5t-19 12.5q-9 6 -10.5 18t6.5 20q-11 5 -18 19.5t-5 26.5q-11 -2 -28 1.5t-27 10.5q-8 -2 -22.5 -2t-22.5 2q-22 -2 -44 0q-8 -11 -22.5 -11t-22.5 11q4 -8 4 -20t-4 -20q8 -8 8 -20t-8 -20q12 -8 12 -20t-12 -20
q11 -8 11 -20t-11 -20q6 -20 0 -40q10 -8 10 -20t-10 -20q10 2 25.5 2t25.5 -1q9 9 24.5 9.5t25.5 -7.5q9 15 25 15.5t26 -14.5q-4 24 11 37t38 6q-10 5 -9 13.5t12 13.5q6 13 17 13t17 -13q32 -14 31 -34.5t-33 -31.5q26 -10 27.5 -30t-23.5 -33q12 -10 12.5 -26.5
t-10.5 -26.5q-7 -8 -18 -8t-18 8q-10 7 -10 18t10 18q-22 -11 -37 0t-11 36q-10 -19 -26 -18.5t-25 19.5q-11 -19 -27 -18t-25 20q-10 -1 -25.5 -1t-25.5 2q20 -8 20 -21t-20 -21q8 -8 8 -21t-8 -20q2 -7 2 -20t-2 -21q8 -8 8 -21t-8 -21q10 -11 14 -32t-3 -35q19 16 36 8.5
t17 -33.5q10 23 26.5 23t26.5 -23q10 2 26.5 2t26.5 -2q8 11 24.5 16.5t29.5 0.5q-7 16 1.5 29t25.5 14q-23 15 -20 33t29 25q8 16 19 16t19 -16q17 -10 15.5 -23t-20.5 -19q7 -8 5 -21t-10 -20q10 -9 9 -22t-14 -20q11 -9 9.5 -22t-14.5 -19q-14 -25 -35.5 -23.5
t-32.5 27.5q-20 -6 -54 -5t-54 9q-8 -4 -20 -4t-20 4q-11 -14 -26.5 -21t-32.5 -7.5t-33 6t-28 20.5q-11 -33 -31.5 -33.5t-34.5 30.5q-12 -21 -34 -22.5t-36 17.5q-9 8 -9 20t9 20q11 4 30 4t30 -4q9 7 25.5 12.5t26.5 6.5q-26 17 -22.5 35.5t34.5 23.5q-4 8 -4 22.5
t4 22.5q-2 8 -2 22t2 22q-11 8 -11 22.5t11 22.5q-5 8 -5 22t5 22q-1 8 -1 22.5t1 22.5q-14 8 -14 22t14 22q-2 8 -2 22.5t2 22.5q-8 14 -9 36t7 36q-26 5 -28.5 20.5t20.5 29.5q-12 14 -18 30q-11 -11 -26 -8.5t-22 16.5z" />
    <glyph glyph-name="F" unicode="F" horiz-adv-x="472" 
d="M282 36q13 2 34 3.5t34 2.5q7 -7 7 -18t-7 -18q-15 -5 -39.5 -3.5t-38.5 8.5q-15 -17 -39.5 -16.5t-38.5 17.5q-10 -26 -29 -26t-31 25q-10 -27 -27.5 -27.5t-29.5 25.5q-7 -27 -23.5 -29t-29.5 24q-11 8 -11 20t11 20q11 14 30 14t30 -14q5 16 21.5 22t30.5 -4
q-7 13 -3 31.5t15 28.5q-5 8 -5 22.5t5 22.5q-22 8 -22 22.5t22 22.5q-13 8 -13 22t13 22q-21 8 -21 22.5t21 22.5q-8 8 -8 22.5t8 22.5q-19 8 -19 22t19 22q-16 8 -16 22.5t16 22.5q-8 8 -8 22.5t8 22.5q-16 12 -18 35t11 38q-15 -1 -21.5 8t0.5 23q-10 -2 -26.5 0.5
t-25.5 7.5q-8 -22 -22 -22t-22 22q-16 8 -16 19t16 19q13 19 31 28t36 8t35 -11.5t28 -31.5q16 36 41.5 35.5t40.5 -36.5q15 28 40 28.5t41 -27.5q11 26 27.5 40t35 15t36.5 -11t32 -37q7 -9 7 -23.5t-6 -23.5q23 -9 23 -24t-23 -24q11 -8 11 -23t-10 -24q-6 -13 -17 -13.5
t-19 11.5q-6 7 -6.5 18.5t4.5 19.5q-12 4 -18.5 18t-2.5 26q-17 -25 -35 -20.5t-22 34.5q-10 -23 -29 -23t-29 23q-10 -10 -27 -11t-28 8q7 -8 6.5 -19t-9.5 -18q4 -20 0 -40q11 -8 11 -20t-11 -20q7 -8 7 -20t-7 -20q10 -8 10 -20t-10 -20q13 -6 15 -16.5t-7 -18.5
q20 8 38 -4q9 5 23 5t23 -5q8 7 22.5 7.5t23.5 -6.5q2 17 17.5 31t32.5 13q-11 5 -11 14t11 14q6 13 17 13t17 -13q2 -10 1 -28t-3 -28q28 -14 29.5 -40t-25.5 -42q4 -10 5.5 -28.5t-1.5 -29.5q-8 -10 -19 -10t-19 10q-9 9 -9 24t9 24q-14 2 -29 13t-19 23q-9 -8 -23.5 -7.5
t-23.5 8.5q-8 -11 -23 -11t-23 11q-7 -9 -19.5 -10t-21.5 5q6 -8 5 -19t-11 -17q20 -8 20 -21t-20 -20q11 -7 11 -20t-11 -21q20 -8 20 -21t-20 -21q34 -7 37.5 -28t-25.5 -39q16 1 31.5 -10.5t18.5 -26.5z" />
    <glyph glyph-name="G" unicode="G" horiz-adv-x="722" 
d="M394 594q-9 -17 -26 -18t-28 15q-5 -20 -20.5 -23.5t-29.5 12.5q-1 -25 -14.5 -30t-30.5 13q-4 -11 -16.5 -18.5t-24.5 -5.5q-4 -9 -15 -18.5t-20 -12.5q1 -11 -8 -23t-20 -14q12 -16 5.5 -29.5t-26.5 -14.5q19 -15 15 -30.5t-28 -19.5q21 -12 19 -29.5t-24 -25.5
q26 -8 27.5 -24t-22.5 -28q14 -6 18.5 -21t-3.5 -28q5 -7 12.5 -21.5t11.5 -23.5q26 8 35.5 -5t-4.5 -36q19 6 31 -5.5t7 -30.5q8 -5 21.5 -14t20.5 -15q19 16 33.5 9.5t13.5 -31.5q14 15 29.5 10.5t19.5 -24.5q10 2 26 1t25 -6q4 0 11 0.5t11 0.5q10 32 32 34.5t38 -26.5
q3 22 16 30.5t28 2.5q-8 11 -3 23t23 20q-14 10 -14 29t14 29q-11 4 -20.5 17t-8.5 25q-13 -16 -31.5 -14.5t-27.5 20.5q-8 -7 -22.5 -7.5t-23.5 5.5q-17 8 -17 20t17 20q10 5 24.5 3.5t22.5 -8.5q15 31 37.5 30t35.5 -33q16 14 43.5 15t44.5 -12q10 17 28.5 18.5
t31.5 -13.5q14 -8 14 -19t-14 -19q-10 -8 -27.5 -19t-28.5 -17q27 -12 27 -32t-27 -32q20 4 33 -9t9 -33q4 -4 4 -12t-4 -12q-4 -14 -19 -21t-28 -2q-7 -17 -25 -23.5t-34 3.5q-5 -33 -25 -37.5t-39 23.5q-10 -17 -29.5 -20t-33.5 10q-9 -26 -27 -27t-30 24q-10 -3 -26 -2
t-26 5q-12 -11 -27.5 -8t-22.5 17q-12 -8 -27 -3t-21 18q-18 -17 -32 -11t-12 31q-20 -13 -32.5 -5t-8.5 31q-10 2 -21.5 12t-15.5 19q-12 2 -22 13t-10 23q-17 0 -24.5 12.5t-0.5 27.5q-22 1 -28 14.5t8 30.5q-7 8 -10.5 23t-1.5 25q-9 9 -10.5 26t5.5 27q-5 10 -4.5 25
t7.5 24q1 9 5 23.5t6 23.5q-9 13 -4 26.5t21 17.5q-11 16 -3 29t27 12q5 8 14 19.5t16 17.5q-9 23 2 33.5t34 -0.5q7 7 19.5 15.5t21.5 12.5q4 13 18.5 20t27.5 2q4 19 20 24t31 -8q6 25 23 28.5t31 -18.5q10 24 28.5 25t30.5 -22q11 10 28 9t27 -12q13 0 35 -2.5t35 -5.5
q16 16 36.5 12.5t30.5 -23.5q10 2 26 -2t24 -12q16 -9 16 -24.5t-16 -24.5q2 -9 2 -24t-2 -24q8 -9 8 -24.5t-8 -24.5q-8 -7 -20 -7t-20 7q-2 5 0 10q-8 8 -12.5 23.5t-0.5 26.5q-17 -4 -27 7t-6 28q-17 -13 -32 -6t-15 29q-13 -8 -30 -4t-25 17q-12 -18 -29.5 -16.5
t-26.5 21.5z" />
    <glyph glyph-name="H" unicode="H" horiz-adv-x="758" 
d="M554 114q-17 9 -17 23t17 23q-4 9 -4 23t4 23q-17 9 -17 23t17 23q-25 12 -16 31q-18 -5 -28 15q-8 -18 -22 -18t-22 18q-8 -9 -22.5 -9t-22.5 9q-8 -3 -22 -3t-22 3q-8 -4 -22 -4t-22 4q-8 -7 -22.5 -7t-22.5 7q-8 -16 -22 -16t-22 16q-22 -4 -44 0q9 -10 9 -29t-9 -29
q14 -10 14 -29t-14 -29q4 -8 4.5 -22.5t-3.5 -23.5q15 -8 17 -23t-11 -25q17 0 23 -12t-4 -26q14 14 26 9t12 -25q8 10 22 10t22 -10q10 -7 10 -18t-10 -18q-14 -16 -35.5 -14.5t-32.5 20.5q-14 -4 -37 -3.5t-37 5.5q-13 -35 -35.5 -35.5t-36.5 33.5q-11 -22 -32.5 -24
t-35.5 18q-10 8 -10 19t10 19q9 9 24 9t24 -9q5 9 18.5 14.5t23.5 4.5q0 11 4.5 29t9.5 28q-6 8 -6 21t6 21q-2 8 -2 21.5t2 21.5q-14 8 -14 21.5t14 21.5q-7 8 -7 21t7 21q-14 8 -14 21t14 21q-13 8 -13 21.5t13 21.5q-1 8 -1 21.5t1 21.5q-9 8 -9 21t9 21q-4 17 -6.5 47
t-0.5 48q-17 -1 -24 9.5t3 25.5q-18 0 -34 2q-8 -4 -21 -4t-21 4q-9 8 -9 20t9 20q14 8 36.5 5t34.5 -13q14 30 34.5 29t30.5 -33q11 20 32.5 21.5t35.5 -17.5q13 6 34.5 8.5t35.5 -0.5q12 -8 12 -20t-12 -20q-8 -8 -20 -8t-20 8q-3 -23 -19.5 -29t-33.5 10q10 -15 7.5 -38
t-16.5 -35q1 -9 1 -24.5t-1 -24.5q16 -9 16 -24t-16 -24v-49q22 2 44 0q8 16 22.5 16t22.5 -16q8 21 22.5 21t22.5 -21q8 6 22 6t22 -6q22 2 44 0q8 6 22.5 6t22.5 -6h45q8 22 22 22t22 -22q-2 10 -2 27t2 27q-11 10 -11 27t11 27q-10 17 -12 46.5t6 48.5q-12 1 -18 12.5
t-2 22.5q-8 -16 -18.5 -15.5t-15.5 17.5q-8 -14 -21 -14t-21 14q-9 8 -9 20t9 20q10 4 27 2.5t27 -7.5q19 38 47 36.5t43 -41.5q14 22 40 23.5t43 -18.5q7 24 22.5 25.5t26.5 -20.5q14 -8 14 -20t-14 -20q-8 -11 -19 -11t-19 11q-2 -20 -15 -28t-29 0q20 -16 15.5 -35
t-31.5 -29q16 -8 16 -22t-16 -22q19 -8 19 -22.5t-19 -22.5q10 -8 10 -22t-10 -22q11 -8 11 -22t-11 -22q22 -8 22 -22t-22 -22q12 -8 12 -22.5t-12 -22.5q3 -8 3 -22t-3 -22q27 -10 27 -29t-27 -29q19 -8 22.5 -27t-10.5 -34q22 16 35.5 6.5t6.5 -35.5q9 3 24 3t24 -3
q15 -7 15 -18t-15 -18q-16 -8 -40.5 -6t-38.5 12q-11 -5 -28 -4.5t-27 6.5q-10 -20 -28.5 -20.5t-30.5 18.5q-15 -23 -43 -25t-46 19q-14 8 -14 19t14 19q9 14 25 14t25 -14q0 21 13 26.5t29 -7.5q2 11 5.5 29t6.5 28z" />
    <glyph glyph-name="I" unicode="I" horiz-adv-x="328" 
d="M60 586q-19 -4 -38 0q-12 8 -12 19t12 19q10 16 23.5 15t20.5 -18q19 37 47 35t43 -40q14 40 41.5 41.5t46.5 -36.5q9 2 24 3t24 0q8 -8 8 -20t-8 -20q-8 -14 -21 -14t-21 14q-2 -19 -16 -26.5t-31 2.5q20 -16 16.5 -36.5t-27.5 -29.5q11 -8 11 -22.5t-11 -22.5
q8 -8 8 -22t-8 -22q21 -8 21 -22.5t-21 -22.5q13 -8 13 -22t-13 -22v-45q4 -8 4 -22t-4 -22q19 -8 19 -22.5t-19 -22.5q6 -11 6 -30.5t-5 -30.5q19 -7 23.5 -25.5t-9.5 -33.5q15 7 28.5 -1.5t14.5 -24.5q9 4 24 4t24 -4q16 -7 16 -18t-16 -18q-14 -16 -34 -14.5t-31 20.5
q-14 -14 -36.5 -13t-36.5 15q-14 -2 -37 -3t-36 1q-11 -8 -31.5 -9.5t-33.5 3.5q-12 8 -12 19t12 19q9 22 23 22t23 -22q5 9 17.5 15t23.5 4q-23 17 -19 35t32 22q-20 8 -20 21t20 21q-7 8 -7 21.5t7 21.5q-5 8 -5 21.5t5 21.5q-13 8 -13 21t13 21q-3 8 -3 21t3 21
q-10 8 -10 21.5t10 21.5q-1 8 -1 21.5t1 21.5q-15 8 -15 21t15 21q-21 16 -22.5 45t18.5 47q-8 4 -15 16t-7 22q-8 -8 -19 -7.5t-17 9.5z" />
    <glyph glyph-name="J" unicode="J" horiz-adv-x="320" 
d="M188 -12q-3 -9 -10.5 -22.5t-12.5 -20.5q8 -20 -2.5 -32.5t-31.5 -8.5q-6 -9 -19 -20.5t-23 -16.5q-4 -13 -18.5 -23.5t-27.5 -10.5q-5 -11 -20 -19.5t-27 -8.5q2 -25 -11.5 -32t-32.5 11q-7 6 -7 17t7 17q3 17 19 26t32 2q-1 20 13 32.5t33 8.5q5 11 16.5 26t21.5 23
q-8 16 0 33t26 21q-11 12 -8 29t17 25q-11 8 -11 21t11 20q-3 7 -3 20t3 21q-11 8 -11 20t11 20q-1 8 -1 21t1 20q-20 7 -20 20t20 21q-20 8 -20 21t20 20q-8 7 -8 20t8 21q-19 8 -19 20t19 20q-16 8 -16 21t16 20q-10 7 -10 20t10 21q-7 14 -8 38.5t4 39.5q-7 6 -11.5 18.5
t-2.5 21.5q-16 -18 -33 -13.5t-21 27.5q-4 -10 -12 -10t-12 10q-14 8 -14 19t14 19q14 26 32 24t26 -30q16 16 41 15t39 -19q13 22 36.5 23.5t38.5 -19.5q9 16 27 18t30 -12q4 -20 0 -40q-9 -14 -24 -14t-24 14q-2 -15 -15.5 -22.5t-27.5 -2.5q9 -14 6 -35t-15 -32
q4 -8 4 -21t-4 -20q10 -7 10 -20t-10 -21q5 -8 5 -21t-5 -20q14 -7 14 -20t-14 -21q10 -8 10 -21t-10 -20q20 -8 20 -21t-20 -21q10 -7 10 -20t-10 -21q16 -8 16 -21t-16 -20q20 -7 20 -20t-20 -21q4 -8 4 -21t-4 -20q16 -7 16 -20t-16 -21q14 -12 11.5 -27.5t-19.5 -22.5z
" />
    <glyph glyph-name="K" unicode="K" horiz-adv-x="622" 
d="M68 586q-6 -3 -17 -3t-17 3q-8 8 -8 20t8 20q9 0 23.5 -1.5t23.5 -3.5q15 -1 39.5 -2.5t39.5 -2.5q13 22 37 23.5t40 -18.5q7 23 22.5 24.5t26.5 -19.5q16 -8 16 -20t-16 -20q-4 -7 -11 -7t-11 7q-9 -9 -26.5 -15.5t-30.5 -4.5q28 -17 25 -39.5t-34 -32.5q8 -8 8 -22
t-8 -22q4 -8 4 -22.5t-4 -22.5q18 -8 18 -22t-18 -22q4 -8 4 -22t-4 -22q3 -8 3 -22t-3 -22q3 -8 3 -22.5t-3 -22.5q11 -8 11 -22t-11 -22q2 -10 2 -26.5t-2 -26.5q11 -11 15 -31t-3 -33q13 1 23.5 -8.5t10.5 -22.5q10 4 29 4t29 -4q14 -7 14 -18t-14 -18q-15 -26 -35 -24
t-30 30q-14 -3 -37.5 -2.5t-37.5 4.5q-13 -36 -35.5 -36.5t-37.5 34.5q-11 -21 -31 -23t-34 17q-19 8 -19 19t19 19q9 20 23 20t23 -20q1 20 14 26.5t29 -6.5q-4 11 -0.5 28.5t11.5 27.5q-8 8 -8 21t8 21q-21 8 -21 21.5t21 21.5q-1 8 -1 21.5t1 21.5q-20 8 -20 21t20 21
q-8 8 -8 21t8 21q-17 8 -17 21.5t17 21.5q-20 8 -20 21.5t20 21.5q-20 8 -20 21t20 21q-28 16 -30.5 45t23.5 49q-13 2 -19.5 13t-1.5 23q-5 -4 -14 -3t-14 5zM212 310q-9 17 -0.5 27.5t27.5 6.5q2 9 11 19.5t17 15.5q-1 11 7 22t20 12q-9 17 -0.5 28t27.5 6q1 10 10 20.5
t18 14.5q-2 13 6 23.5t21 10.5q-7 10 -2.5 22t16.5 16q-13 -1 -24 9t-12 23q-6 -10 -16 -10t-16 10q-18 8 -18 19t18 19q20 6 52.5 3t51.5 -13q12 32 34.5 33t37.5 -29q10 2 28 3.5t28 2.5q6 -20 0 -40q-3 -4 -8 -4t-8 4q-10 -20 -36 -33.5t-48 -10.5q1 -10 -7.5 -21
t-18.5 -12q1 -11 -7.5 -21t-18.5 -11q3 -12 -5 -22.5t-21 -10.5q-2 -9 -10 -19t-16 -14q3 -12 -5 -22t-21 -10q5 -14 -3 -24.5t-23 -8.5q12 -4 23.5 -14.5t21 -23.5t15.5 -27.5t7 -27.5q9 -7 19.5 -20.5t14.5 -23.5q20 3 30.5 -10.5t3.5 -32.5q19 3 30 -10t5 -32
q7 -8 18 -21t18 -20q15 0 27 -13t11 -28q16 1 28.5 -11.5t10.5 -29.5q27 11 39.5 -1.5t1.5 -39.5q-7 -9 -22 -16.5t-26 -7.5q-25 -10 -38.5 2t-4.5 38q-35 -4 -61.5 22t-24.5 60q-27 -10 -47.5 -8t-32.5 14t-13.5 32.5t9.5 47.5q-26 -10 -38.5 3t-1.5 39q-15 1 -27.5 14.5
t-11.5 28.5q-27 -9 -38.5 4t2.5 38q-20 -4 -31 8.5t-3 32.5z" />
    <glyph glyph-name="L" unicode="L" horiz-adv-x="574" 
d="M472 70q-6 23 6 52.5t32 41.5q15 16 28 11t14 -27q22 -21 15 -40.5t-37 -21.5q14 -20 7 -46.5t-29 -37.5q-12 -8 -31 -7t-29 10q-13 -16 -33 -15.5t-31 17.5q-13 -20 -33.5 -20t-32.5 21q-14 -24 -35 -24t-35 24q-11 -4 -30.5 -4t-30.5 4q-11 -8 -29 -8t-28 7
q-10 -7 -26 -7.5t-27 5.5q-9 -5 -24 -6t-25 3q-12 8 -12 19t12 19q8 8 22 8t22 -8q1 22 15 27.5t30 -8.5q-17 14 -13.5 32t24.5 25q-15 8 -15 21t15 21q-13 8 -13 21t13 21q-8 8 -8 21.5t8 21.5q-18 8 -18 21t18 21q-2 21 0 42q-7 8 -7 21.5t7 21.5q-21 8 -21 21t21 21
q-16 8 -16 21t16 21q-14 14 -15.5 38t11.5 39q-8 7 -14 20t-6 23q-10 2 -28 5.5t-28 6.5q-10 -6 -20 0q-11 8 -11 20t11 20q11 16 26.5 14t22.5 -20q19 40 49 39t46 -43q16 43 45.5 43.5t48.5 -40.5q9 1 24 2.5t24 2.5q16 -8 16 -20t-16 -20q-9 -20 -25 -20t-25 20
q-3 -18 -18 -25t-31 3q9 -16 3.5 -37t-20.5 -31q18 -8 18 -22.5t-18 -22.5q16 -8 16 -22t-16 -22q13 -8 13 -22.5t-13 -22.5q2 -8 2 -22t-2 -22q20 -8 20 -22.5t-20 -22.5q3 -8 3 -22t-3 -22q17 -8 17 -22.5t-17 -22.5q26 -11 28 -33t-21 -38q19 1 25.5 -10t-4.5 -27
q10 2 21 -3.5t15 -14.5q22 23 53.5 18.5t46.5 -32.5q11 15 33 17.5t37 -9.5q7 5 19.5 11.5t20.5 8.5z" />
    <glyph glyph-name="M" unicode="M" horiz-adv-x="912" 
d="M718 106q-10 7 -12 20t6 23q-12 7 -13.5 20.5t8.5 22.5q-19 6 -21 20t15 24q-11 7 -12.5 20.5t7.5 22.5q-16 6 -18 19.5t12 23.5q-17 6 -19 19t13 24q-17 6 -19 19.5t14 23.5q-18 6 -20 20t14 24q-5 8 -6.5 21.5t1.5 21.5q-9 1 -15 6q-1 0 -2 -0.5t-3 -0.5q-2 -8 -6 -20
t-8 -19q-6 -20 -14 -38q12 -12 8 -24t-21 -14q14 -13 9.5 -25t-23.5 -13q4 -10 -0.5 -22t-13.5 -17q1 -8 -3.5 -20t-10.5 -18q1 -8 -3 -20t-11 -18q0 -8 -4.5 -20.5t-9.5 -18.5q8 -11 3.5 -23t-17.5 -15q16 -13 11.5 -25t-24.5 -13q0 -8 -4.5 -20t-9.5 -18q0 -8 -4.5 -20.5
t-9.5 -18.5q10 -12 6 -24t-20 -14q-5 -4 -14 -4t-14 4q-4 7 -10 19.5t-8 19.5q-19 0 -24 12t7 26q-14 2 -19.5 14.5t1.5 24.5q-7 5 -12.5 17t-4.5 21q-5 6 -10.5 18.5t-7.5 20.5q-9 5 -14 16.5t-3 21.5q-20 -1 -25.5 11.5t7.5 27.5q-11 4 -16.5 16t-1.5 23q-7 5 -12 17
t-5 21q-21 -1 -26.5 11t8.5 28q-10 4 -15.5 16t-1.5 22q-13 2 -19 14.5t1 24.5q-8 5 -13.5 16.5t-3.5 21.5q-9 15 -17 36q2 -8 1 -20t-5 -19q6 -8 5.5 -22t-7.5 -21q13 -9 12 -22t-15 -20q14 -9 13 -22t-15 -21q0 -8 -1 -21t-2 -21q13 -9 12 -22t-15 -20q8 -8 7.5 -22
t-9.5 -21q20 -9 19 -22t-22 -20q16 -9 15.5 -22t-17.5 -21q5 -8 4.5 -21t-7.5 -21q17 -8 20.5 -27t-10.5 -32q8 -1 19 -7.5t15 -13.5q8 19 22 19t22 -19q16 -7 16 -18t-16 -18q-12 -12 -29.5 -10.5t-27.5 15.5q-11 -1 -30.5 -1t-30.5 2q-10 -28 -28.5 -29t-29.5 28
q-10 -7 -28.5 -8t-29.5 3q-16 8 -16 19t16 19q9 15 23 15t23 -15q2 17 14.5 21.5t25.5 -7.5q-4 14 0 33t14 29q-2 8 -1 21.5t4 21.5q-14 9 -13 22t16 20q-4 8 -3 21.5t7 21.5q-19 9 -17.5 22t20.5 20q-5 8 -3.5 22t6.5 21q-7 8 -6 21.5t9 21.5q-7 8 -6 21t9 21
q-16 10 -14.5 23t18.5 20q-8 8 -6.5 21.5t9.5 20.5q-3 8 -2 21.5t5 21.5q-9 4 -8.5 10.5t10.5 9.5q-14 -5 -23.5 3t-6.5 23q-8 -1 -21 -1t-21 1q-13 8 -13 19t13 19q17 16 42.5 13t39.5 -23q15 8 41.5 11t42.5 -1q41 -7 50.5 -37t-20.5 -59q5 -8 11.5 -23t8.5 -25
q10 -7 17 -23t4 -29q43 -7 57.5 -41.5t-11.5 -69.5q23 -2 30.5 -19.5t-6.5 -36.5q15 -5 22.5 -22t1.5 -32q12 -6 19.5 -21.5t5.5 -28.5q6 -4 11 -11.5t9 -15.5q1 11 8 20.5t18 12.5q-14 18 -7 35.5t29 20.5q-10 17 -2.5 35t25.5 24q-8 16 -1.5 35t23.5 26q-18 19 -11.5 37.5
t32.5 21.5q-23 20 -17 38t37 19q-12 15 -6.5 32t24.5 21q-7 10 -3 24t15 19q-4 16 1.5 39.5t16.5 35.5q21 24 50.5 20t43.5 -32q14 19 41 22t45 -12q14 -8 14 -20t-14 -20q-9 -16 -23 -16t-23 16q6 -22 -6 -35.5t-33 -9.5q17 -6 17 -18.5t-17 -21.5q14 -6 16 -18.5
t-10 -22.5q4 -8 5.5 -20.5t-0.5 -20.5q5 -7 7 -20t-1 -21q10 -7 11.5 -19.5t-6.5 -21.5q19 -5 20.5 -18t-15.5 -23q11 -6 13 -19t-7 -22q8 -7 9.5 -20t-4.5 -21q18 -5 20 -17.5t-14 -23.5q14 -6 16 -19t-11 -22q6 -11 10 -30.5t2 -31.5q19 8 33.5 -3t12.5 -31q8 11 20 11
t20 -11q16 -7 16 -18t-16 -18q-16 -2 -42 0t-41 6q-11 -8 -30 -7t-29 9q-9 -5 -25 -5.5t-26 3.5q-13 -9 -36.5 -11t-38.5 5q-5 8 -5 19t5 19q9 22 23 22t23 -22q9 10 26.5 26t29.5 24q-8 3 -8 9t8 9z" />
    <glyph glyph-name="N" unicode="N" horiz-adv-x="778" 
d="M182 624q14 2 23 -8t5 -23q14 2 23 -7.5t5 -23.5q6 -4 14.5 -14t12.5 -17q17 5 26 -5t2 -27q12 0 20.5 -9.5t7.5 -21.5q13 1 21.5 -8.5t6.5 -22.5q5 -5 14 -15t13 -16q15 3 23.5 -7t4.5 -24q16 3 24.5 -6.5t3.5 -24.5q20 7 28.5 -2.5t-0.5 -28.5q16 5 25 -5t2 -26
q12 0 20.5 -10t7.5 -22q7 -4 15.5 -14t12.5 -17q15 3 24 -6.5t4 -24.5q17 4 25 -5.5t2 -25.5q12 5 23 1q1 2 1 4t2 4q-4 20 -2 40q-11 8 -11.5 20.5t9.5 20.5q-4 20 -2 40q-14 7 -15 19.5t13 20.5q-16 7 -16.5 19.5t14.5 20.5q-19 7 -19.5 19.5t17.5 20.5q-18 7 -18.5 20
t16.5 21q-16 7 -17 19.5t15 20.5q-11 7 -11.5 19.5t9.5 20.5q-12 7 -24.5 23.5t-15.5 30.5q-12 -8 -33 -8t-33 8q-9 8 -8.5 21t10.5 21q11 2 29.5 0t29.5 -6q13 26 33 24.5t30 -28.5q10 33 31.5 34.5t36.5 -30.5q11 2 30.5 3.5t31.5 2.5q19 -8 19 -20t-19 -20q-9 -7 -23 -7
t-23 7q8 -23 -6 -38t-38 -10q3 -8 3 -21.5t-3 -21.5q3 -8 3 -21t-3 -21q17 -8 17 -21.5t-17 -21.5q1 -8 0.5 -21t-1.5 -21q5 -8 5 -21.5t-5 -21.5q19 -8 19 -21.5t-19 -21.5q13 -8 13 -21t-13 -21q17 -8 17 -21.5t-17 -21.5q4 -8 4 -21.5t-4 -21.5q1 -8 0.5 -21t-1.5 -21
q17 -8 17 -21.5t-17 -21.5q4 -21 0 -42q16 -8 16 -21.5t-16 -21.5q-12 -10 -24 0q-17 -5 -25.5 4.5t-1.5 25.5q-18 -5 -26 4.5t0 26.5q-9 1 -17.5 10.5t-9.5 19.5q-10 1 -18.5 11t-8.5 20q-13 -2 -21.5 7.5t-4.5 22.5q-19 -7 -28 2.5t1 28.5q-11 0 -19.5 9.5t-7.5 20.5
q-7 4 -15.5 13.5t-10.5 17.5q-18 -6 -26.5 3.5t-0.5 26.5q-20 -8 -28 1.5t1 28.5q-13 -2 -21.5 8t-4.5 23q-19 -7 -28 2t1 28q-8 3 -17 12.5t-10 18.5q-10 2 -18 11t-8 19q-19 -7 -27.5 3t0.5 28q-11 0 -19.5 9.5t-7.5 20.5q-20 -7 -28.5 2.5t2.5 28.5q-16 -5 -21 -3
q-1 -5 -6 -10q16 -8 16 -21t-16 -21q11 -7 11.5 -21t-10.5 -22q21 -8 21 -21.5t-21 -21.5q6 -8 6 -21t-6 -21q3 -8 3 -21.5t-3 -21.5q4 -8 4.5 -21.5t-3.5 -21.5q6 -21 0 -42q14 -8 14 -21.5t-14 -21.5q22 -9 23.5 -26.5t-20.5 -28.5q16 -1 22 -14t-2 -26q11 2 25 -2.5
t22 -12.5q8 16 22 16t22 -16q3 -7 3 -18t-3 -18q-12 -6 -30 -4t-29 10q-13 -13 -34.5 -12.5t-34.5 14.5q-11 -25 -31 -25t-32 24q-10 -27 -29.5 -28.5t-33.5 23.5q-7 8 -7 19t7 19q7 18 18 18t18 -18q7 8 21.5 14t24.5 5q-2 11 1 29t9 28q-8 8 -8 21t8 20q-19 7 -19 20
t19 21q-1 8 -1 21t1 21q-3 8 -3 21t3 20q-7 7 -7 20t7 21q-15 8 -15 21t15 20q-1 7 -1 20t1 21q-8 8 -8 21t8 21q-12 8 -12 21t12 20q-1 7 -1 20t1 21q-27 -3 -42 15.5t-6 44.5q-8 -8 -21 -8t-21 8q-9 19 0 38q16 7 42 3.5t40 -13.5q11 35 35.5 37.5t42.5 -29.5z" />
    <glyph glyph-name="O" unicode="O" horiz-adv-x="696" 
d="M24 324q-17 11 -16 28t20 26q-22 15 -18 30.5t30 19.5q-17 18 -11 32.5t31 13.5q-11 18 -3 30.5t29 10.5q-8 19 2 30.5t30 5.5q-4 19 8 29t30 2q5 9 18.5 16.5t23.5 8.5q8 4 22.5 9.5t23.5 8.5q4 24 19.5 27.5t29.5 -16.5q8 20 24 21t27 -17q10 6 26.5 5t26.5 -9
q11 3 27 -1.5t24 -11.5q13 5 27.5 -1.5t19.5 -19.5q11 -2 24.5 -10.5t19.5 -16.5q17 6 29.5 -4.5t9.5 -28.5q18 3 28.5 -9.5t4.5 -29.5q24 4 32.5 -10t-5.5 -34q25 1 31.5 -14t-10.5 -33q4 -9 7.5 -25t5.5 -26q10 -9 11 -26t-7 -27q2 -11 1 -28.5t-5 -28.5q13 -13 8.5 -30
t-21.5 -23q11 -15 5 -30t-25 -17q12 -18 4 -31t-30 -11q6 -18 -4 -29.5t-29 -6.5q-5 -8 -17 -17.5t-21 -12.5q2 -23 -11.5 -30.5t-31.5 7.5q0 -25 -14.5 -30.5t-31.5 12.5q-5 -22 -21 -25t-29 15q-8 -25 -24.5 -26t-28.5 22q-10 -3 -27 -1.5t-27 5.5q-13 -10 -29 -6t-22 19
q-11 -1 -25.5 5.5t-21.5 15.5q-20 -13 -33 -4t-9 32q-18 -6 -30 4.5t-8 29.5q-21 -4 -31 8t-1 31q-18 1 -26 14.5t0 29.5q-14 5 -19.5 20t0.5 28q-13 7 -17 23t5 28q-23 8 -24 25t19 29zM100 332q12 -8 13 -23t-10 -25q18 -5 21 -20t-11 -27q13 -5 18 -19.5t-1 -26.5
q20 0 26.5 -13.5t-4.5 -29.5q19 3 27.5 -9t1.5 -29q15 4 25.5 -6t8.5 -26q17 11 29.5 3t9.5 -28q14 12 28.5 7t16.5 -24q9 -1 24.5 -2.5t24.5 -3.5q2 4 6 2q10 4 26 6t26 -1q4 19 19 23t28 -9q-2 22 11 29t30 -6q2 11 13 20.5t22 9.5q-5 15 3.5 27t24.5 12q1 11 7 25t14 22
q2 10 6 27.5t8 27.5q-22 13 -21 33t25 30q-22 8 -23.5 24.5t18.5 28.5q-3 10 -7 25.5t-6 25.5q-10 7 -17 22t-5 26q-27 -6 -36 7t7 36q-22 -8 -33 2.5t-3 32.5q-17 -8 -30 0.5t-12 27.5q-17 -19 -32 -13.5t-15 31.5q-12 -17 -28 -15.5t-24 21.5q-8 -23 -24.5 -25t-28.5 20
q-7 -7 -22 -11t-25 -3q-2 -14 -15 -21.5t-27 -2.5q-4 -9 -15.5 -18.5t-21.5 -11.5q-2 -10 -11.5 -21.5t-17.5 -16.5q11 -16 4.5 -29.5t-26.5 -14.5q20 -16 15.5 -31t-29.5 -18q16 -12 14 -29t-20 -25z" />
    <glyph glyph-name="P" unicode="P" horiz-adv-x="482" 
d="M274 280q-16 -20 -35 -16t-27 28q-9 4 -12 11q-2 -1 -4.5 -2t-4.5 -3q17 -8 17 -21t-17 -20q9 -8 8.5 -20.5t-9.5 -20.5q9 -8 9 -21t-9 -20q7 -7 7 -20t-7 -21q28 -8 32 -29.5t-19 -39.5q18 11 36.5 2.5t22.5 -29.5q10 2 29 2t29 -2q10 -8 10 -19t-10 -19
q-14 -19 -33 -17t-29 23q-14 -25 -36.5 -24.5t-35.5 26.5q-9 -14 -24.5 -14t-25.5 13q-10 -7 -27 -8.5t-28 5.5q-10 -14 -29 -16t-32 10q-8 8 -8 19t8 19q8 4 22 4t22 -4q8 9 23 17.5t26 9.5q-21 14 -18.5 34t25.5 29q-4 8 -4 20t4 20q-16 8 -16 21t16 20q-16 8 -16 20.5
t17 19.5q-6 7 -6 20t6 21q-17 8 -17 20t17 20q-17 8 -17 21t17 20q-5 7 -4 20t5 20q-18 7 -18 20t18 21q-3 8 -3 20t3 20q-28 9 -33 32.5t17 43.5q-15 -8 -28.5 0t-15.5 24q-7 -12 -19.5 -12.5t-20.5 10.5q-15 6 -15 17t15 17q14 24 32.5 35t37 10t36 -14.5t28.5 -38.5
q18 23 51 25.5t55 -17.5q4 14 13 15t16 -13q11 7 27.5 4.5t24.5 -12.5q10 -2 24.5 -9t21.5 -13q11 -2 22.5 -13t13.5 -22q11 -4 18.5 -17t5.5 -25q12 -7 14.5 -22.5t-5.5 -26.5q6 -10 4 -25.5t-9 -24.5q9 -13 4 -27.5t-20 -18.5q7 -15 -0.5 -27t-24.5 -11q8 -21 -3 -30.5
t-31 0.5q-5 -10 -18.5 -16.5t-24.5 -2.5q-8 -10 -24.5 -12t-26.5 5q-6 -6 -10 2zM191 339q13 -7 16 -14q1 1 5 3q14 21 30.5 18.5t23.5 -26.5q7 20 24 24t31 -12q2 11 13 19.5t22 6.5q-8 13 -2.5 25.5t20.5 14.5q-21 13 -19 29.5t25 24.5q-29 8 -31.5 26.5t22.5 33.5
q-19 -1 -27.5 12.5t1.5 30.5q-21 -18 -35.5 -10t-10.5 35q-13 -11 -34 -8.5t-31 16.5q-12 -24 -29 -15q8 -17 -13 -28q18 -7 18 -20t-18 -21q6 -8 5.5 -21t-6.5 -20q8 -7 8 -20t-8 -21q17 -8 17 -21t-17 -20q3 -8 3 -21t-3 -21z" />
    <glyph glyph-name="Q" unicode="Q" horiz-adv-x="708" 
d="M392 -6q-8 -17 -24 -19t-28 13q-12 -24 -29 -23t-25 27q-11 -4 -26.5 0t-23.5 13q-19 -18 -33.5 -11.5t-12.5 32.5q-10 2 -23.5 10.5t-18.5 17.5q-14 -1 -25 9.5t-11 24.5q-17 -2 -27 10t-4 29q-23 -3 -31 10t5 33q-20 2 -26.5 17t7.5 31q-9 8 -12.5 24t0.5 27
q-10 9 -11.5 26t7.5 27q-4 10 -2.5 26.5t6.5 26.5q-6 11 -2 27t14 23q-14 16 -8 30.5t27 15.5q-7 15 2 28t25 14q4 9 14 20.5t18 16.5q3 10 15 20t23 11q-2 19 11.5 27.5t30.5 -1.5q-1 26 13.5 32.5t32.5 -13.5q9 3 24.5 6.5t25.5 5.5q9 14 25.5 15t26.5 -11
q11 14 27.5 12.5t25.5 -16.5q13 14 29 10.5t22 -21.5q14 8 29 2t19 -21q9 -4 23.5 -12t21.5 -14q23 14 35.5 4t4.5 -36q17 2 28 -9t8 -28q24 5 33 -7.5t-4 -33.5q9 -6 15.5 -20t5.5 -25q18 -5 22.5 -20t-8.5 -28q25 -7 26.5 -23t-21.5 -28q11 -12 10 -30t-14 -29
q14 -14 10 -31.5t-22 -24.5q8 -14 2 -30.5t-22 -21.5q18 -23 10 -37t-37 -10q3 -16 -8 -29.5t-28 -12.5q-6 -10 -19.5 -21t-24.5 -15q3 -35 -21 -38q12 -10 15 -23q21 14 35 5.5t10 -34.5q18 11 32 2.5t13 -29.5q10 -3 24.5 -11t22.5 -15q14 3 29.5 -5t20.5 -20
q-4 -8 -15 -16t-19 -10q-9 2 -22.5 8t-21.5 10q-18 -17 -32.5 -10.5t-13.5 31.5l-48 24q-12 1 -28 9.5t-23 17.5q-21 -14 -37 -5t-15 34q-25 -19 -42.5 -9t-12.5 42zM408 100q26 5 39.5 -8.5t6.5 -35.5q7 10 19.5 15.5t23.5 2.5q2 10 13.5 20t22.5 11q-7 16 1.5 27.5
t25.5 10.5q2 9 8 23t11 21q-4 11 0 28.5t12 26.5q0 13 2.5 33.5t4.5 32.5q-25 9 -26 26.5t22 29.5q-10 8 -14.5 24.5t1.5 28.5q-17 3 -23.5 18t1.5 30q-13 2 -22.5 15.5t-7.5 27.5q-19 -7 -30.5 4.5t-6.5 30.5q-20 -13 -33 -4.5t-10 31.5q-10 1 -25.5 6.5t-24.5 10.5
q-11 -7 -28 -6t-27 11q0 -1 -1 -1t-1 1q-6 -17 -19 -18.5t-23 14.5q-2 -20 -15 -24t-27 11q-1 -19 -14 -25t-28 4q-2 -12 -13.5 -21t-23.5 -8q1 -13 -9 -24.5t-24 -12.5q8 -15 0 -28.5t-25 -15.5q21 -17 16 -33t-32 -18q17 -12 15.5 -30t-20.5 -27q22 -10 24 -31.5
t-18 -36.5q24 -6 28.5 -24.5t-14.5 -34.5q8 -8 15 -24.5t7 -27.5q7 -7 16 -20t13 -22q23 11 34.5 0.5t2.5 -34.5q13 4 26.5 -4t17.5 -21q17 0 44.5 -7t43.5 -15q14 2 30 2q2 15 14 35t24 29z" />
    <glyph glyph-name="R" unicode="R" horiz-adv-x="602" 
d="M192 582q2 -8 2 -21t-2 -20q4 -8 4 -21t-4 -21q18 -7 18 -20t-18 -21q16 -8 16 -21t-16 -20q8 -8 8 -21t-8 -21q14 -7 14.5 -20t-12.5 -20q8 1 19.5 0t18.5 -5q8 27 27.5 30t34.5 -21q7 9 22 16.5t26 7.5q5 7 14.5 19t15.5 19q-14 13 -11 28.5t21 22.5q-5 7 -7 19.5
t0 20.5q-6 8 -12.5 21.5t-8.5 22.5q-25 -13 -37.5 -2t-2.5 37q-13 -5 -32.5 -0.5t-29.5 13.5q-11 -9 -30 -9.5t-30 7.5zM268 302q-11 -19 -27 -24t-31 3q1 -13 -20 -23q14 -8 14 -21.5t-14 -21.5q19 -8 19 -21.5t-19 -21.5q7 -8 7 -22t-7 -22q9 -10 14 -30t2 -33
q11 -4 29.5 -11.5t28.5 -11.5q7 11 18 11t18 -11q12 -8 12 -20t-12 -20q-16 -27 -38.5 -25t-33.5 31q-10 -1 -26 -0.5t-26 2.5q-9 -16 -25.5 -17t-26.5 15q-8 -26 -25.5 -27t-30.5 22q-10 -11 -27 -11.5t-27 8.5q-2 18 0 36q10 1 29 1t29 -1q4 8 16 14t22 5q-5 13 -2 32
t12 29q-19 8 -19 20t19 20q-14 8 -14 20t14 20q-13 8 -13 21t13 20q-8 7 -8 20t8 20q-9 7 -9 20t9 20q-20 7 -20 20t20 21q-8 8 -8 20t8 20q-9 8 -9 20t9 20q-16 16 -18 45.5t12 48.5q-13 5 -18.5 19.5t0.5 26.5q-10 -13 -19 -10.5t-11 18.5q-8 -10 -22 -10t-22 10
q-14 8 -14 19t14 19q14 22 33.5 20.5t29.5 -25.5q12 17 32 16.5t31 -17.5q12 2 32 2.5t32 -0.5q8 20 24 21t26 -17q4 4 13 5t14 -3q10 1 26 -1.5t25 -5.5q16 13 30 6.5t14 -27.5q10 -2 21.5 -12.5t14.5 -20.5q9 -5 16.5 -18t6.5 -23q5 -8 8 -23t1 -25q26 -16 22.5 -36
t-33.5 -28q4 -16 -6.5 -32t-27.5 -19q2 -25 -15.5 -36.5t-39.5 1.5q11 -7 19.5 -23t7.5 -29q30 4 39 -12t-10 -39q20 -1 30 -16.5t1 -33.5q26 5 36 -10t-4 -38q26 5 36.5 -10t-2.5 -38q15 -2 26 -16t10 -29q7 -8 19 -22t19 -23q11 -5 23 -18.5t16 -24.5q-3 -8 -12.5 -13.5
t-17.5 -4.5q-20 -8 -33 3.5t-8 31.5q-11 3 -23.5 15t-16.5 23q-26 -11 -38 2t-1 38q-11 4 -23 17t-14 25q-15 1 -26 14.5t-9 28.5q-22 -4 -33 10t-1 35q-10 5 -20.5 19t-12.5 25q-19 -1 -29 13t-2 32q-13 4 -22.5 17.5t-7.5 26.5z" />
    <glyph glyph-name="S" unicode="S" horiz-adv-x="394" 
d="M186 608q-5 -16 -19.5 -20t-27.5 8q7 -21 -4.5 -31t-31.5 -1q18 -16 13.5 -30t-28.5 -16q10 -8 12.5 -22t-3.5 -25q21 4 29 -8.5t-2 -30.5q19 8 33.5 -2t12.5 -30q22 15 41 5.5t21 -35.5q12 2 26 -6.5t18 -20.5q25 11 36.5 0t0.5 -36q8 -6 17 -19t11 -23q16 -4 22 -18.5
t-3 -28.5q23 -7 25 -22.5t-19 -27.5q16 -11 14 -26.5t-19 -23.5q17 -14 13 -28t-27 -16q10 -16 2 -28t-27 -10q0 -13 -11 -21.5t-24 -6.5q-5 -10 -19.5 -16.5t-25.5 -2.5q-10 -3 -28 -5t-28 -2q-10 -7 -26.5 -4.5t-24.5 11.5q-19 -25 -38 -20t-23 37q-19 -19 -33.5 -12.5
t-12.5 32.5q-9 14 -8.5 35.5t10.5 34.5q-15 18 -17 49t11 51q8 5 22 5t22 -5q4 -8 4 -21t-4 -21q6 -8 8.5 -23.5t0.5 -25.5q19 1 27 -12t-2 -30q10 -2 22 -11.5t16 -18.5q10 2 25 -1t23 -10q8 15 27 20t33 -5q-9 25 4 38t38 2q-12 15 -7 33.5t23 25.5q-12 8 -15 24t4 28
q-25 -7 -35.5 6.5t1.5 36.5q-28 -19 -44.5 -7.5t-8.5 44.5q-9 0 -20.5 6t-15.5 14q-8 1 -19.5 7t-16.5 13q-17 -6 -32 4.5t-16 29.5q-26 -8 -37 4.5t2 36.5q-18 2 -24.5 16.5t4.5 29.5q-6 9 -8.5 25t1.5 26q-4 11 -1 28.5t10 27.5q-16 20 -8.5 33.5t32.5 10.5q-3 16 8 26
t27 6q2 19 16 25t29 -5q8 10 23.5 12t25.5 -6q20 20 47 16t41 -28q4 4 9 3.5t7 -5.5q3 5 9 5t9 -5q2 -8 2 -21t-2 -20q20 -8 20 -21t-20 -21q4 -7 4 -20t-4 -21q-8 -9 -20 -9t-20 9q-2 4 0 8q-19 6 -20.5 19t14.5 24q-18 -1 -25.5 11.5t0.5 28.5q-15 -13 -32 -8t-21 25z" />
    <glyph glyph-name="T" unicode="T" horiz-adv-x="636" 
d="M56 488q-18 0 -36 2q-2 8 -2 22.5t2 22.5q-17 8 -17 23t17 23q-20 8 -20 22.5t20 22.5q10 8 25 7t23 -10q11 26 28 25t25 -28q11 8 28.5 7t27.5 -10q12 17 31 16t30 -18q13 11 33.5 10.5t32.5 -11.5q14 4 36 4.5t35 -3.5q12 3 32.5 3.5t33.5 -1.5q11 21 29.5 22t31.5 -19
q9 26 26.5 27t29.5 -24q8 22 24.5 22.5t27.5 -19.5q16 -8 16 -22.5t-16 -22.5q4 -8 4 -23t-4 -23q22 -8 22 -22.5t-22 -22.5q-7 -14 -18 -14t-18 14q-12 10 -14.5 29t6.5 32q-17 -17 -34 -11.5t-20 30.5q-9 -1 -24.5 -1t-24.5 1q-9 -7 -24 -7t-24 7q-9 -1 -24.5 -1t-24.5 1
q2 -8 2 -21t-2 -20q12 -7 12 -20t-12 -21q14 -8 14 -21t-14 -20q10 -7 10 -20t-10 -21q10 -8 10 -21t-10 -20q12 -7 12 -20t-12 -21q16 -8 16 -21t-16 -20q19 -7 19 -20t-19 -21q5 -8 5 -21t-5 -20v-41q27 -9 27.5 -26t-25.5 -28q13 -4 16.5 -16t-5.5 -23q14 6 23 -1t5 -22
q13 18 29.5 15.5t23.5 -23.5q8 5 19 5t19 -5q11 -7 11 -18t-11 -18q-15 -22 -37.5 -21t-34.5 26q-11 -15 -29.5 -14.5t-29.5 16.5q-9 -20 -23 -20t-22 21q-7 -10 -19.5 -10.5t-19.5 9.5q-10 -12 -26.5 -12.5t-27.5 10.5q-11 -18 -32 -19.5t-35 14.5q-6 19 0 38q9 18 23 18
t23 -18q10 10 28 13.5t31 -1.5q3 8 9.5 19.5t11.5 17.5q-10 13 -9 34t11 33q-18 8 -18 21t18 21q-14 8 -14 21t14 21q-2 8 -2 21t2 20q-11 8 -11 21t11 21q-16 8 -16 21t16 21q-11 8 -11 21t11 21q-4 21 0 42q-12 7 -12 20t12 21v42q-14 13 -7 33q-9 -9 -20 -7t-19 16
q-8 -19 -22.5 -19t-22.5 19q-8 -4 -22.5 -4t-22.5 4q-9 -6 -23 -6t-23 6q-5 -11 -19 -18t-26 -3q11 -13 9 -33t-16 -30z" />
    <glyph glyph-name="U" unicode="U" horiz-adv-x="714" 
d="M558 274q-10 8 -10 22t10 22q-17 8 -17 22.5t17 22.5q-18 8 -18 22.5t18 22.5q-10 8 -10 22t10 22q-4 13 -5 34t3 34q-10 6 -16 21t-3 26q-13 -5 -30 1t-25 16q-8 -16 -22 -16t-22 16q-13 8 -13 20t13 20q10 14 23.5 12t19.5 -18q14 29 34.5 28t30.5 -32q14 24 38 25
t40 -21q12 4 32.5 6t33.5 0q7 -8 7 -20t-7 -20q-6 -8 -15 -8t-15 8q1 -20 -13 -28t-31 2q6 -13 4 -33t-10 -31q5 -9 5 -24t-5 -24q10 -9 10 -23.5t-10 -23.5q10 -9 10 -24t-10 -24q8 -9 8 -23.5t-8 -23.5v-48q22 -14 21 -34t-25 -30q2 -11 -2 -28.5t-11 -26.5
q-2 -9 -9 -23.5t-12 -22.5q1 -12 -8.5 -24t-20.5 -14q7 -23 -4.5 -32t-31.5 2q0 -23 -13.5 -29t-30.5 9q-4 -25 -19.5 -29t-30.5 16q-10 -13 -28 -14t-29 10q-10 -2 -28 -0.5t-29 4.5q-11 -4 -27 0t-24 12q-10 0 -23.5 6.5t-19.5 14.5q-15 -5 -26 3.5t-10 24.5q-8 5 -17 16
t-11 20q-22 0 -28 13.5t8 30.5q-28 3 -31.5 19t18.5 32q-14 10 -15 28t11 30q-19 8 -19 21.5t19 21.5q-13 8 -13 21.5t13 21.5q-9 8 -9 21t9 21q-17 8 -17 21.5t17 21.5q-6 8 -6 21.5t6 21.5q-14 11 -14 29.5t14 29.5q-16 7 -20 23t8 29q-11 -1 -25 6t-19 17q-12 -2 -24 0
q-9 8 -9 19t9 19q10 18 24.5 16.5t21.5 -21.5q15 12 38.5 10.5t37.5 -15.5q14 16 39 18t42 -13q7 17 22.5 19t26.5 -14q9 -8 9 -20t-9 -20q-9 -20 -23 -20t-23 20q-8 -8 -23 -16.5t-25 -12.5q13 -13 11 -33t-17 -30q8 -8 8 -21t-8 -21q2 -8 2 -21t-2 -20q9 -8 9 -21t-9 -21
q20 -8 20 -21t-20 -21q18 -7 18 -20t-18 -21q10 -8 10 -21t-10 -21q6 -12 8 -32t-2 -33q27 -1 32.5 -17.5t-14.5 -34.5q17 0 25.5 -12.5t1.5 -28.5q13 3 25 -6.5t12 -22.5q15 15 29.5 9.5t16.5 -26.5q12 17 28 15.5t24 -21.5q8 21 24 22.5t28 -17.5q6 10 20 14.5t24 -0.5
q2 13 13 20t23 3q-4 14 5 25t23 9q1 10 7 23.5t13 20.5q-5 12 -1.5 29t13.5 25q-2 13 -1 33.5t5 32.5z" />
    <glyph glyph-name="V" unicode="V" horiz-adv-x="684" 
d="M190 506q22 0 27 -12.5t-10 -27.5q16 -2 21 -14t-4 -25q5 -7 10.5 -19.5t6.5 -20.5q14 -2 19.5 -14.5t-2.5 -24.5q18 -2 23 -14t-6 -26q9 -5 14 -17.5t3 -22.5q14 -3 19 -15t-2 -24q23 1 28 -11.5t-11 -28.5q16 -1 22 -13t-5 -26q4 -8 9.5 -20t7.5 -20q0 8 4.5 20.5
t9.5 19.5q-9 12 -4 24t19 15q-11 12 -7 24.5t21 15.5q-5 10 0 22.5t15 16.5q-9 11 -4.5 23.5t18.5 16.5q-12 13 -7.5 25.5t21.5 14.5q-8 11 -3 23.5t18 15.5q-2 9 2.5 21.5t11.5 18.5q-1 9 3.5 21t11.5 18q1 8 5.5 20.5t8.5 19.5q-16 15 -12 32t26 22q-12 -1 -26 8t-18 20
q-8 -8 -20 -8t-20 8q-11 8 -11 19t11 19q9 0 24 -1.5t24 -3.5q14 29 34.5 28t31.5 -31q11 22 31.5 23t34.5 -20q7 19 21.5 20.5t24.5 -15.5q4 -8 4 -20t-4 -20t-11 -8t-11 8q-1 -22 -17.5 -30.5t-35.5 2.5q6 -17 -3 -37t-26 -27q17 -18 11 -32t-31 -13q4 -13 3 -28t-7 -29
t-15.5 -25.5t-21.5 -17.5q20 -20 13.5 -37t-35.5 -17q2 -24 -11 -57.5t-31 -50.5q-3 -11 -9 -27.5t-11 -26.5q16 -17 9.5 -33t-28.5 -19q14 -16 8.5 -31.5t-26.5 -18.5q9 -13 4 -28t-20 -19q-8 -10 -19 -10t-19 10q-20 4 -26 20.5t7 32.5q-21 4 -27 20.5t7 33.5
q-45 0 -73 13.5t-37 36.5t1.5 52.5t42.5 60.5q-10 20 -23 48t-26 58.5t-24.5 59t-19.5 49.5q-12 7 -19 23t-3 30q-30 -5 -47.5 15t-8.5 49q-4 -9 -10 -9t-10 9q-16 8 -16 20t16 20q12 14 27 11.5t21 -19.5q15 10 38.5 8.5t37.5 -12.5q10 28 30 29t33 -25q7 22 22 24t27 -18
q10 -8 10 -20t-10 -20q-6 -9 -15 -9t-15 9q-2 -36 -24 -34q8 -10 4 -22t-20 -22z" />
    <glyph glyph-name="W" unicode="W" horiz-adv-x="958" 
d="M500 405q-6 8 -10 16q-5 -14 -28 -17q3 -12 -2.5 -28t-15.5 -24q11 -15 5.5 -30.5t-23.5 -20.5q14 -16 8 -32t-26 -20q29 -31 18.5 -64t-52.5 -41q14 -15 9 -31.5t-25 -20.5q1 -10 -3.5 -26.5t-10.5 -25.5q15 -14 11.5 -30t-23.5 -22q-8 -17 -19 -17t-19 17
q-16 7 -20.5 23.5t6.5 30.5q-26 3 -31 20t15 34q-9 8 -14.5 25t-3.5 29q-10 8 -15.5 24.5t-3.5 28.5q-10 7 -16 24t-4 30q-48 5 -79.5 25t-42.5 50t-1 66t43 71q-24 3 -29.5 19.5t10.5 33.5q-13 7 -21.5 24t-6.5 31q-14 -19 -30.5 -16t-21.5 27q-13 8 -13 20t13 20
q10 -1 27 -3.5t28 -4.5q14 20 35.5 18.5t33.5 -22.5q10 14 29 15.5t31 -11.5q9 10 26 12t28 -6q15 -8 15 -20t-15 -20q-12 -6 -24 0q-8 -4 -23 -8.5t-24 -5.5q16 -13 12 -24.5t-24 -13.5q12 -9 16.5 -27t-3.5 -31q18 -2 22.5 -14t-8.5 -25q4 -7 8.5 -19.5t5.5 -20.5
q13 -4 17 -16.5t-4 -22.5q9 -5 13.5 -17t0.5 -22q22 -1 26.5 -13.5t-12.5 -26.5q13 -4 17 -16.5t-3 -22.5q20 -2 24 -14t-11 -25q8 -5 12.5 -17.5t1.5 -22.5q6 -9 10 -21q2 14 16 20q-6 10 -2 22t15 17q-5 10 -1.5 21.5t13.5 16.5q-12 12 -8 24.5t21 14.5q-16 13 -12 24.5
t24 13.5q-9 10 -5.5 22t17.5 16q2 8 6 20t7 19q-5 10 -1.5 21.5t13.5 16.5q-7 11 -2.5 23t15.5 16q-9 10 -5.5 22t17.5 16q-5 8 -3.5 20t9.5 18q-10 6 -23.5 19t-20.5 23q-8 -5 -20 -5t-20 5q-9 8 -9 20t9 20q14 22 31 19.5t25 -27.5q13 14 33 13t31 -17q12 9 32 10.5
t33 -6.5q11 5 28.5 7.5t28.5 0.5q9 -8 9 -20t-9 -20q-7 -6 -18 -6t-18 6q14 -23 4.5 -41.5t-35.5 -20.5q19 -2 22 -13t-13 -25q4 -7 8.5 -19t5.5 -20q20 0 25 -12t-10 -26q13 -4 17 -16.5t-3 -22.5q12 -4 16.5 -16t-2.5 -22q9 -4 13.5 -16t0.5 -22q15 -3 19.5 -15t-5.5 -24
q12 -4 16.5 -15.5t-1.5 -22.5q14 -3 18.5 -15.5t-4.5 -23.5q14 -3 19 -15q3 12 8 18q1 7 5 20t8 20q-16 13 -11.5 26t24.5 15q-3 10 1 22.5t12 18.5q-4 10 0.5 22.5t13.5 17.5q-1 9 3.5 21.5t9.5 19.5q-15 14 -11 26.5t24 14.5q-14 13 -9.5 25.5t22.5 14.5q-13 13 -9 25.5
t22 15.5q-5 9 -2.5 21.5t10.5 18.5q-10 6 -26.5 18.5t-25.5 21.5q-8 -17 -20 -17t-20 17q-3 8 -3 20t3 20q9 8 21.5 6.5t19.5 -11.5q13 5 34.5 4t34.5 -9q13 2 34 3.5t34 1.5q7 8 20 10t22 -5q9 -19 0 -38q-11 -4 -22 0q0 -17 -14 -27t-30 -4q15 -19 8 -38.5t-30 -24.5
q28 -29 18 -59.5t-50 -37.5q12 -15 7 -31t-24 -20q22 -19 16.5 -35t-34.5 -17q23 -30 12 -63t-47 -43q20 -28 9 -60.5t-43 -43.5q20 -16 15 -32t-31 -18q4 -11 0 -26t-14 -22q-6 -9 -15 -9t-15 9q-26 2 -32 17.5t14 33.5q-4 10 -9.5 26t-7.5 26q-6 9 -11 26t-6 27
q-8 8 -14 25t-4 29q-26 2 -32 18.5t14 34.5q-21 4 -27 20.5t8 32.5q-13 6 -19.5 22t-0.5 30q-15 5 -22 21t1 30z" />
    <glyph glyph-name="X" unicode="X" horiz-adv-x="710" 
d="M474 474q-2 -8 -9 -19t-14 -15q1 -10 -6 -21t-18 -13q8 -15 1 -25.5t-24 -8.5q4 -12 -3 -22t-18 -12q14 0 21 -10t0 -24q10 -2 17.5 -12.5t7.5 -20.5q15 1 22.5 -9.5t1.5 -24.5q18 3 25.5 -7.5t-1.5 -26.5q16 1 23.5 -9.5t0.5 -24.5q19 5 27 -5.5t-2 -27.5
q15 1 22.5 -9.5t1.5 -24.5q30 13 46 -2t5 -46q18 22 35.5 17t21.5 -33q4 10 11 10t11 -10q17 -8 17 -20t-17 -20q-15 -8 -38 -5t-36 13q-13 -6 -33.5 -5.5t-32.5 7.5q-13 -5 -34.5 -5.5t-35.5 3.5q-14 -10 -39 -13t-41 5q-7 8 -7 20t7 20q10 12 29 12t29 -12q-1 15 5.5 23
t16.5 7q-10 13 2 30q-7 5 -15.5 16.5t-11.5 19.5q-7 5 -15.5 16.5t-11.5 19.5q-20 -4 -29 7t1 29q-22 -6 -30.5 5t3.5 31q-13 0 -21 6q-7 -12 -30 -6q4 -13 -3.5 -24.5t-20.5 -12.5q3 -11 -4.5 -22.5t-19.5 -13.5q5 -13 -2.5 -24.5t-21.5 -12.5q3 -12 -4.5 -23t-19.5 -13
q13 -13 8.5 -23.5t-22.5 -10.5q14 -2 33 -10t29 -16q8 10 20 10t20 -10q6 -8 6 -19t-6 -19q-15 -31 -35.5 -29t-31.5 34q-13 -28 -35.5 -27.5t-35.5 28.5q-15 -4 -40 -4.5t-40 2.5q-11 -32 -33.5 -34t-38.5 28q-6 8 -6 19t6 19q10 17 30 19.5t34 -11.5q8 8 23.5 14.5
t26.5 7.5q2 12 14 24t24 14q-3 12 4.5 23t20.5 12q-12 18 -4.5 28.5t28.5 6.5q-7 16 0.5 26.5t24.5 8.5q-4 13 4 24t21 11q-7 15 0 25.5t24 9.5q-9 17 -1 27.5t26 7.5q-10 2 -17.5 12t-6.5 20q-8 4 -15.5 14t-8.5 18q-18 -4 -25.5 6t1.5 26q-8 3 -15.5 13t-8.5 19
q-7 4 -14.5 14t-9.5 18q-7 4 -14.5 14t-9.5 18q-27 -8 -40 8t-1 41q-9 5 -23 13t-21 13q-13 -6 -32.5 -3.5t-30.5 10.5q-2 20 0 40q14 8 35.5 5.5t32.5 -13.5q16 21 39.5 19.5t36.5 -23.5q13 25 36 26t38 -22q8 25 24.5 26.5t29.5 -20.5q20 -8 20 -20t-20 -20
q-8 -10 -20 -10t-20 10q-2 -11 -9 -17.5t-16 -4.5q12 -12 1 -28q19 4 26.5 -7t-2.5 -27q10 -2 18 -12t7 -21q18 3 25.5 -7.5t-1.5 -26.5q16 2 24 -8t1 -25q8 -4 15 -15t9 -19q10 18 22 36q-1 10 6.5 21t16.5 15q3 8 10 19t12 17q-7 14 0 25.5t23 10.5q-12 13 -12.5 25.5
t7.5 19.5q-14 5 -11 31h-42q-15 8 -15 19t15 19q11 -1 29.5 -2.5t28.5 -3.5q12 10 31 8.5t29 -12.5q11 14 31.5 15.5t33.5 -11.5q11 2 29.5 3.5t29.5 2.5q5 -8 5 -20t-5 -20q-4 -9 -11 -9t-11 9q-5 -20 -22.5 -25t-33.5 9q5 -20 -7.5 -32.5t-31.5 -8.5q-3 -12 -14 -28.5
t-21 -24.5z" />
    <glyph glyph-name="Y" unicode="Y" horiz-adv-x="628" 
d="M504 508q1 -10 -6 -23t-16 -17q10 -14 3 -26.5t-24 -13.5q1 -10 -6 -22.5t-16 -17.5q13 -17 6.5 -29.5t-28.5 -10.5q16 -18 9 -30.5t-30 -9.5q5 -13 -1.5 -25.5t-20.5 -14.5q13 -9 13 -24.5t-13 -24.5q20 -10 20 -25t-20 -25q14 -9 14 -24.5t-14 -24.5q25 -8 31.5 -30
t-9.5 -42q10 2 24.5 -1t22.5 -9q13 32 34.5 31.5t32.5 -33.5q10 -8 10 -19t-10 -19q-16 -8 -42.5 -5t-41.5 13q-14 -13 -36 -12.5t-36 14.5q-10 -12 -28 -12.5t-28 11.5q-10 -13 -27 -14.5t-28 10.5q-8 -19 -25 -21t-30 14q-13 8 -13 19t13 19q7 9 17 8.5t15 -10.5
q12 6 33 10.5t34 4.5q-23 20 -17.5 40.5t36.5 24.5q-9 10 -9 26t9 26v52q-23 10 -23 26t23 26q-16 0 -23.5 12t-0.5 26q-14 1 -22 12.5t-3 25.5q-18 -2 -25.5 10t1.5 28q-5 7 -12 18.5t-12 19.5q-9 4 -16.5 16t-8.5 22q-20 -3 -27.5 9t3.5 29q-18 5 -32 25t-13 39
q-17 -14 -33 -7t-18 29q-18 -6 -36 0q-13 8 -13 20t13 20q15 12 37.5 9.5t34.5 -17.5q12 4 31.5 3t30.5 -7q10 16 28.5 17.5t30.5 -13.5q11 30 35.5 32.5t41.5 -24.5q10 -8 10 -20t-10 -20q-9 -22 -23 -22t-23 22q-4 -10 -13.5 -13t-17.5 2q6 -9 6.5 -22t-5.5 -21
q13 -2 19.5 -13.5t1.5 -23.5q13 -1 20 -12.5t2 -23.5q19 2 26 -9.5t-5 -27.5q13 -2 19.5 -13.5t1.5 -23.5q8 -4 15 -15t7 -21q11 0 16 -4q8 8 26 5q-5 12 1 24t20 14q-7 14 0 25.5t22 12.5q3 8 9.5 19.5t11.5 18.5q-1 10 5.5 22t15.5 16q-2 11 4 24.5t17 18.5q-14 6 -14 16
t14 16q-11 -5 -26 -1t-23 14q-9 -16 -23 -16t-23 16q-10 7 -10 18t10 18q12 1 31 -1.5t30 -6.5q11 22 27 20.5t24 -24.5q10 4 26 5.5t27 -1.5q9 14 27.5 16.5t31.5 -8.5q2 -16 0 -32q-4 -7 -12 -7t-12 7q-2 -15 -16.5 -24.5t-29.5 -4.5q-5 -11 -15 -27t-17 -26z" />
    <glyph glyph-name="Z" unicode="Z" horiz-adv-x="674" 
d="M24 -2q-14 6 -14 17t14 17q1 10 9.5 19.5t18.5 10.5q0 10 9 19.5t19 10.5q-1 10 7.5 19.5t19.5 10.5q5 6 13.5 15.5t14.5 14.5q2 8 11 17.5t17 12.5q-1 11 8 20.5t20 9.5q-3 13 5.5 22.5t21.5 7.5q-2 13 6.5 22.5t21.5 7.5q2 8 11 17.5t17 12.5q-8 19 0.5 28.5t27.5 1.5
q-4 14 4 23.5t23 6.5q-3 14 6 23t22 7q1 10 9.5 19t18.5 11q-1 11 8 20.5t20 9.5q1 9 10 18.5t17 11.5q2 9 10.5 18.5t17.5 11.5q-5 18 7 26q-11 0 -21 4q-8 -17 -21 -17t-21 17q-8 -15 -21.5 -15t-21.5 15q-8 -4 -21 -4t-21 4q-21 -2 -42 0q-8 -14 -21 -14t-21 14
q-8 -20 -21.5 -20t-21.5 20q-8 -12 -21 -12t-21 12q-8 -11 -21 -11t-21 11q0 -19 -12 -25t-27 6q5 -10 3.5 -26t-8.5 -25q-15 -4 -30 0q-22 9 -22 24.5t22 24.5q-7 10 -7 25t7 25q-9 9 -9 24.5t9 24.5q10 22 25 21.5t22 -24.5q11 19 28.5 18t27.5 -21q13 17 33 16.5
t31 -19.5q13 1 36 1t37 -2q19 9 50.5 9.5t51.5 -7.5q15 8 36.5 12t44.5 5.5t45 -0.5t38 -8q10 4 27 5t27 -2q14 1 20 -8.5t0 -21.5q2 -12 -7 -21t-21 -8q1 -11 -7.5 -20t-19.5 -9q-5 -6 -13.5 -15t-14.5 -14q1 -11 -8 -20.5t-20 -8.5q-1 -8 -10 -17t-17 -11q-2 -8 -11 -17
t-17 -12q8 -19 -0.5 -28t-27.5 -1q3 -14 -5.5 -22.5t-21.5 -6.5q7 -17 -1.5 -26.5t-26.5 -2.5q5 -16 -3.5 -25t-24.5 -4q0 -10 -8.5 -19t-18.5 -10q-1 -10 -9.5 -19t-18.5 -10q2 -13 -6.5 -22t-21.5 -7q8 -17 -1 -26t-26 -2q7 -18 -1.5 -27t-26.5 -2q-2 -8 -11 -17.5
t-17 -11.5q1 -11 -7.5 -20t-19.5 -9q6 -13 1 -23q7 -2 11 -6q8 12 20 12t20 -12q8 1 21 1t20 -1q7 14 20 14t20 -14q7 13 20 13t20 -13q7 10 20 10t20 -10q7 2 20 2t21 -2q8 14 20 14t20 -14q8 11 20 11t20 -11q4 4 11 3t11 -5q2 39 24 49.5t49 -12.5q-19 23 -11 44.5
t40 26.5q7 9 18 9t18 -9q29 -15 26.5 -34t-33.5 -27q10 -13 7.5 -34t-15.5 -31q17 -13 15.5 -31t-20.5 -27q-12 -12 -30.5 -10.5t-28.5 15.5q-13 -21 -31.5 -20t-28.5 24q-12 -13 -30.5 -12t-29.5 15q-12 -13 -31 -12.5t-30 14.5q-12 -6 -31 -6t-31 6q-10 -10 -28 -10
t-29 10q-10 -28 -25.5 -42t-32 -14.5t-32.5 12.5t-28 40q-23 -18 -61.5 -20.5t-63.5 12.5z" />
    <glyph glyph-name="bracketleft" unicode="[" horiz-adv-x="228" 
d="M24 -120q-26 13 -24.5 31t29.5 26q-30 13 -30 34.5t31 34.5q-10 8 -10 21.5t10 21.5q-1 8 -1 21.5t1 21.5q-7 8 -7 21.5t7 21.5q-16 8 -16 21.5t16 21.5q-3 8 -3 21.5t3 21.5q-18 8 -18 21.5t18 21.5q-21 8 -21 21.5t21 21.5q-20 8 -20 21.5t20 21.5q-3 8 -3 21.5t3 21.5
q-19 8 -19 21.5t19 21.5q-23 12 -23.5 32t22.5 33q-10 12 -10.5 32.5t8.5 33.5q-30 10 -31.5 30.5t26.5 34.5q15 25 36 37t43 12t42.5 -13t34.5 -38q4 6 11 6t11 -6v-28q-6 -10 -15 -10t-15 10q-13 -8 -34 -19.5t-34 -18.5q6 -4 2 -10q9 -8 9 -21t-9 -21q6 -8 6 -21.5
t-6 -21.5q3 -8 3 -21t-3 -21q11 -8 11 -21t-11 -21q14 -8 14 -21t-14 -21q3 -8 3 -21.5t-3 -21.5q13 -8 13 -21t-13 -21q14 -8 14 -21t-14 -21q11 -8 11 -21.5t-11 -21.5q17 -8 17 -21t-17 -21q16 -8 16 -21t-16 -21q8 -8 8 -21t-8 -21q7 -8 7 -21.5t-7 -21.5q13 -8 13 -21
t-13 -21q4 -8 10.5 -20t10.5 -20q14 18 31.5 15t25.5 -25q10 8 20 0q8 -14 2 -28q-16 -14 -41 -13t-39 17q-16 -32 -47.5 -34.5t-52.5 26.5z" />
    <glyph glyph-name="backslash" unicode="\" horiz-adv-x="442" 
d="M24 632q12 2 32 2t32 -2q15 -1 20.5 -12t-2.5 -24q10 -3 16 -14.5t2 -21.5q4 -7 10 -18t9 -18q13 -2 19 -13t-1 -23q5 -6 10.5 -18t7.5 -19q19 1 25 -10t-7 -26q9 -4 15 -15t4 -21q19 1 24.5 -10.5t-6.5 -25.5q19 1 24.5 -10.5t-6.5 -25.5q15 -1 20.5 -12t-2.5 -24
q5 -6 10.5 -17.5t7.5 -18.5q11 -2 17.5 -13.5t1.5 -22.5q5 -6 10.5 -17.5t7.5 -18.5q19 1 25 -10.5t-7 -26.5q17 0 22.5 -11t-4.5 -25q7 -5 13 -16.5t6 -19.5q14 -2 20 -13t-2 -23q18 1 23.5 -10.5t-5.5 -25.5q-12 -4 -32 -4t-32 4q-8 4 -14 15.5t-4 20.5q-16 1 -21.5 12
t3.5 24q-16 1 -21.5 12t2.5 24q-12 2 -17.5 13.5t-0.5 22.5q-7 4 -13 16t-5 21q-6 5 -11.5 16.5t-6.5 19.5q-7 5 -12.5 16.5t-6.5 19.5q-12 2 -17.5 13.5t-0.5 22.5q-12 2 -17.5 13.5t-0.5 22.5q-11 3 -16.5 14t-1.5 22q-16 1 -21.5 12t3.5 24q-11 3 -17 14t-2 22
q-9 4 -14.5 15t-3.5 21q-17 1 -22.5 12t4.5 25q-11 3 -17 14.5t-1 21.5q-21 -2 -27 9t8 27q-20 -2 -25.5 9.5t7.5 26.5q-19 -1 -24.5 10.5t6.5 25.5z" />
    <glyph glyph-name="bracketright" unicode="]" horiz-adv-x="228" 
d="M198 -124q-21 -22 -52.5 -19.5t-47.5 27.5q-14 -29 -39 -30.5t-41 26.5q-8 6 -7 15t9 13q3 8 9 8t9 -8q9 14 27.5 17t31.5 -8q-9 14 -2.5 27t23.5 14q-14 8 -14 20t14 20q-17 8 -17 20t17 20q-4 8 -4 20t4 20q-10 8 -10 21t10 20q-20 7 -20 20t20 20q-4 7 -4 20t4 20
q-10 7 -10 20t10 20q-14 7 -14 20t14 20q-11 7 -11 20t11 20q-17 7 -17 20t17 20q-5 7 -5 20t5 20q-14 7 -14 20t14 21q-14 8 -14 20t14 20v40q-3 8 -3 20t3 20q-16 1 -36.5 12.5t-29.5 25.5q-15 -2 -30 0q-6 14 0 28q10 10 20 0q14 31 35 47t43 16t43.5 -15t36.5 -46
q27 -14 25.5 -34t-29.5 -31q11 -13 10.5 -33.5t-12.5 -32.5q19 -12 19 -32.5t-19 -32.5q11 -8 11 -21.5t-11 -21.5q14 -8 14 -21.5t-14 -21.5q5 -8 5 -21.5t-5 -21.5q2 -8 2 -21.5t-2 -21.5q4 -8 4 -21.5t-4 -21.5q10 -8 10 -21.5t-10 -21.5q12 -8 12 -21.5t-12 -21.5
q21 -8 21 -21.5t-21 -21.5q8 -8 8 -21.5t-8 -21.5q1 -8 1 -21.5t-1 -21.5q28 -13 29 -34.5t-28 -34.5q28 -9 29 -27t-26 -30z" />
    <glyph glyph-name="asciicircum" unicode="^" horiz-adv-x="300" 
d="M152 654q20 10 30 1.5t3 -29.5q7 -4 17 -13t15 -15q9 -2 19 -11t14 -17q10 -1 20 -9.5t12 -18.5q-15 -17 -28.5 -12.5t-14.5 27.5q-10 -1 -23.5 4t-20.5 12q-12 -10 -25.5 -5t-17.5 20q-5 -10 -18.5 -15t-24.5 -2q-1 -23 -15 -28t-29 12q0 -25 -13.5 -30t-29.5 13
q-2 14 8 23t24 6q-5 19 5 28t28 1q1 10 11 19.5t21 9.5q3 9 13.5 18t19.5 11z" />
    <glyph glyph-name="underscore" unicode="_" horiz-adv-x="604" 
d="M616 -144q-8 -10 -21 -10t-20 10q-7 -2 -20 -2t-21 2q-8 -4 -21 -4t-21 4q-8 -14 -21 -14t-20 14q-7 -2 -20 -2t-21 2q-8 -16 -21 -16t-20 16q-7 -14 -20 -14t-21 14q-8 -16 -21 -16t-21 16q-8 -11 -21 -11t-20 11q-7 -16 -20 -16t-21 16q-8 -4 -21 -4t-20 4
q-7 -8 -20 -8t-21 8q-8 -12 -21 -12t-21 12q-8 -18 -21 -18t-20 18q-7 -6 -20 -6t-21 6q-9 7 0 14q8 16 21 16t20 -16q7 4 20 4t21 -4q8 20 21 20t21 -20q8 1 21 1t20 -1q7 4 20 4t21 -4q8 6 21 6t20 -6q7 19 20 19t21 -19q8 4 21 4t21 -4q8 12 21 12t20 -12q7 6 20 6t21 -6
q8 18 21 18t20 -18q7 20 20 20t21 -20q8 11 21 11t21 -11q8 16 21 16t20 -16q7 7 20 7t21 -7q4 -7 0 -14z" />
    <glyph glyph-name="grave" unicode="`" horiz-adv-x="228" 
d="M24 570q-4 15 5.5 24.5t24.5 4.5q-2 13 7 22.5t23 6.5q8 -4 20 -12.5t19 -13.5q17 10 29.5 2t10.5 -28q9 -2 21.5 -10t17.5 -16q-6 -12 -16 -18q-10 -10 -23 -7t-18 16q-8 -2 -20.5 1t-19.5 9q-8 1 -20.5 3.5t-20.5 5.5q-12 -16 -24.5 -13t-15.5 23z" />
    <glyph glyph-name="a" unicode="a" horiz-adv-x="450" 
d="M368 102q29 -3 29 -23q19 10 37 -11q12 1 16 -6.5t-4 -17.5q-8 -28 -30 -33.5t-42 15.5q2 -37 -19 -47.5t-49 13.5q-4 -2 -8 -2q-7 0 -8 4t4 8q-7 14 -3.5 35.5t14.5 32.5q-12 10 -10.5 26t15.5 24q-10 12 -9.5 31.5t11.5 30.5q-4 18 -2 39q-7 -18 -20 -23
q-2 -8 -8.5 -19t-13.5 -16q1 -10 -6 -21t-16 -15q-2 -7 -9 -18.5t-13 -16.5q2 -16 -10 -31t-28 -17q-4 -14 -19 -25.5t-30 -10.5q-6 -22 -23.5 -26t-33.5 12q-19 -10 -32.5 -1.5t-11.5 30.5q-22 12 -26 37t12 44q-4 8 -3 20t7 19q-16 13 -12.5 27t23.5 19q3 10 8.5 25.5
t8.5 25.5q-4 14 3 30.5t20 22.5q-10 18 -1 34.5t29 17.5q-2 14 8 29.5t24 19.5q-5 16 6.5 30t28.5 13q4 10 16 20.5t22 13.5q5 8 17 15t22 8q5 15 18 17.5t23 -9.5q10 10 22.5 7.5t17.5 -15.5q14 2 36 4.5t36 3.5q17 -10 16 -25t-20 -23q3 -11 1 -29.5t-7 -29.5q2 -13 0 -33
t-7 -31q17 -14 24.5 -32t6 -36.5t-12.5 -34.5t-30 -27q5 -11 4 -28t-8 -27q1 -8 1 -22t-2 -22zM300 460q-9 -11 -11 3q-7 -3 -19 -6t-20 -4q-2 -12 -13 -20.5t-23 -7.5q2 -15 -8 -27.5t-25 -12.5q2 -13 -6.5 -28.5t-21.5 -20.5q6 -15 -1.5 -31.5t-22.5 -21.5q21 -19 15 -35
t-34 -17q14 -13 10 -28t-22 -20q-1 -7 -2.5 -18.5t-3.5 -18.5q4 -10 7.5 -27.5t2.5 -28.5q16 13 26.5 6.5t7.5 -26.5q4 8 15 12t20 0q6 7 16.5 17.5t18.5 15.5q-9 19 1.5 34t32.5 14q5 11 14.5 28t15.5 28q-20 21 -12 39.5t37 19.5q-1 12 5 29.5t14 26.5q-32 18 -29 40
t39 30q-20 4 -27 22t3 34z" />
    <glyph glyph-name="b" unicode="b" horiz-adv-x="408" 
d="M152 398q-12 12 -16 26q-1 13 8.5 19t21.5 1q-8 36 10 48t48 -10q7 16 23.5 20.5t30.5 -6.5q13 14 26 10t17 -22q12 0 22 -10t10 -22q19 -1 26 -15t-5 -30q10 -7 13.5 -23.5t-2.5 -27.5q7 -9 7.5 -24.5t-4.5 -25.5q7 -9 5.5 -23t-8.5 -22q11 -11 8.5 -26t-17.5 -22
q-2 -9 -6.5 -24t-8.5 -24q5 -13 -1 -27t-20 -19q12 -19 4 -32t-30 -11q-4 -8 -14 -19.5t-18 -16.5q-4 -9 -15.5 -17.5t-21.5 -10.5q-1 -19 -15 -24.5t-28 6.5q-9 -3 -24 -5t-24 -1q-16 -12 -38 -7.5t-33 21.5q-17 -3 -35.5 8.5t-23.5 27.5q-20 10 -19 23t22 20
q-18 9 -17.5 23t19.5 21q-7 9 -6.5 22t9.5 21q-13 9 -12.5 22.5t14.5 21.5q-13 9 -12 22.5t15 20.5q-19 9 -18 23t20 21q-14 9 -13 22.5t16 20.5q0 10 1 28t2 29q-5 21 -3 56t10 55q-10 11 -8.5 28t13.5 26q-20 13 -18.5 30t24.5 25q-6 11 -3.5 28t10.5 27q-10 14 -6.5 34
t17.5 31q-8 11 -5 27t15 24q-1 10 2 25t9 23q-20 16 -16 32t30 19q-26 20 -20 39.5t38 23.5q10 16 26 16t26 -16q10 7 26 7t26 -7q6 -4 6 -13t-6 -13q8 -28 -7 -40t-41 2q18 -15 13 -29.5t-28 -15.5q20 -16 16.5 -31.5t-29.5 -19.5q6 -12 2 -29t-15 -25q16 -14 12.5 -32
t-22.5 -26q8 -13 5 -31t-14 -28q19 -13 16.5 -32t-24.5 -27q4 -11 2 -29.5t-8 -29.5q13 -12 11 -29.5t-16 -27.5q0 -10 -0.5 -26.5t-2.5 -26.5q22 -10 21 -25.5t-23 -23.5q2 -9 2 -23.5t-3 -23.5q1 -9 1 -23.5t-2 -23.5q6 -23 0 -46q4 -9 4 -23.5t-5 -23.5q13 -9 13 -24
t-14 -23q21 -4 30.5 -23.5t-0.5 -38.5q14 -2 34.5 -9t31.5 -15q4 15 17.5 19.5t25.5 -6.5q-8 20 2.5 31.5t31.5 3.5q-12 18 -4.5 33t29.5 16q-6 13 -1 31t16 26q-23 14 -21 32.5t26 27.5q-23 8 -23.5 22.5t22.5 23.5q-5 9 -6.5 25t0.5 26q-22 3 -26.5 18t11.5 30
q-18 -3 -26 8t1 27q-9 -1 -21.5 3.5t-19.5 10.5q-14 -10 -39 -21t-41 -13z" />
    <glyph glyph-name="c" unicode="c" horiz-adv-x="364" 
d="M210 466q-4 -10 -17 -14.5t-23 0.5q5 -15 -3.5 -25.5t-24.5 -8.5q2 -11 -4 -26t-16 -22q21 -15 17.5 -32t-29.5 -22q0 -10 -2 -26.5t-4 -26.5q10 -9 9.5 -23t-11.5 -22q10 -13 12 -36t-6 -37q22 -4 27 -20.5t-11 -32.5q20 7 28.5 -2.5t-0.5 -28.5q8 1 20 -2.5t18 -8.5
q9 9 27.5 14.5t31.5 2.5q5 9 16.5 21t20.5 18q-13 16 -6.5 28.5t26.5 12.5q-7 7 -5 14t11 9q5 4 14 4t14 -4q14 -13 11 -29.5t-20 -23.5q8 -15 0.5 -30t-24.5 -18q-1 -13 -13 -25t-25 -14q4 -28 -11 -36.5t-37 10.5q-7 -22 -24 -25t-31 15q-10 -3 -27 0t-27 9q-10 0 -23 8
t-17 18q-20 -4 -28.5 7.5t1.5 29.5q-19 4 -24 19t8 29q-5 10 -6.5 27t1.5 27q-21 10 -20.5 24.5t22.5 22.5q-4 10 -2 25.5t8 24.5q-21 14 -17.5 29.5t28.5 20.5q-5 11 0 26t16 21q-5 13 2 26.5t20 17.5q4 9 12.5 21t16.5 17q1 13 12 22.5t24 7.5q6 9 20 15t24 4
q8 13 24.5 15t27.5 -8q17 3 42.5 -4.5t39.5 -19.5q14 -8 14 -21t-14 -20q11 -7 11 -20t-11 -20q8 -7 8 -20t-8 -21q-12 -27 -31 -27t-31 27q-9 6 -9 15t9 15q-21 8 -25 27t12 35q-12 -5 -24 1t-15 19z" />
    <glyph glyph-name="d" unicode="d" horiz-adv-x="398" 
d="M52 674q-6 3 -10.5 11t-3.5 15q2 20 17 27t31 -3q-2 26 13 33t35 -9q13 -2 26 -13t16 -23q24 9 36 -3t2 -36q18 2 28.5 -10.5t5.5 -29.5q20 2 30 -11t1 -32q11 -5 19 -19.5t8 -25.5q5 -8 12 -23t10 -25q23 -1 28.5 -17t-10.5 -32q11 -8 15.5 -24t-2.5 -28
q22 -8 24.5 -24.5t-16.5 -29.5q1 -10 1.5 -28t1.5 -28q21 -16 19.5 -40t-24.5 -37q0 -13 -4.5 -33t-10.5 -31q-3 -11 -10.5 -27.5t-13.5 -25.5q-4 -7 -12 -16.5t-15 -13.5q5 -26 -10 -36t-37 4q-10 -8 -28.5 -16t-30.5 -11q-10 -15 -29.5 -18t-33.5 7q-8 -2 -21 1.5t-20 8.5
q-11 -1 -20.5 8t-9.5 20q-24 -2 -30.5 11.5t9.5 31.5q-17 7 -21 24t9 31q-22 10 -23 29.5t19 32.5q1 12 2.5 31.5t3.5 31.5q-10 15 -5.5 35t20.5 29q-20 21 -12.5 40t36.5 21q-20 24 -11 40t40 11q-4 16 7 28.5t27 10.5q-3 21 8.5 27.5t27.5 -7.5q7 4 19.5 8.5t20.5 5.5
q7 1 12 -4t4 -12q4 -27 -10 -35.5t-36 7.5q-3 -5 -10 -12t-13 -9q11 -15 4.5 -29t-25.5 -15q21 -19 15.5 -37t-33.5 -22q5 -14 1.5 -34t-13.5 -30q20 -13 18.5 -32.5t-22.5 -29.5q17 -10 17.5 -27t-15.5 -28q21 -7 24 -24t-14 -30q5 -7 13 -21t12 -22q15 11 29 5t16 -25
q5 8 16.5 10t18.5 -3q-2 14 7 20.5t22 -0.5q0 10 7.5 20t16.5 13q-13 14 -7.5 29t24.5 18q-23 16 -20 34.5t31 25.5q-4 14 -2.5 36.5t6.5 36.5q-7 7 -7.5 19.5t5.5 19.5q-24 5 -26.5 19t18.5 27q-23 5 -27 21.5t15 30.5q-20 5 -25 21.5t9 31.5q-7 9 -13.5 25.5t-7.5 27.5
q-25 -1 -33.5 14t7.5 35q-17 0 -26.5 13t-3.5 30q-22 -9 -32.5 1.5t-1.5 32.5q-7 4 -19 11.5t-20 11.5q-9 -5 -22 -2.5t-20 10.5q-8 -4 -18 -2z" />
    <glyph glyph-name="e" unicode="e" horiz-adv-x="372" 
d="M316 168q-10 4 0 8q7 4 17 3t15 -7q23 -14 20.5 -31t-28.5 -24q-2 -11 -9 -26t-15 -23q10 -24 -1 -36t-36 -3q3 -29 -12 -37t-37 11q-8 -20 -26 -23t-32 14q-15 -24 -32.5 -21t-22.5 31q-12 0 -25.5 9t-17.5 20q-26 -5 -35 8.5t5 35.5q-8 9 -13 26t-4 29q-31 10 -32 30
t27 34q-4 9 -3 23t6 22q-16 11 -14 26t20 23q-7 11 -3.5 27.5t14.5 23.5q-17 17 -12 32t29 17q-13 18 -5.5 32t29.5 12q5 8 14 19.5t17 16.5q-2 22 10.5 29t29.5 -6q6 21 21.5 24t28.5 -15q13 12 29.5 9t24.5 -19q17 8 28.5 -1t7.5 -27q16 -2 22.5 -14.5t-2.5 -26.5
q9 -9 11 -25t-5 -26q12 -18 8 -45t-20 -41q-4 -22 -19.5 -27t-31.5 11q-3 -28 -19 -32t-33 19q-7 -19 -24 -22.5t-30 12.5q-5 -19 -16.5 -25t-22.5 1q2 -15 -20 -19q33 -9 35.5 -30.5t-27.5 -38.5q8 -7 14.5 -23t7.5 -27q15 4 25.5 -6t8.5 -25q8 -1 22 -4.5t22 -7.5
q4 26 22 32t36 -14q-10 26 3 40.5t40 5.5q-8 14 -3.5 33.5t18.5 28.5zM98 278q4 0 4 -2l3 6q-1 -1 -3 -2zM103 319q21 -13 13 -28q15 7 29 -12q5 23 19 25t26 -18q2 19 17.5 29t32.5 3q-10 16 -4 35t22 27q-29 8 -31.5 28t23.5 35q-12 1 -26.5 11t-19.5 20q-3 -15 -15.5 -20
t-24.5 5q14 -22 4.5 -33.5t-33.5 -4.5q5 -13 -1.5 -29t-18.5 -22q11 -13 7 -28.5t-19 -22.5z" />
    <glyph glyph-name="f" unicode="f" horiz-adv-x="302" 
d="M116 -276q-4 -22 -20.5 -26.5t-31.5 12.5q-11 8 -10.5 21t12.5 20q-14 9 -13.5 22t16.5 20q-19 9 -18 21.5t20 19.5q-13 8 -12 21t14 21q-11 8 -10 21t13 20q0 22 2 42q-13 8 -12.5 21t14.5 20q-14 9 -13.5 22t16.5 20q-8 8 -7.5 21t9.5 20q-6 8 -5.5 20.5t7.5 20.5
q-15 9 -14 22t17 20q-20 9 -19.5 21.5t21.5 19.5q-17 9 -16.5 22t18.5 20q-4 8 -3 20.5t6 20.5q-7 8 -6.5 21t8.5 21q-16 8 -15.5 21t17.5 20q-1 8 0 21.5t3 20.5q-27 13 -16 29q-14 -3 -24 10q-7 -19 -20 -19.5t-22 17.5q-8 8 -8 21t8 21q23 2 46 0q-15 28 -1.5 49t45.5 19
q-28 12 -28 31t28 31q-16 11 -16 28.5t17 28.5q-17 12 -16 28.5t21 24.5q-5 11 -2 27.5t13 24.5q-5 14 0.5 30.5t18.5 23.5q-16 26 -4 47t42 21q6 10 20 22.5t24 17.5q6 14 21.5 18t28.5 -4q10 8 20 -2q18 -8 18 -21t-18 -20q20 -7 20 -20t-20 -21q-8 -16 -21 -16t-21 16
q-6 4 -11 14t-7 18q-1 -11 -9 -16.5t-19 -1.5q15 -16 11.5 -36.5t-23.5 -29.5q15 -8 14.5 -21t-16.5 -20q1 -8 0.5 -21.5t-2.5 -20.5q2 -7 1.5 -20t-3.5 -21q14 -8 13 -21t-15 -20q2 -7 1 -20t-3 -21q10 -8 9.5 -21t-11.5 -21q10 -8 9.5 -21t-11.5 -20q8 -6 10 -15.5
t-3 -16.5q12 9 26.5 6.5t23.5 -15.5q11 26 29.5 26t29.5 -26q7 -8 7 -21t-7 -21q-8 -3 -21 -3t-20 4q-7 -19 -20 -19t-20 19q-7 -5 -20 -4.5t-21 5.5q5 -8 4 -21t-8 -20q19 -9 17.5 -21.5t-20.5 -18.5q5 -8 4 -20.5t-8 -20.5q19 -9 18.5 -22t-21.5 -19q13 -9 11.5 -21.5
t-15.5 -18.5q15 -9 14.5 -21.5t-17.5 -19.5q15 -9 14 -22t-18 -19q17 -9 16.5 -21.5t-19.5 -18.5q8 -8 6.5 -21t-10.5 -20q4 -8 3 -21t-7 -20q8 -8 7 -20.5t-10 -19.5q7 -8 5.5 -21t-9.5 -20q8 -8 7 -21t-10 -20q13 -9 11.5 -21.5t-15.5 -18.5q2 -7 1 -20t-4 -21
q4 -8 2.5 -21t-6.5 -20q11 -8 9.5 -20.5t-12.5 -19.5q0 -7 -1 -20t-3 -21z" />
    <glyph glyph-name="g" unicode="g" horiz-adv-x="410" 
d="M290 462q-4 -4 -12 -4t-13 5q0 -15 -9.5 -19.5t-20.5 5.5q-1 -11 -10.5 -20t-20.5 -8q8 -19 -1.5 -31t-29.5 -8q5 -14 -4 -29.5t-24 -19.5q14 -19 6.5 -36.5t-30.5 -19.5q22 -18 17 -37.5t-32 -25.5q22 -14 20 -35t-26 -31q28 -8 31.5 -28t-21.5 -36q14 -10 28 -22
q4 8 15 12t19 2q2 11 13 22.5t21 13.5q-18 24 -8.5 39.5t39.5 9.5q-20 23 -11.5 40t39.5 13q-1 11 6 26.5t15 22.5q2 7 6.5 18t7.5 17q-44 25 -40 54.5t54 39.5q-18 8 -25.5 30t1.5 40zM296 134q-8 8 -8 21t8 21q-2 6 -3 10q-9 -11 -23 -11q10 -17 2 -31t-28 -13
q2 -12 -6.5 -25.5t-19.5 -17.5q2 -16 -10 -32t-28 -17q0 -19 -14.5 -29t-31.5 -4q-8 -10 -23.5 -13.5t-26.5 1.5q-12 -5 -24.5 0.5t-16.5 18.5q-19 1 -25 14.5t7 28.5q-13 8 -15 23t10 25q-2 10 -0.5 26t5.5 26q-2 11 2.5 28t11.5 26q2 10 8.5 27t12.5 27q-7 16 1.5 32
t24.5 20q-9 19 0.5 34.5t30.5 15.5q-8 20 2.5 33t31.5 10q1 12 11.5 23.5t22.5 13.5q1 12 12 21t23 8q4 5 14 10.5t18 6.5q4 10 12.5 12t15.5 -6q20 -2 40 -8q12 3 32 5.5t32 2.5q16 -8 16 -22t-17 -21q10 -8 9.5 -22t-10.5 -22q16 -8 16 -21.5t-17 -21.5q17 -9 16 -22.5
t-18 -21.5q1 -8 0.5 -21.5t-1.5 -21.5q6 -8 6 -22t-7 -22q18 -8 17.5 -21.5t-18.5 -21.5q4 -14 3 -36t-7 -35q21 -14 19 -34.5t-25 -31.5q15 -14 12 -33t-22 -28q1 -11 -3 -29t-9 -28q15 -15 10 -31t-26 -20q18 -17 12 -31.5t-31 -14.5q2 -10 -4.5 -22.5t-17.5 -16.5
q2 -12 -5.5 -22t-19.5 -11q4 -16 -4.5 -24t-24.5 -2q-6 -4 -16 -10t-16 -9q-3 -13 -14 -17t-21 5q-7 -6 -18.5 -6.5t-19.5 3.5q-12 -9 -28 -6t-24 16q-15 -6 -25.5 2t-7.5 25q-5 7 -10 20.5t-6 21.5q-17 9 -18.5 26t13.5 29q-32 18 -31 45t35 41q16 20 38 17.5t32 -25.5
q17 -14 14 -29.5t-24 -20.5q14 -10 18 -30t-4 -34q-4 -14 -13 -18.5t-17 0.5q3 -12 -3 -21q19 8 37 -1.5t22 -29.5q6 12 19.5 14.5t23.5 -6.5q5 8 15.5 15t19.5 8q-8 17 1 28t27 6q-1 11 6 24.5t16 18.5q-2 10 3 26t13 23q-22 16 -18 32.5t30 20.5q-7 10 -5 26.5t12 25.5
q-23 11 -21.5 27.5t25.5 23.5q-17 10 -16 23.5t19 21.5v38z" />
    <glyph glyph-name="h" unicode="h" horiz-adv-x="432" 
d="M20 92q-16 10 -15 26.5t18 24.5q-29 13 -28 34t31 31q-22 14 -21.5 35.5t23.5 34.5q-14 13 -13.5 33.5t16.5 31.5q-16 11 -15 27t18 24q-16 12 -14.5 29t19.5 25q-21 13 -18.5 29.5t25.5 24.5q-15 12 -13 28t20 24q-13 12 -10 28t19 24q-17 14 -14 30t24 22
q-6 16 -6.5 38t4 44t14 41.5t21.5 32.5q-1 10 2.5 26.5t9.5 25.5q-21 15 -18 32t29 22q-1 9 2.5 23.5t7.5 22.5q10 7 28 7t28 -7q10 22 28 22t28 -22q4 -6 4 -16t-4 -16q2 -19 -10 -27.5t-29 -0.5q10 -17 1.5 -31t-27.5 -14q5 -13 -0.5 -30t-16.5 -25q14 -14 10 -30t-22 -22
q4 -11 1 -28.5t-11 -26.5q5 -11 2 -28t-11 -26q21 -13 18.5 -29.5t-26.5 -22.5q23 -23 19 -55t-31 -49q13 -11 11.5 -28t-16.5 -25q20 -12 18.5 -29.5t-22.5 -26.5q15 -9 14 -22t-17 -20q0 -8 -1 -21t-2 -21q20 -9 19.5 -22t-22.5 -20q2 -2 4.5 -3t4.5 -2q10 7 21 7
q-7 17 2 34.5t28 20.5q-5 15 4 30.5t25 18.5q0 11 9 22.5t19 14.5q2 12 14.5 25.5t24.5 17.5q-3 21 12.5 36.5t36.5 13.5q10 2 26 3t26 0q9 14 25.5 15t26.5 -12q5 -9 5 -25t-5 -25q3 -9 3 -25t-3 -25q22 -9 22 -25t-22 -25q14 -12 13 -29.5t-17 -27.5q12 -13 8.5 -29.5
t-19.5 -23.5q5 -12 -0.5 -28t-16.5 -23q7 -14 -0.5 -29.5t-22.5 -19.5q3 -14 -6 -28t-22 -18q16 -24 6 -38t-38 -7q13 -25 2.5 -38t-37.5 -5q4 -18 -8 -31t-30 -12q12 -26 -0.5 -39.5t-39.5 -3.5q8 -22 -3 -34t-33 -4q8 -21 -3.5 -33t-32.5 -5q-12 1 -21.5 11.5t-8.5 22.5
q3 13 16.5 23.5t27.5 10.5q-10 26 2.5 37.5t37.5 0.5q1 13 12 26t24 16q2 12 12 26t20 19q-12 19 -3 34t31 14q-4 13 3 29t20 21q-17 17 -11 33.5t30 18.5q-22 16 -18 32.5t31 21.5q-25 14 -23 31t31 24q-14 11 -13 28.5t16 27.5q-22 10 -26 34t12 42q-2 -2 -4.5 -0.5
t-2.5 4.5q-1 -17 -12 -20.5t-21 10.5q1 -14 -9.5 -22.5t-23.5 -6.5q-1 -12 -11.5 -25t-21.5 -17q0 -13 -9.5 -29t-21.5 -22q23 -25 13.5 -42.5t-42.5 -13.5q22 -22 14 -40t-39 -17q7 -13 0.5 -30t-20.5 -23q16 -14 11.5 -28t-25.5 -17q0 -7 -2 -17t-5 -16q-2 -22 -6 -44
q-3 -29 -21.5 -35.5t-38.5 15.5q-1 20 1.5 52t6.5 52z" />
    <glyph glyph-name="i" unicode="i" horiz-adv-x="232" 
d="M108 354q-28 10 -33.5 28t11.5 33q-15 -2 -23 5q-7 -8 -21 -10t-24 2q-14 7 -14 18t14 18q5 22 19.5 24.5t26.5 -16.5q10 5 28.5 10t30.5 6q7 22 29.5 29t41.5 -7q17 -9 16.5 -22t-19.5 -19q0 -8 -0.5 -21.5t-2.5 -20.5q15 -9 14 -21.5t-17 -19.5q9 -8 8 -21t-11 -20
q4 -8 3 -21.5t-6 -20.5q12 -9 11.5 -21.5t-14.5 -19.5q7 -8 5.5 -21t-8.5 -20q18 -9 17 -22t-20 -20q6 -8 5 -20.5t-8 -20.5q8 -8 7 -21t-10 -20q9 -8 8.5 -21.5t-11.5 -20.5q13 -9 12 -21.5t-15 -19.5q-11 -18 -35.5 -23t-42.5 7q-20 12 -18 27t25 21q-4 10 -2 25.5t8 24.5
q-7 10 -5.5 26.5t11.5 24.5q-2 11 -1 27.5t5 26.5q-23 11 -22.5 28.5t25.5 26.5q-6 10 -6 28t7 28q-13 11 -13 29.5t14 28.5zM92 678q-18 15 -13.5 29.5t27.5 17.5q2 15 14 22.5t26 0.5q26 3 45 -16.5t15 -45.5q12 -14 6.5 -28.5t-24.5 -17.5q-8 -4 -22 -10.5t-22 -9.5
q-20 2 -36 20t-16 38z" />
    <glyph glyph-name="j" unicode="j" horiz-adv-x="254" 
d="M116 680q-4 12 2.5 26.5t17.5 20.5q5 11 19 18t25 5q8 2 19 -2.5t15 -11.5q7 -4 11.5 -14t3.5 -18q4 -8 3.5 -19.5t-5.5 -18.5q0 -8 -6.5 -18t-13.5 -14q-7 -3 -18.5 -7.5t-18.5 -6.5q-12 10 -29 28.5t-25 31.5zM26 -250q-4 -8 -15 -16t-19 -11q-6 -5 -16.5 -14
t-17.5 -13q-10 -4 -16.5 1.5t-3.5 16.5q5 10 19 23.5t25 18.5q-7 20 4.5 32t31.5 8q-14 22 -5 34.5t34 5.5q-14 17 -7.5 31t29.5 13q-11 13 -6.5 28.5t20.5 21.5q-10 13 -8 31.5t15 28.5q-10 8 -9.5 20.5t11.5 19.5q-7 8 -6.5 20t8.5 20q-5 8 -4 20.5t7 19.5q-17 8 -16 20.5
t18 19.5q-16 8 -15.5 20.5t17.5 19.5q-2 20 2 40q-16 8 -15.5 20.5t17.5 19.5q-7 8 -6.5 20.5t8.5 19.5q-16 9 -14.5 21.5t17.5 18.5q-6 8 -5.5 20t7.5 20q-13 8 -14 18t9 18q-20 -9 -38 -4q-7 -12 -21 -14.5t-24 6.5q-14 8 -14 19t14 19q8 15 24.5 17.5t28.5 -10.5
q5 28 23.5 32.5t35.5 -17.5q5 23 25 30.5t39 -6.5q8 -8 7.5 -21t-10.5 -21q17 -9 15.5 -22t-18.5 -20q10 -8 9 -21t-12 -21q15 -9 14 -22t-17 -20q7 -8 5.5 -21t-8.5 -21q7 -9 6 -22t-10 -20q10 -8 8.5 -21t-11.5 -21q7 -8 5.5 -21t-8.5 -21q4 -8 2.5 -21t-5.5 -21
q13 -9 11.5 -22t-14.5 -20q12 -9 11.5 -22t-14.5 -20q17 -14 15 -33t-22 -29q22 -15 18.5 -31.5t-29.5 -21.5q19 -17 13.5 -31t-30.5 -15q-1 -11 -8.5 -24t-16.5 -18q2 -15 -8.5 -27.5t-25.5 -13.5q-2 -16 -16 -29t-30 -13z" />
    <glyph glyph-name="k" unicode="k" horiz-adv-x="416" 
d="M76 0q-11 -9 -30 -9.5t-30 7.5q-10 11 -8 28.5t14 26.5q-26 13 -24.5 30.5t28.5 26.5q-12 12 -11 30t14 29q-24 24 -22 62t28 60q-15 12 -14 30.5t18 29.5q-19 13 -18 31t22 28q-1 11 0.5 29.5t4.5 28.5q-4 10 -2 27t8 27q-8 14 -5 33t14 30q-25 16 -22 33.5t32 23.5
q-16 13 -13.5 28.5t22.5 22.5q-1 10 2.5 25t8.5 23q-14 13 -10.5 28.5t22.5 20.5q-2 10 2 26t11 24q-4 13 1 30t16 25q-13 17 -7.5 36t26.5 25q10 15 26.5 15t26.5 -15q10 2 26.5 2t26.5 -2q8 -6 8 -16t-8 -16q-6 -4 -17 -10.5t-19 -8.5q14 -19 5.5 -35t-32.5 -14
q16 -18 9 -38t-30 -25q20 -18 15 -38t-31 -27q13 -14 9 -31t-21 -24q8 -13 4.5 -32t-16.5 -29q28 -17 24.5 -37t-35.5 -27q4 -13 1 -32.5t-10 -30.5q13 -13 11 -32t-18 -29q17 -11 16 -28t-19 -26q6 -4 11.5 -8t8.5 -8q-7 20 4.5 33t33.5 10q-9 24 4.5 39t38.5 9q9 7 24 18
t25 17q6 15 22 19.5t30 -5.5q23 22 42.5 13.5t18.5 -40.5q19 -7 25.5 -27.5t-4.5 -37.5q8 -11 4.5 -27.5t-14.5 -23.5q8 -16 0 -30t-26 -15q-5 -9 -17 -20.5t-21 -15.5q-7 -8 -20.5 -17t-24.5 -11q-10 -14 -28 -17q15 -6 17 -20t-12 -30q23 0 31.5 -16t-5.5 -35
q21 0 29.5 -15.5t-1.5 -33.5q20 0 29.5 -15t0.5 -33q29 7 39 -7.5t-7 -39.5q16 -1 27 -14.5t7 -30.5q28 8 39 -6t-3 -39q-8 -4 -21 -9t-21 -7q-14 3 -25 17.5t-12 27.5q-22 -3 -39 3t-27 18.5t-12 30.5t6 39q-49 -10 -69.5 18t3.5 72q-23 -4 -33 10t1 35q-13 4 -22 17.5
t-8 27.5q-12 4 -21.5 17.5t-7.5 26.5q8 10 24 12t26 -5q8 6 24 13t26 9q-5 23 8.5 34t34.5 0q-1 13 8 26.5t22 16.5q-4 10 -0.5 26t11.5 24q-28 -4 -38.5 10t1.5 36q-7 -8 -18.5 -11t-21.5 1q-1 -14 -14.5 -28t-27.5 -17q14 -25 2.5 -42t-39.5 -13q14 -19 5.5 -34t-31.5 -14
q9 -12 4 -24.5t-20 -14.5q2 -11 -2 -26t-12 -22q17 -15 13.5 -32.5t-25.5 -23.5q20 -14 18 -34t-25 -30q29 -14 28 -36.5t-31 -34.5z" />
    <glyph glyph-name="l" unicode="l" horiz-adv-x="264" 
d="M138 42q8 10 22 12.5t25 -3.5q5 24 19.5 27t27.5 -18q13 -8 13 -22t-13 -22q-10 -13 -29 -14.5t-32 9.5q-7 -23 -25.5 -27t-33.5 15q-10 -7 -28 -13t-30 -6q-8 10 -7 25.5t10 24.5q-17 11 -16 27.5t19 25.5q-3 11 -2.5 28t4.5 28q-13 17 -19 40t-5.5 47t8.5 46.5t22 37.5
q-22 12 -21.5 29.5t24.5 26.5q-18 11 -17 28t20 26q-2 10 -1 25.5t5 24.5q-30 15 -28 35t34 29q-1 21 3.5 55t9.5 54q1 9 3 24t4 24q-18 21 -13 50.5t29 43.5q-13 13 -9.5 28.5t19.5 22.5q-20 15 -16.5 32.5t28.5 23.5q-3 13 1.5 32.5t12.5 29.5q10 11 28 11t28 -11
q10 2 28 2t28 -2q12 -6 12 -15t-12 -15q7 -20 -5 -32.5t-33 -7.5q4 -14 -3 -30.5t-21 -22.5q-2 -13 -8 -33t-10 -32q6 -10 3 -25t-13 -23q2 -10 -1 -26.5t-8 -25.5q3 -11 0.5 -28t-8.5 -27q17 -13 15 -30.5t-21 -26.5q8 -12 6.5 -30t-11.5 -28q26 -13 24.5 -31.5
t-28.5 -28.5q8 -12 7 -31t-10 -29q15 -12 14.5 -31t-16.5 -29q5 -16 7 -39t2 -47t-3 -47t-9 -39q9 -20 9 -51t-9 -51z" />
    <glyph glyph-name="m" unicode="m" horiz-adv-x="722" 
d="M60 0q-7 8 -5.5 22t8.5 21q-1 8 0 21.5t2 21.5q-14 9 -13.5 22.5t16.5 21.5q-2 8 -1 21.5t3 21.5q-6 8 -5 21.5t8 21.5q-18 9 -17 22.5t20 20.5q-1 8 -0.5 21.5t2.5 21.5q-8 9 -6.5 22.5t9.5 21.5q-14 9 -13.5 22.5t15.5 20.5q-18 13 -11 29q-13 -8 -29.5 -8t-28.5 8
q-11 8 -11 20t11 20q8 17 24 18.5t27 -14.5q5 18 21 22t30 -9q6 13 22 20t30 1q19 -10 17.5 -24t-21.5 -21q18 -10 17 -23.5t-20 -21.5q7 -9 6 -23.5t-10 -21.5q5 -9 4 -23.5t-8 -22.5q16 -10 14.5 -24t-18.5 -21q13 -9 12 -23.5t-15 -21.5l1 -1q9 6 23 6q2 11 11 26t18 22
q4 10 13.5 25t16.5 22q2 11 11.5 25t19.5 20q3 10 13 23.5t19 19.5q4 10 14.5 23t18.5 19q6 8 17 20.5t18 20.5q12 27 32 27t32 -27q1 -8 0 -22.5t-3 -22.5q5 -9 4 -23t-7 -22q13 -9 12 -23.5t-15 -21.5q5 -9 4 -23.5t-6 -22.5q9 -9 8 -23t-11 -22q2 -9 1.5 -23t-4.5 -22
q3 -6 3 -17q8 18 22 24q-17 22 -9 37t36 12q-13 19 -3.5 34t32.5 13q4 9 13 23.5t16 21.5q-7 17 2.5 31t28.5 12q0 12 10 25t22 16q4 9 15 21.5t19 17.5q8 8 20 8t20 -8q8 13 20 13t20 -13q14 -12 11 -29t-19 -24q27 -14 25 -32.5t-32 -25.5q17 -13 15 -32.5t-22 -28.5
q22 -14 20 -33.5t-26 -29.5q0 -11 -1 -30.5t-3 -30.5q20 -12 18.5 -30t-21.5 -28q8 -10 8 -26t-9 -26q8 -5 8.5 -14.5t-4.5 -16.5q6 10 17 10.5t21 -9.5q17 -5 18.5 -16.5t-14.5 -19.5q-2 -22 -16 -26t-28 13q-3 -23 -16.5 -26.5t-27.5 14.5q-4 -19 -17.5 -23t-26.5 10
q0 8 1 21t2 20q-8 8 -7 21t11 20q-12 9 -11.5 21.5t14.5 19.5q-3 8 -1.5 20.5t5.5 20.5q-1 8 0.5 21t2.5 20q-15 10 -14 23t18 19q-5 8 -3.5 20.5t6.5 20.5q-1 8 0.5 21t3.5 20q1 7 1.5 20t1.5 21q-10 9 -8.5 21.5t12.5 19.5q-2 1 -3.5 4t-3.5 5q-10 -9 -24 -7
q-4 -10 -14.5 -23.5t-18.5 -20.5q1 -13 -8 -27.5t-23 -18.5q11 -19 1.5 -35t-31.5 -15q6 -16 -3 -31.5t-25 -19.5q-4 -10 -12 -26.5t-13 -26.5q21 -20 14 -37t-36 -16q10 -14 4.5 -30t-21.5 -22q11 -14 6.5 -30t-20.5 -22q-10 -11 -28 -11t-28 11q-7 8 -5.5 22t8.5 21
q-19 10 -18.5 23t21.5 20q-7 8 -6.5 22t8.5 21q-13 9 -11.5 22t14.5 21q-20 10 -19 23t22 20q-9 9 -8 22t11 21q-3 8 -2 22t5 21q-2 8 -1.5 21.5t3.5 21.5q-7 8 -6 22t9 21q-16 9 -18 16q-4 -4 -7 -7.5t-6 -5.5q4 -16 -6.5 -30t-27.5 -13q8 -18 -2 -32.5t-29 -13.5
q-3 -11 -12 -26t-17 -22q10 -17 2 -32t-28 -17q-4 -10 -11.5 -25.5t-12.5 -24.5q4 -13 -1.5 -28.5t-17.5 -21.5q21 -17 16 -33t-32 -18q19 -14 15.5 -30t-26.5 -21q-12 -27 -32 -27t-32 27zM659 52q1 2 1.5 4t1.5 3q-1 -1 -2 -1.5t-2 -1.5q0 -1 0.5 -1.5t0.5 -2.5z" />
    <glyph glyph-name="n" unicode="n" horiz-adv-x="508" 
d="M342 -16q-5 -1 -10 3t-6 9q-8 10 -4.5 22.5t14.5 17.5q-8 10 -5.5 25t13.5 22q-2 11 0 27t7 26q-5 12 -3 31t9 29q-20 14 -19 34.5t23 31.5q-36 15 -35 38t38 35q-25 10 -33 26q2 -17 -9 -27t-29 -7q10 -19 0 -32.5t-32 -9.5q6 -17 -3.5 -30t-26.5 -12q10 -17 1.5 -31
t-28.5 -12q14 -18 7 -32t-30 -13q-2 -10 -8.5 -25t-10.5 -23q16 -14 11.5 -30.5t-25.5 -21.5q20 -14 17 -32t-27 -25q-12 -22 -31 -22t-31 22q-14 9 -13 22.5t15 20.5q-4 8 -3 22t6 22q-11 8 -10 21.5t12 21.5q-3 8 -2 22t5 22q-14 9 -13.5 22.5t15.5 20.5q-8 8 -7.5 21.5
t9.5 21.5q-6 9 -5 22.5t8 21.5q-16 9 -15.5 22.5t17.5 20.5q-13 9 -12.5 23t15.5 21q-16 7 -18 18t8 19q-7 -2 -15 -3t-13 0q-4 -19 -16.5 -22t-23.5 13q-14 8 -14 20t14 20q10 12 29 13.5t31 -8.5q3 28 20.5 33t34.5 -17q7 11 22.5 19.5t28.5 7.5q14 -9 13 -22t-17 -19
q4 -8 2.5 -20.5t-6.5 -19.5q5 -8 3.5 -21t-8.5 -20q7 -8 5.5 -21t-9.5 -20q3 -8 2 -20.5t-6 -20.5q17 -9 15.5 -21.5t-19.5 -18.5q17 -10 15 -23t-20 -18q8 -5 12 -9q3 5 6.5 9.5t5.5 8.5q-4 14 4.5 28.5t23.5 17.5q-11 20 -1.5 33.5t31.5 9.5q-13 22 -3.5 35t34.5 7
q-3 16 8 29t27 13q-11 25 1.5 38.5t37.5 5.5q5 12 18 27t25 20q10 16 28 16t28 -16q1 -8 0.5 -21.5t-2.5 -21.5q20 -10 19 -23.5t-22 -20.5q4 -8 3.5 -21.5t-5.5 -21.5q11 -9 10 -22.5t-13 -21.5q19 -9 18.5 -22.5t-20.5 -20.5q3 -8 2.5 -21.5t-4.5 -21.5q1 -8 0 -22t-3 -22
q15 -9 14.5 -22.5t-16.5 -20.5q19 -10 18 -23.5t-21 -20.5q10 -7 10 -21q13 14 30.5 11.5t31.5 -23.5q14 -7 14 -18t-14 -18q-9 -8 -24.5 -10t-26.5 3q-5 -16 -21 -20.5t-29 5.5q-7 -10 -22 -17.5t-27 -6.5z" />
    <glyph glyph-name="o" unicode="o" horiz-adv-x="396" 
d="M22 156q-14 10 -13 25.5t15 24.5q-23 12 -21.5 27t26.5 22q-19 13 -17 28t25 20q-6 11 -1.5 25t15.5 20q-9 14 -3.5 26.5t21.5 14.5q-5 13 3 24t21 12q-5 17 5 26t26 4q-2 18 10 25.5t28 -1.5q7 7 21 12t24 3q8 22 25 24t30 -18q9 3 21.5 -0.5t18.5 -11.5q10 -2 20 -12
t11 -20q11 -6 17.5 -20.5t4.5 -26.5q24 -5 28.5 -22.5t-15.5 -33.5q13 -11 14 -29t-10 -30q1 -11 0 -30t-3 -30q24 -15 21.5 -32.5t-30.5 -24.5q21 -17 16.5 -33t-31.5 -19q11 -16 4 -29.5t-26 -15.5q-4 -8 -13.5 -20t-16.5 -18q3 -18 -9 -27t-28 -1q-5 -12 -19.5 -17.5
t-26.5 -0.5q-10 -2 -27 -3.5t-27 -2.5q-10 -4 -20 0q-13 -16 -28.5 -13.5t-21.5 22.5q-16 -7 -27 2t-8 26q-8 8 -15 24.5t-6 27.5q-40 11 -42.5 35t34.5 42zM100 202q10 -10 10.5 -28t-9.5 -28q17 -8 20 -26t-10 -31q25 4 33 -10t-7 -34q19 19 35 12t16 -33q6 10 19 14
t24 -3q4 7 13.5 16t16.5 13q-2 11 4.5 24.5t16.5 17.5q0 10 3.5 25t7.5 24q-12 11 -10 26t16 23q-15 9 -14.5 23.5t15.5 22.5q-2 7 0 14q-21 8 -21.5 23.5t19.5 25.5q-17 7 -20 23.5t11 29.5q-4 9 -9.5 24.5t-8.5 24.5q-15 -1 -24.5 10t-5.5 25q-13 -13 -27 -8.5t-18 22.5
q-6 -5 -17.5 -10t-19.5 -6q9 -16 1 -29t-27 -11q13 -15 8 -32t-24 -22q23 -16 20 -34.5t-30 -25.5q19 -12 17.5 -28.5t-22.5 -24.5q8 -7 7 -19.5t-9 -19.5z" />
    <glyph glyph-name="p" unicode="p" horiz-adv-x="466" 
d="M100 436q-6 -10 -19 -13t-23 3q-7 -5 -20 -8.5t-22 -1.5q-4 9 -4 23t4 23q9 18 27 20t31 -13q10 5 27.5 9t28.5 4q3 25 20 30.5t34 -12.5q8 -24 2.5 -61.5t-19.5 -58.5q21 -14 19 -33t-25 -29q6 -13 4 -35q7 5 19 7q-7 15 1 30t24 19q-11 20 -1.5 35.5t32.5 13.5
q-6 19 5 32.5t31 12.5q-8 24 4 35.5t35 1.5q-3 21 9.5 28.5t29.5 -3.5q4 16 16 18.5t22 -9.5q16 14 28.5 8t10.5 -28q13 -9 16 -26.5t-7 -29.5q25 -10 25 -29t-25 -29q13 -10 13 -29t-13 -29q17 -12 16.5 -31t-19.5 -30q13 -13 10 -31.5t-20 -26.5q4 -12 -1 -29t-15 -25
q11 -17 3 -31t-27 -16q1 -13 -8 -25.5t-22 -14.5q-5 -9 -16.5 -19t-20.5 -13q-2 -16 -16 -22t-27 1q-5 -24 -21 -27.5t-30 16.5q-10 3 -11.5 10.5t7.5 13.5q5 22 24.5 29t37.5 -7q-13 23 -2.5 35.5t35.5 3.5q-15 18 -8 34.5t30 17.5q-14 15 -9.5 34t23.5 26q-28 15 -25.5 34
t32.5 27q-5 10 -4.5 27t6.5 27q-20 10 -20 28t20 29q-26 11 -26 29t26 28q-10 2 -16 10t-5 18q-4 -10 -13.5 -13t-19.5 4q10 -23 -0.5 -34.5t-33.5 -3.5q19 -25 9 -42t-41 -13q12 -20 3 -39t-31 -23q15 -19 7.5 -38.5t-30.5 -23.5q7 -14 2 -30.5t-19 -23.5q7 -9 3.5 -21
t-13.5 -17q4 -11 1 -27.5t-11 -24.5q3 -21 -3.5 -54t-16.5 -52q-1 -10 -4 -26.5t-5 -26.5q13 -11 10.5 -27.5t-17.5 -24.5q14 -11 12 -28t-18 -25q12 -9 11 -22t-15 -20q6 -8 5 -21t-9 -21q-8 -9 -25 -16t-29 -6q0 10 2 28t5 29q-5 11 -3 28.5t9 27.5q-9 11 -12.5 26.5
t-2 31t7.5 30t17 24.5q-5 11 -3.5 28.5t7.5 27.5q-24 12 -23 29t26 26q-19 17 -27.5 40t-7 46.5t12.5 45t31 36.5q-19 11 -18 29t20 28q-9 17 -13 40t-2.5 47.5t7.5 47t17 38.5zM168 244q-7 7 -10 14q1 -5 1.5 -13t1.5 -16q1 7 7 15z" />
    <glyph glyph-name="q" unicode="q" horiz-adv-x="410" 
d="M270 -296q-4 8 -3.5 21t5.5 21q-18 8 -17.5 21t19.5 20q-20 9 -19 22t21 20q-8 8 -7 21.5t8 20.5q-6 8 -5.5 20.5t7.5 20.5q-1 8 0 21t2 21q-1 8 -0.5 21t2.5 21q-18 8 -17.5 21t19.5 20q-11 8 -10.5 21.5t12.5 20.5q-11 8 -10.5 21.5t11.5 20.5q-4 7 -3.5 17.5t3.5 18.5
q-11 -4 -25 -1q17 -22 7.5 -37t-36.5 -11q6 -22 -8 -42t-37 -21q-3 -13 -17 -25t-27 -13q-7 -7 -20.5 -11t-22.5 -2q-14 -16 -28 -11.5t-17 25.5q-16 -1 -24.5 11t-3.5 27q-21 8 -23.5 27t14.5 33q-16 13 -15 32t20 29q-26 19 -21.5 37t36.5 22q2 11 9 28.5t13 27.5
q-2 14 7 30t21 22q-9 19 1 33.5t31 13.5q3 11 14 24t21 17q7 7 18 17t18 16q-2 17 8.5 25t25.5 0q3 10 13 15t20 0q5 2 14 4t14 1q8 0 21 -1t20 -3q10 2 18 -4q13 14 24.5 9.5t12.5 -23.5q16 -9 15 -21.5t-18 -18.5q18 -9 17.5 -21.5t-20.5 -18.5q16 -9 15 -21.5t-18 -18.5
q11 -8 10.5 -20.5t-12.5 -19.5q18 -9 17 -21.5t-20 -18.5q16 -9 15.5 -21.5t-18.5 -18.5q9 -8 8 -20.5t-11 -19.5q8 -8 7 -20.5t-10 -19.5q18 -9 17 -21.5t-20 -18.5q13 -8 12.5 -20.5t-14.5 -19.5q16 -9 15 -21.5t-18 -18.5q4 -8 2.5 -20t-5.5 -20q-1 -8 -1.5 -20t-1.5 -20
q13 -8 12.5 -20.5t-15.5 -19.5q16 -9 15.5 -21.5t-18.5 -18.5q11 -8 10.5 -20.5t-12.5 -19.5q17 -9 16 -21.5t-19 -18.5q18 -9 17 -21.5t-20 -18.5q6 -8 5.5 -20.5t-8.5 -19.5q-11 -3 -30 -7.5t-30 -6.5zM312 396q-14 8 -17.5 24t5.5 29q-12 -7 -23 -2t-13 19q-2 -2 -4 0
q-4 -11 -16 -15.5t-23 1.5q3 -16 -7.5 -26t-26.5 -7q-5 -9 -14.5 -23.5t-15.5 -22.5q2 -13 -5.5 -29.5t-19.5 -23.5q-4 -10 -9.5 -27t-9.5 -27q7 -12 3 -27.5t-17 -22.5q9 -9 6.5 -21.5t-13.5 -18.5q8 -6 7.5 -15t-9.5 -13q19 -8 23.5 -26.5t-8.5 -33.5q13 6 23.5 -1
t9.5 -21q2 17 14.5 23.5t26.5 -3.5q-10 23 1.5 35.5t35.5 3.5q-10 19 0 35.5t32 16.5q-15 20 -6.5 38.5t33.5 20.5q-25 21 -18.5 39.5t38.5 20.5q-25 16 -20.5 34t33.5 22q-13 10 -11.5 23.5t15.5 20.5z" />
    <glyph glyph-name="r" unicode="r" horiz-adv-x="384" 
d="M362 488q16 -8 16 -21.5t-16 -21.5q11 -8 11 -21.5t-11 -21.5q-10 -2 -18 2q-4 -8 -15 -12t-19 -1q7 -19 -4.5 -32t-31.5 -8q-3 -14 -14.5 -35.5t-21.5 -31.5q12 -16 5 -32t-27 -19q20 -21 12.5 -39.5t-36.5 -19.5q14 -18 7.5 -37.5t-28.5 -25.5q24 -18 19 -36.5
t-34 -23.5q15 -12 13 -28.5t-19 -24.5q-10 -13 -27 -13t-27 13q-12 8 -11.5 22t13.5 21q-14 9 -13.5 22.5t16.5 20.5q-19 9 -18.5 22.5t20.5 20.5q-2 8 -1.5 21.5t4.5 21.5q-16 9 -15.5 22.5t17.5 20.5q-2 8 -1 21.5t3 21.5q-4 8 -3 22t6 21q-13 9 -12 22t14 21
q-13 9 -12 22.5t15 20.5q-13 8 -14 18q-19 -9 -35 15q-7 -13 -23 -16t-28 6q-2 20 0 40q9 20 27.5 22t31.5 -14q11 10 31 15.5t34 1.5q8 13 25 19t31 2q20 -9 19 -22.5t-21 -20.5q9 -9 8.5 -22t-11.5 -21q5 -8 4 -22t-6 -21q12 -5 17 -14q10 5 23 5q-23 24 -15 43t42 17
q-11 22 -0.5 37t34.5 11q-1 26 15.5 34t36.5 -8q10 8 18 -2zM207 294l-1 1q0 -1 -0.5 -1t-0.5 -1q1 0 1 0.5t1 0.5zM186 279l1 -1l2 2q-1 0 -1.5 -0.5t-1.5 -0.5zM189 322q1 0 1 -0.5t1 -0.5v2q-1 0 -1 -0.5t-1 -0.5z" />
    <glyph glyph-name="s" unicode="s" horiz-adv-x="336" 
d="M60 120q24 -4 28 -21t-15 -32q18 5 28.5 -5.5t4.5 -28.5q10 1 24 -3.5t22 -9.5q5 21 20 24t28 -14q5 8 16 17t19 13q-1 10 3 25t10 23q-21 4 -25.5 21t10.5 32q-13 4 -28 17t-19 26q-22 -10 -39 2.5t-15 37.5q-17 3 -31.5 19.5t-14.5 33.5q-33 5 -38 24t22 39
q-8 12 -5 29t13 26q-8 15 0 28t25 15q5 10 18 19t24 10q5 31 22.5 35t34.5 -22q16 16 37 12t31 -24q12 -10 12 -27t-12 -27q25 -10 25 -27t-25 -27q-6 -8 -15 -8t-15 8q-13 5 -13 14t13 14q-27 -5 -42.5 6.5t-13.5 31.5q-14 -12 -34 2q6 -13 0.5 -28t-18.5 -20
q10 -8 15.5 -25.5t1.5 -30.5q28 10 42.5 -5t4.5 -43q20 10 34 0t12 -32q31 11 46.5 -4.5t3.5 -46.5q15 -8 20.5 -28t-2.5 -35q16 -10 14.5 -23t-20.5 -17q6 -13 -0.5 -26t-20.5 -16q7 -19 -3 -30.5t-30 -7.5q1 -20 -13 -28t-31 1q-8 -13 -25 -16t-29 7q0 -1 -1 -1t-1 1
q-16 -18 -37 -15t-32 24q-11 5 -29.5 12.5t-29.5 12.5q-15 10 -13.5 26.5t17.5 24.5q-5 11 -4 27t8 25q-6 10 -5 26t9 25q8 14 18 13t14 -17q13 -12 11 -30t-17 -28z" />
    <glyph glyph-name="t" unicode="t" horiz-adv-x="324" 
d="M84 379q-14 10 -18 23t1 25q-25 -10 -43 19q-12 8 -12 22t12 22q10 22 26 27t29 -6q-2 17 18 27q-13 10 -12.5 26t15.5 24q4 15 16 17.5t23 -8.5q5 10 17.5 13t21.5 -4q27 -14 25 -32.5t-31 -26.5q-1 -11 -2.5 -29.5t-3.5 -29.5q10 16 27 16t27 -15q10 21 27 21t27 -20
q19 -9 18.5 -22t-20.5 -20q-11 -22 -29.5 -22t-28.5 23q-8 -19 -20 -24.5t-22 2.5q2 -17 -20 -26q7 -11 6 -30t-9 -30q16 -16 15.5 -41t-17.5 -40q40 -20 39.5 -51.5t-40.5 -50.5q8 -10 8 -26t-8 -26q13 -7 16 -22t-5 -26q11 2 23 -5t16 -17q0 4 4 2q1 20 14 25t28 -8
q-12 19 -3 31.5t31 7.5q-26 16 -22.5 34.5t32.5 25.5q5 10 14 10t14 -10q7 -14 3.5 -34t-13.5 -31q9 -17 0.5 -33t-28.5 -17q5 -25 -8.5 -35t-36.5 3q-8 -17 -25.5 -20.5t-31.5 9.5q-22 -10 -51.5 -1.5t-42.5 29.5q-5 18 -6.5 48.5t2.5 49.5q-7 8 -6.5 19.5t7.5 18.5
q-10 9 -9.5 23t11.5 22q1 10 1.5 26t1.5 26q-29 25 -26.5 63t34.5 59z" />
    <glyph glyph-name="u" unicode="u" horiz-adv-x="504" 
d="M170 508q9 4 13.5 -0.5t0.5 -13.5q20 -15 16.5 -30t-28.5 -19q2 -11 -0.5 -27t-8.5 -25q24 -14 21.5 -31t-29.5 -24q11 -12 9 -30t-16 -28q16 -12 14.5 -31t-18.5 -29q15 -13 14 -33t-17 -31q11 -13 11 -30q9 8 24 6q6 9 17 23.5t19 22.5q-5 18 5.5 33t29.5 16
q5 10 15 26t17 26q-5 16 4 32.5t25 20.5q3 10 11 27t14 26q-21 19 -15 35.5t35 17.5q-22 16 -17.5 32t30.5 20q12 32 33 32t33 -32q16 -9 15 -22.5t-18 -20.5q0 -8 -0.5 -21.5t-1.5 -21.5q10 -8 9 -21t-12 -21q17 -9 16.5 -22.5t-18.5 -20.5q20 -10 18.5 -23t-21.5 -20
q9 -9 8 -22.5t-11 -20.5q9 -8 8.5 -21.5t-10.5 -21.5q20 -9 19 -22t-22 -20q16 -9 15.5 -22.5t-17.5 -20.5q17 -8 19 -19.5t-11 -18.5q18 5 29 4q7 5 19.5 8t20.5 1q4 -8 4 -21t-4 -21q-10 -16 -30 -17t-33 12q-5 -27 -23 -32t-35 16q-8 -8 -24 -16.5t-27 -10.5
q-11 14 -8 33.5t19 28.5q-21 14 -18 33t27 26q-2 11 0 29t7 29q-13 12 -11.5 29.5t17.5 26.5q-3 11 -2 28t5 27q-8 4 -14 12q-7 -9 -16 -13q14 -22 4 -38t-36 -14q14 -22 4 -37.5t-36 -12.5q19 -41 -2 -69.5t-65 -23.5q8 -20 -2.5 -33.5t-31.5 -10.5q13 -25 2.5 -38
t-37.5 -4q-10 -20 -28 -20t-28 20q-4 20 2 40q-3 8 -2 20t5 20q-5 8 -4 21t6 20q-7 8 -6.5 20.5t8.5 19.5q-14 9 -13.5 21.5t16.5 18.5q-3 7 -2.5 20t4.5 20q-5 8 -4.5 20.5t7.5 19.5q-5 7 -4 20t6 20q-19 9 -18.5 21.5t20.5 19.5q-15 9 -14 21.5t17 18.5q-10 12 -5 29
q-13 -16 -33 -18.5t-36 11.5q-9 8 -9 19t9 19q9 13 26.5 15.5t29.5 -8.5q8 8 23 13t25 2q6 13 22 21t30 5z" />
    <glyph glyph-name="v" unicode="v" horiz-adv-x="588" 
d="M198 401q4 5 11 12t14 12q-21 -11 -37 5q-8 -7 -21.5 -7t-21.5 7q-8 -8 -21.5 -8t-21.5 8q-8 -5 -20.5 -5.5t-21.5 4.5q14 -7 13 -19.5t-14 -20.5q5 -7 5 -20t-5 -20q1 -7 1.5 -20t-0.5 -21q-6 -12 -17 -12t-17 12q-2 9 -1.5 23.5t2.5 23.5q-3 9 -3 23.5t4 22.5
q-1 9 -0.5 23.5t1.5 23.5q-13 9 -13 23.5t14 22.5q13 14 31 12t27 -18q16 2 43 0.5t43 -4.5q16 39 45 40.5t48 -36.5q11 5 30 7t31 -1q8 -10 6 -24q-4 -6 -13.5 -12t-16.5 -7q2 -14 -9 -26.5t-25 -12.5q-2 -12 -12 -29t-20 -24q22 -24 13 -43.5t-41 -18.5q29 -22 23 -42.5
t-42 -23.5q8 -13 5.5 -33.5t-12.5 -31.5q31 -7 34.5 -27.5t-22.5 -37.5q18 2 28 -10.5t3 -29.5q13 13 28.5 9t20.5 -22q7 15 22 17.5t26 -9.5q1 17 14.5 24.5t28.5 -1.5q5 9 16.5 19.5t20.5 14.5q-14 22 -5 35.5t35 8.5q-21 21 -14 37t37 15q-21 17 -16.5 34t30.5 21
q-25 14 -24 32t29 26q-14 8 -14 21.5t14 21.5q-11 8 -11 21.5t11 21.5q-21 8 -21 21.5t21 21.5q-20 8 -20 21.5t20 21.5q9 13 23 13t23 -13q9 15 23 15t23 -15q10 -15 5 -33t-22 -25q19 -14 17 -32t-24 -26q3 -10 5 -27t2 -28q25 -5 30 -23.5t-13 -35.5q-2 -8 -7 -9t-9 7
q-18 -21 -31 -5q0 -24 -20 -34q17 -19 10 -34.5t-32 -15.5q13 -20 3.5 -34.5t-32.5 -12.5q13 -24 1.5 -37t-36.5 -5q5 -21 -8 -31.5t-33 -2.5q-5 -11 -19.5 -19.5t-26.5 -7.5q-8 -7 -24 -12t-27 -5q-10 -7 -27 -8.5t-28 2.5q-8 -16 -20 -16t-20 16q-8 -5 -20 -5t-20 5
q-35 -4 -46.5 16t11.5 48q-11 11 -14 32.5t5 35.5q-18 10 -16.5 23.5t21.5 19.5q-23 18 -18 35.5t34 21.5q-11 16 -4 35.5t26 26.5q-20 23 -11.5 41.5t39.5 17.5q-16 23 -6 38t37 10z" />
    <glyph glyph-name="w" unicode="w" horiz-adv-x="688" 
d="M160 -4q-14 -8 -35 -8t-35 8q-17 8 -16.5 21t18.5 20q-11 8 -10.5 20.5t12.5 19.5q-2 7 -1.5 20t2.5 21q-10 8 -9.5 20.5t11.5 19.5q-13 8 -12.5 21t14.5 20q0 20 2 40q-11 8 -10.5 20.5t12.5 20.5q-13 8 -12 20.5t14 19.5q-18 8 -18 21t19 20q-12 8 -11.5 20.5
t13.5 19.5q-8 8 -8 21q-15 -12 -31 10q-7 -7 -19.5 -10t-21.5 0q-16 7 -17 20t13 22q8 28 27.5 31t34.5 -23q4 32 23.5 36.5t38.5 -21.5q10 7 30 14.5t34 8.5q-2 -10 -5.5 -28t-5.5 -29q25 -14 22.5 -32.5t-29.5 -26.5q2 -12 0 -31t-6 -30q1 -12 -0.5 -32t-2.5 -32
q9 -12 9 -31q9 9 17 10q-7 17 2 31.5t28 15.5q-13 22 -4 37t35 11q5 10 15.5 25.5t17.5 24.5q-7 19 4 35.5t32 15.5q-5 18 7 34t30 18q12 14 33 14t33 -14q8 -9 7.5 -22.5t-9.5 -21.5q17 -9 16.5 -22.5t-19.5 -20.5q1 -8 0.5 -22t-2.5 -22q1 -8 0.5 -21.5t-3.5 -21.5
q10 -9 9.5 -22.5t-11.5 -21.5q4 -8 3.5 -22t-5.5 -22q5 -8 4 -22t-7 -21q14 -9 13.5 -23t-15.5 -21q19 -10 18 -23t-21 -20q8 -15 1 -37q7 12 21 23t27 14q7 10 20.5 25.5t22.5 23.5q-11 22 0 38.5t36 14.5q-22 24 -13 42t41 16q-6 9 -6 23.5t6 23.5v47q-15 9 -15 23t15 23
q-2 9 -2 23.5t2 23.5q-20 9 -20 23.5t20 23.5q8 2 21.5 2t21.5 -2q8 14 21.5 14t21.5 -14q33 -23 30 -55.5t-40 -49.5q8 -10 7 -25.5t-11 -23.5q7 -15 8.5 -41.5t-2.5 -42.5q-9 -8 -24 -8t-24 8q0 -11 -7 -26.5t-15 -23.5q2 -13 -6.5 -27.5t-20.5 -19.5q11 -22 1 -35t-34 -8
q-3 -12 -15 -24t-24 -15q7 -26 -6.5 -36.5t-37.5 2.5q-4 -14 -19.5 -23.5t-29.5 -6.5q-1 -26 -17.5 -33t-36.5 10q-10 8 -9.5 22t11.5 21q0 8 0.5 21.5t1.5 21.5q-16 9 -15 22t17 20q-5 8 -4.5 22t6.5 21q-7 8 -6.5 21.5t8.5 21.5q-15 9 -14.5 22.5t16.5 20.5
q-16 9 -15.5 22t17.5 21q-18 9 -17.5 22t19.5 20q-10 8 -9 22t11 21q-4 6 -5 10q-8 -19 -22.5 -34.5t-30.5 -21.5q-3 -10 -12.5 -24t-16.5 -21q-1 -11 -9.5 -25t-18.5 -20q16 -20 8.5 -34.5t-33.5 -11.5q10 -16 3.5 -31t-25.5 -17q13 -15 7.5 -30.5t-25.5 -18.5
q8 -12 4.5 -28t-16.5 -23q8 -11 6 -27.5t-12 -25.5z" />
    <glyph glyph-name="x" unicode="x" horiz-adv-x="598" 
d="M386 354q10 -20 0.5 -35t-31.5 -13q-2 -11 -12 -26t-19 -22q22 5 31 -7.5t-4 -31.5q5 -7 14 -19t13 -19q6 -7 14.5 -19t12.5 -20q19 3 27.5 -9t-0.5 -29q18 6 33 -4.5t15 -29.5q3 8 10.5 10t13.5 -4q-2 19 10 27t28 -1q14 0 19 -9.5t-3 -20.5q-8 -10 -27 -19.5t-32 -10.5
q-4 -14 -18.5 -23t-28.5 -5q-5 -7 -16.5 -15t-19.5 -11q-8 5 -16 17.5t-9 22.5q-17 -1 -25 11t0 28q-23 -5 -31.5 8t5.5 32q-20 -2 -28 10t3 29q-5 6 -11 16t-11 18q11 -20 1 -32t-35 -7q11 -20 1 -34t-32 -11q9 -23 -3.5 -38.5t-36.5 -10.5q4 -26 -12 -38.5t-40 -2.5
q-8 -14 -26 -19.5t-32 1.5q-14 -7 -28 0.5t-15 23.5q-28 4 -32.5 21.5t17.5 34.5q-19 12 -17 27t23 22q-20 17 -15 34t31 21q-7 13 -1.5 28.5t19.5 21.5q16 -2 28 -12q4 -14 -2 -33.5t-18 -28.5q21 -15 18 -34.5t-28 -27.5q4 -8 10 -23t8 -25q8 4 22 7t23 1q-2 16 9.5 28
t27.5 10q4 8 12.5 19t13.5 17q3 8 10.5 19.5t14.5 17.5q-5 14 3 25.5t23 10.5q-7 15 1 26.5t24 10.5q-10 2 -17 12.5t-6 20.5q-11 1 -18 11.5t-5 21.5q-20 -3 -26.5 7.5t4.5 26.5q-20 -5 -27.5 5.5t4.5 27.5q-13 1 -20 11t-3 22q-15 -7 -25.5 0t-9.5 21q-2 -11 -11.5 -13.5
t-19.5 6.5q-1 -15 -12.5 -22t-25.5 0q-17 -1 -22 9t6 23q-2 32 16 40t40 -15q-2 25 13 34t35 -7q5 11 20 21.5t28 12.5q16 0 22 -11t-2 -24q6 -5 12 -16t8 -18q14 -1 20 -12t0 -23q14 -1 20 -12t0 -23q19 2 25 -8.5t-5 -25.5q7 1 15 -1q8 10 30 5q4 8 11.5 20t13.5 19
q-12 30 4.5 52t48.5 18q-7 28 9 41t42 1q4 20 19 24t29 -10q17 20 32.5 14t17.5 -32q6 -9 11.5 -25.5t6.5 -26.5q3 -14 0 -34.5t-10 -32.5q27 -22 20.5 -41.5t-40.5 -21.5q-11 -7 -19.5 -2t-6.5 18q-2 16 8 30q-19 14 -16.5 32t24.5 26q-14 2 -23.5 11.5t-11.5 22.5
q-4 -15 -17 -18t-29 9q14 -35 -5 -59t-56 -18z" />
    <glyph glyph-name="y" unicode="y" horiz-adv-x="524" 
d="M388 500q4 4 8 0q10 1 25 -5t23 -14q13 -2 23 -14t9 -25q14 -7 19 -23t-2 -29q11 -9 12.5 -26t-7.5 -28q20 -8 19.5 -21t-20.5 -20q16 -10 14.5 -23.5t-18.5 -20.5q-1 -9 -3 -23.5t-4 -23.5q18 -14 15 -29t-25 -20q14 -13 10 -28.5t-22 -20.5q16 -15 12 -30.5t-27 -19.5
q21 -18 15.5 -33.5t-33.5 -15.5q-2 -10 -9 -25t-12 -23q1 -11 -6.5 -25.5t-17.5 -19.5q15 -20 7 -33t-33 -8q-5 -7 -14.5 -19t-15.5 -19l-33 -33q-4 -9 -15 -17.5t-21 -9.5q-18 -10 -38 -20q-6 -9 -19 -13t-23 0q-7 -12 -21 -13t-24 9q-9 -2 -23.5 -2t-23.5 2
q-9 -4 -23.5 -4t-23.5 4q-22 4 -25.5 19t14.5 29q-25 12 -26 33t23 35q-17 17 -14 42t24 37q-3 12 0.5 29.5t11.5 27.5q14 19 35 19t35 -19q22 -13 19.5 -28.5t-27.5 -20.5q27 -19 22 -42t-37 -30q18 -12 16 -27t-23 -22q28 7 41.5 -9.5t2.5 -42.5q8 6 23 7.5t25 -2.5
q3 17 16.5 22t26.5 -6q-1 17 11 24t27 0q-9 22 1.5 32t31.5 0q4 8 13 20t16 18q4 9 11.5 22t13.5 21q-8 14 -1.5 28.5t22.5 17.5q-19 16 -13.5 32t30.5 18q-3 10 1.5 26t11.5 24q-9 12 -6 27.5t17 22.5q-15 11 -13 26.5t20 22.5q-18 11 -16.5 25t20.5 22q-14 8 -14 21t15 21
q-15 7 -15 18t15 18q-32 10 -33.5 32t28.5 37q-8 6 -13 19.5t-3 23.5q-15 4 -27 16q0 -17 -10.5 -21.5t-22.5 7.5q-5 -8 -14.5 -20t-14.5 -19q8 -16 0 -33t-24 -22q17 -16 11.5 -34.5t-28.5 -23.5q19 -13 16.5 -29t-23.5 -23q12 -6 11.5 -14t-13.5 -12q14 -12 15.5 -33.5
t-9.5 -35.5q26 -7 29 -24.5t-20 -31.5q24 -1 28 -15t-15 -28q-4 -22 -22 -29.5t-36 5.5q-12 4 -16 17t3 24q-18 3 -21.5 15.5t9.5 24.5q-13 5 -17 17.5t4 23.5q-21 2 -24.5 14t12.5 26q-20 2 -23.5 15t10.5 26q-11 5 -14.5 17.5t2.5 22.5q-7 6 -11 19t-2 22q-6 6 -10 18.5
t-2 21.5q-16 4 -20 16.5t7 24.5q-11 5 -15 17t3 23q-17 3 -20.5 16t7.5 25q-14 -5 -38.5 -9.5t-39.5 -4.5q-11 6 -11.5 17t9.5 19q10 24 33 28.5t41 -14.5q1 26 19.5 36t40.5 -4q10 -6 15 -20t0 -24q22 -2 26.5 -15.5t-12.5 -27.5q4 -8 8.5 -22t6.5 -22q23 -1 28 -15
t-13 -29q11 -5 15 -19t-1 -24q6 -4 9 -7q5 5 11 8q1 11 5 28t8 27q3 11 9.5 28.5t11.5 28.5q-5 16 4 32t26 20q-7 20 5 32t32 5q5 13 19 17.5t25 -3.5z" />
    <glyph glyph-name="z" unicode="z" horiz-adv-x="546" 
d="M94 378q-7 -10 -18 -10t-18 10q-22 14 -20 32t28 26q0 11 2.5 29.5t5.5 28.5q10 4 25 2.5t24 -6.5q14 24 36 23t33 -27q16 8 44 7t44 -9q14 1 36 1.5t36 -0.5q10 29 29 30t32 -27q9 5 24.5 6.5t25.5 -3.5q7 8 19 9t20 -6q9 -2 11.5 -10t-3.5 -16q9 -20 0 -29.5t-29 -1.5
q5 -16 -4 -25.5t-25 -5.5q3 -14 -6 -23.5t-23 -7.5q-5 -7 -13.5 -17t-15.5 -14q8 -18 -1.5 -27.5t-27.5 -3.5q-1 -10 -10.5 -19.5t-18.5 -11.5q-4 -7 -13 -17t-15 -15q1 -11 -8.5 -21t-20.5 -10q6 -17 -3 -26.5t-26 -4.5q0 -10 -9 -20t-20 -11q8 -19 -0.5 -28.5t-28.5 -2.5
q10 -20 1 -29.5t-30 -1.5q11 -26 -8 -33q9 -1 17.5 -2t14.5 -2q13 20 31 18.5t28 -22.5q12 0 31.5 -1t31.5 -3q13 17 34 16.5t33 -18.5q10 5 28.5 5.5t29.5 -3.5q16 10 43.5 11.5t44.5 -7.5q19 -9 19 -23t-19 -23q-6 -21 -19 -21.5t-22 18.5q-9 -4 -24.5 -4.5t-25.5 2.5
q-11 -1 -30.5 -1.5t-30.5 -0.5q-13 -8 -34.5 -8.5t-35.5 7.5q-21 -33 -54.5 -32.5t-52.5 34.5q-24 -47 -59 -45.5t-54 51.5q-12 -10 -30 -9t-28 13q-10 4 -10 10t10 10q-9 20 0 29t29 1q-1 12 8 21.5t21 8.5q-2 13 7 22.5t22 7.5q-3 14 6 23.5t23 7.5q3 8 12 17.5t17 12.5
q1 11 10 20t19 10q1 11 10.5 20t19.5 10q-3 13 6.5 22.5t22.5 7.5q0 11 9.5 20t19.5 10q-5 16 4 25.5t25 5.5q-1 13 7.5 22.5t21.5 7.5q-4 16 4.5 25t24.5 5q1 7 6.5 14.5t12.5 11.5q-22 -5 -36 4q-9 -4 -23 -4t-23 4q-9 -8 -23 -8t-23 8q-23 -6 -46 0q-9 -5 -23 -5t-23 5
q-8 -6 -24 -8.5t-26 -0.5q10 -17 2 -29t-28 -8z" />
    <glyph glyph-name="braceleft" unicode="{" horiz-adv-x="252" 
d="M96 262q-4 -2 -6 -2q2 -1 4 -6q27 2 42.5 -18t7.5 -46q17 -8 17 -21.5t-17 -21.5q11 -8 11 -21.5t-11 -21.5q21 -8 21 -21t-21 -21q10 -8 10 -21.5t-10 -21.5q17 -8 17 -21.5t-17 -21.5q28 -4 32.5 -22t-19.5 -34q12 -1 24 -11t15 -21q4 5 9 4t7 -8q-4 -12 -13 -12
t-13 12q-20 -3 -46.5 7t-39.5 25q-26 1 -31 16t14 32q-2 15 -4 40t-1 40q-20 10 -20 25.5t20 25.5q-8 10 -8 26t8 26q-8 10 -8 25.5t8 25.5q-28 -6 -43 11.5t-5 44.5q-4 -4 -7 -2.5t-3 6.5q4 6 10 4q-13 32 4.5 52t51.5 12q-19 8 -19 21t19 20q-14 7 -14 20t14 21
q-17 8 -17 21t17 21q-2 8 -2 21t2 20q-16 7 -16 20t16 21q-8 12 -4 28t17 23q-5 19 6 29.5t30 3.5q5 20 21 24t30 -12q6 15 16 15t16 -15q-1 -7 -6 -8.5t-10 2.5q-4 -10 -15.5 -20t-21.5 -12q18 -15 13.5 -31.5t-26.5 -20.5q17 -9 17 -24t-17 -24q17 -9 17 -24t-17 -24
q2 -9 2 -24t-2 -24q16 -9 16 -24t-16 -24q20 -16 16 -33t-30 -21q1 -17 -12.5 -26.5t-29.5 -3.5z" />
    <glyph glyph-name="bar" unicode="|" horiz-adv-x="130" 
d="M30 632q12 1 33 1t33 -1q8 -8 8 -21t-8 -21q19 -8 19 -21t-19 -20q10 -8 10 -21t-10 -21q4 -21 0 -42q4 -21 0 -42q9 -7 9 -20t-9 -21q18 -8 18 -21t-18 -21q20 -8 20 -21t-20 -21q6 -8 6 -21t-6 -20q20 -8 20 -21t-20 -21q9 -8 9 -21t-9 -21q15 -8 15 -21t-15 -21
q14 -7 14 -20t-14 -21q20 -8 20 -21t-20 -21q7 -8 7 -21t-7 -21q8 -8 8 -21t-8 -20q6 -8 6 -21t-6 -21q14 -8 14 -21t-14 -21q6 -21 0 -42q2 -7 2 -20t-2 -21q17 -8 17 -21t-17 -21q-12 -7 -33 -7t-33 7q-6 8 -6 21t6 21q-3 8 -3 21t3 20q-6 21 0 42q-9 8 -9 21t9 21
q-6 21 0 42q-8 7 -8 20t8 21q-9 8 -9 21t9 21q-3 8 -3 21t3 21q-18 8 -18 21t18 20q-15 8 -15 21t15 21q-13 8 -13 21t13 21q-14 8 -14 21t14 21q-2 7 -2 20t2 21q-14 8 -14 21t14 21q-4 8 -4 21t4 21q-20 8 -20 21t20 20q-18 8 -18 21t18 21q-6 21 0 42q-6 21 0 42
q-11 7 -11 20t11 21q-5 8 -5 21t5 21z" />
    <glyph glyph-name="braceright" unicode="}" horiz-adv-x="252" 
d="M148 254q0 2 2 4q-3 1 -4 4q-14 -4 -28 5.5t-15 24.5q-16 7 -19.5 23.5t6.5 30.5q-11 9 -11 24t11 24q-5 9 -5 24t5 24q-14 9 -14 24t14 24q-4 9 -4 24t4 24q-20 5 -24 20.5t11 29.5q-16 -4 -27.5 7t-9.5 27q-5 -4 -10 -2.5t-6 8.5q6 14 16 14t16 -14q15 21 31 17.5
t20 -29.5q15 2 26 -8.5t10 -25.5q22 -4 26 -20t-13 -30q10 -8 10 -21t-10 -20q9 -7 9 -20t-9 -21q14 -8 14 -21t-14 -21q20 -8 20 -21t-20 -20q20 -7 20 -20t-20 -21q22 -2 40 -22t16 -42q8 4 10 -4q-2 -10 -10 -4q17 -33 2 -50.5t-50 -5.5q13 -9 13 -23t-13 -23q6 -9 6 -23
t-6 -23q8 -9 8 -23t-8 -23q18 -9 18 -23t-18 -23q23 -14 21.5 -33.5t-26.5 -29.5q4 -10 -1.5 -21.5t-15.5 -15.5q-10 -22 -37 -31t-49 1q-4 -4 -13 -4t-13 4q6 10 16 4q4 9 16.5 19t22.5 13q2 10 6.5 28t6.5 28q-1 8 -1 21.5t1 21.5q-7 8 -7 21.5t7 21.5q-18 8 -18 21t18 21
q-6 8 -6 21.5t6 21.5q-19 8 -19 21.5t19 21.5q8 14 23.5 34t26.5 30z" />
    <glyph glyph-name="asciitilde" unicode="~" horiz-adv-x="290" 
d="M52 554q-8 -10 -17 -7.5t-11 15.5q-3 16 8.5 32t27.5 19q8 9 24 15t28 4q7 -1 17.5 -5t16.5 -8q12 4 22 -3.5t9 -20.5q8 5 17.5 1t12.5 -13q0 13 10.5 20.5t22.5 4.5q8 6 16 3.5t10 -11.5q-7 -10 -18 -27t-18 -27q-7 -12 -23 -18t-29 -2q-10 -2 -23.5 4t-18.5 16
q-18 -10 -30.5 -2t-9.5 29q-7 -7 -20.5 -13t-23.5 -6z" />
    <glyph glyph-name="florin" unicode="&#x192;" horiz-adv-x="422" 
d="M326 656q-6 -6 -8 2q-1 -8 -6.5 -16.5t-12.5 -11.5q20 -17 15.5 -36.5t-29.5 -26.5q11 -14 8.5 -35.5t-17.5 -32.5q-1 -8 -2.5 -21.5t-3.5 -21.5q8 10 21.5 10t21.5 -10q8 8 21.5 8t21.5 -8q16 -9 15 -20.5t-19 -15.5q-9 -6 -23 -6t-23 6q-14 -19 -35 -9q9 -11 4 -21.5
t-24 -13.5q17 -11 14 -25t-22 -19q17 -12 14 -26t-23 -18q13 -11 10.5 -25t-19.5 -19q1 -9 -1 -22.5t-7 -21.5q-1 -8 -4 -22t-5 -22q3 -8 0.5 -20t-8.5 -18q2 -10 -1.5 -24.5t-9.5 -22.5q9 -13 4.5 -29.5t-19.5 -22.5q4 -13 -2 -28t-18 -21q-3 -9 -11 -22t-15 -20
q8 -21 -2.5 -30.5t-30.5 0.5q-5 -10 -17 -14t-22 3q-13 -7 -24.5 -0.5t-12.5 20.5q1 7 1.5 18.5t1.5 18.5q3 10 13.5 17t20.5 5q12 2 21.5 -7t8.5 -21q4 6 12 12t15 7q-11 14 -5.5 28.5t22.5 17.5q-9 13 -5.5 31t16.5 27q-17 13 -14 30t23 25q-8 10 -5 23.5t14 19.5
q-17 11 -14 25t22 19q-4 9 -1.5 22.5t10.5 20.5q-20 12 -17.5 26t25.5 18q-7 10 -4 23.5t13 19.5q2 22 8 44q-10 11 -7 24t16 19q-9 -5 -24 -5t-24 5q-9 -6 -24 -6t-24 6q-13 8 -12.5 19t14.5 17q10 9 26.5 9t26.5 -9q10 22 26.5 22t26.5 -22q-2 9 0.5 22t8.5 20
q-23 16 -18.5 33t32.5 20q-12 15 -6.5 32.5t24.5 23.5q-17 19 -9 35.5t33 15.5q1 11 11 22.5t21 14.5q6 8 18.5 12.5t22.5 2.5q13 0 25.5 -10.5t14.5 -23.5q5 -24 -9.5 -36t-36.5 -2q-8 0 -16.5 5.5t-11.5 12.5z" />
    <glyph glyph-name="ellipsis" unicode="&#x2026;" horiz-adv-x="608" 
d="M44 54q-4 27 14.5 45t45.5 13q36 12 53 -7t1 -53q17 -37 -0.5 -56.5t-55.5 -5.5q-23 1 -41.5 21t-16.5 43zM452 54q-10 33 9 51t51 7q26 2 42.5 -16.5t11.5 -43.5q3 -23 -14.5 -42.5t-41.5 -19.5q-11 11 -29.5 31t-28.5 33zM248 54q3 20 21.5 38t38.5 20q28 5 45 -13.5
t9 -46.5q-3 -19 -20.5 -38.5t-35.5 -23.5q-32 -8 -50 12t-8 52z" />
    <glyph glyph-name="dagger" unicode="&#x2020;" horiz-adv-x="438" 
d="M220 2q-7 -8 -19.5 -9t-20.5 7q-52 26 -50.5 65t54.5 61q-15 12 -22.5 28.5t-7 34t8.5 34t23 27.5q-8 10 -8 27t8 28q-23 14 -17 35q-11 -6 -23 -1.5t-19 20.5q-10 -12 -26.5 -12.5t-27.5 10.5q-9 -2 -24.5 -3.5t-24.5 -1.5q-15 14 -15 36t15 36q15 18 35.5 27t42.5 8.5
t42 -9.5t35 -27q-10 13 -8.5 31.5t12.5 29.5q-35 11 -35.5 33t32.5 36q-20 12 -21.5 35t15.5 38q8 3 22.5 3t22.5 -3q8 17 22.5 17t22.5 -17q20 -13 19 -32.5t-22 -30.5q33 -17 32 -43t-36 -39q21 -11 26 -25t-6 -25q14 4 29.5 0.5t25.5 -13.5q14 9 37 11t37 -5q3 3 6 0
q24 -13 24.5 -35.5t-22.5 -36.5q-10 -22 -25.5 -21t-23.5 23q-13 -14 -33 -13t-31 17q-14 -32 -35 -18q2 -16 -14 -25q15 -25 23.5 -61t9 -74t-6 -74.5t-20.5 -62.5q15 -8 15 -22.5t-15 -22.5q-9 -17 -21 -16t-17 20z" />
    <glyph glyph-name="circumflex" unicode="&#x2c6;" horiz-adv-x="472" 
d="M320 692q6 -5 16.5 -14t16.5 -14q10 -1 20 -9.5t12 -18.5q19 10 29.5 1t3.5 -29q10 -1 20 -9.5t12 -18.5q-15 -17 -28.5 -12.5t-14.5 27.5q-14 -13 -28 -8t-16 24q-9 1 -22 5.5t-21 9.5q-5 -10 -18.5 -15.5t-24.5 -1.5q-1 -19 -15 -25t-29 7q-7 -4 -21 -9.5t-22 -7.5
q-4 17 6 26.5t27 3.5q-3 16 7 25t25 4q0 12 10.5 21.5t22.5 8.5q-3 16 7 24.5t25 4.5z" />
    <glyph glyph-name="OE" unicode="&#x152;" horiz-adv-x="926" 
d="M112 332q21 -8 22.5 -23.5t-18.5 -26.5q15 -7 18.5 -23t-7.5 -28q16 -5 21.5 -21t-2.5 -30q6 -8 14 -23t12 -24q12 -3 22.5 -15.5t10.5 -25.5q12 0 24.5 -10t14.5 -22q10 0 24.5 -7t21.5 -15q11 10 27.5 7.5t24.5 -15.5q4 11 12 11.5t14 -9.5q8 13 24.5 17.5t29.5 -2.5
q2 11 13.5 19t23.5 7q-9 16 -1.5 27t25.5 8q-13 13 -8.5 26.5t22.5 16.5q-9 11 -7 26t13 22q-17 11 -16 27t17 26q-22 10 -22 28t22 28q-13 9 -13.5 25t12.5 26q-4 10 -4.5 26.5t1.5 26.5q-20 7 -22.5 23t14.5 29q-10 7 -15 22t-1 26q-14 2 -22 14t-5 25q-17 -8 -29 0
t-10 27q-13 -9 -29.5 -5.5t-24.5 17.5q-8 -16 -24 -17.5t-27 13.5q-6 -11 -20.5 -15.5t-25.5 1.5q2 -25 -11 -31.5t-31 10.5q-2 -11 -13.5 -20t-21.5 -10q6 -16 -3 -27.5t-25 -9.5q10 -16 3.5 -29.5t-25.5 -14.5q6 -12 1.5 -28t-15.5 -23q20 -13 18 -31t-24 -26zM352 -12
q-10 -2 -26.5 -1t-26.5 6q-16 -21 -31.5 -17t-18.5 30q-11 -1 -25 5.5t-21 15.5q-11 1 -24 9.5t-18 18.5q-11 2 -22.5 12.5t-14.5 21.5q-11 3 -20.5 15.5t-10.5 23.5q-18 1 -26 14.5t1 29.5q-19 3 -24.5 18t6.5 30q-13 7 -16.5 23t4.5 28q-4 10 -5 26.5t1 26.5q-10 10 -9 26
t13 24q-20 14 -16 28.5t27 18.5q-5 11 0.5 25.5t16.5 20.5q-15 19 -7.5 32t31.5 9q-8 17 1.5 29t28.5 9q-3 16 7.5 26t26.5 6q-2 19 11 27t29 -1q8 4 21.5 10.5t21.5 9.5q4 21 19 25.5t29 -12.5q7 23 23 24t27 -20q4 1 10.5 1t10.5 -2q17 25 37.5 21t28.5 -33q14 10 38 9.5
t37 -12.5q13 12 33.5 11.5t32.5 -13.5q11 17 29 17t28 -18q12 29 33 29.5t35 -28.5q13 1 34 1.5t34 0.5q11 31 33 32t37 -27q16 -8 16.5 -23t-14.5 -25q19 -8 19.5 -23t-17.5 -25q15 -8 15.5 -23t-13.5 -25q-7 -8 -18 -8t-18 8q-8 18 -4 36q-22 -2 -30.5 12t4.5 33
q-13 -7 -29 -2.5t-23 17.5q-10 -20 -29 -20t-29 20q-10 -20 -28 -21t-29 19q2 -8 2 -19.5t-3 -18.5q8 -8 8 -20t-8 -20q3 -8 3 -20t-3 -20q4 -8 4 -20t-4 -20q16 -8 16 -20t-16 -20q6 -20 0 -40q9 14 25 14t26 -13q10 19 25 19t25 -19q9 14 25 14.5t26 -13.5q9 9 25.5 21.5
t26.5 18.5q-4 14 0 28q6 6 17 6t17 -6q20 -14 19 -35t-21 -33q48 -20 50 -56t-44 -60q-7 -11 -18 -11t-18 11q-18 8 -18 19t18 19q-12 2 -27 13.5t-21 22.5q-10 -21 -26 -20.5t-25 21.5q-11 -19 -27 -18.5t-25 20.5q-8 -19 -21 -22t-23 10q4 -18 -7 -29q14 -8 14 -21
t-14 -20q4 -7 4 -20t-4 -21q13 -8 13 -21t-13 -21q28 -8 32 -29.5t-19 -38.5q13 4 29.5 -3.5t21.5 -20.5q10 19 26 19t26 -19q10 22 26 22t26 -22q2 29 18.5 34.5t35.5 -16.5q-2 14 7 27.5t22 16.5q-15 14 -12.5 31t21.5 25q7 17 18 17t18 -17q1 -8 -0.5 -21t-3.5 -20
q13 -10 11.5 -22.5t-16.5 -18.5q12 -9 10.5 -21.5t-14.5 -19.5q6 -8 4.5 -21t-9.5 -20q-18 -28 -45.5 -26.5t-42.5 31.5q-14 -31 -34.5 -30t-31.5 32q-9 -13 -23.5 -13t-22.5 14q-9 -7 -24 -7t-24 7q-12 -1 -28 -2t-33.5 -1.5t-33.5 -0.5h-28q-13 -15 -36.5 -16.5
t-38.5 12.5q-13 -20 -38.5 -24.5t-43.5 10.5z" />
    <glyph glyph-name="quoteleft" unicode="&#x2018;" horiz-adv-x="202" 
d="M88 316q-4 -6 -13 -6t-13 6q-17 2 -23.5 16.5t3.5 28.5q-8 7 -14.5 21t-5.5 24q2 8 8 19t10 17q-2 10 3 21t14 16q1 8 6.5 19.5t11.5 16.5q-12 14 -6.5 25.5t24.5 10.5q-7 11 -1.5 23t18.5 14q-14 15 -8 26.5t26 9.5q9 17 24 17t24 -17q16 -19 9.5 -34.5t-31.5 -15.5
q13 -16 6.5 -31.5t-26.5 -17.5q15 -16 9.5 -31.5t-27.5 -18.5q21 -17 16 -33t-31 -19q11 -12 8 -28.5t-18 -23.5q20 -11 19 -28.5t-22 -26.5z" />
    <glyph glyph-name="quoteright" unicode="&#x2019;" horiz-adv-x="202" 
d="M114 626q4 8 13 8t13 -8q14 -4 20 -18t-1 -27q5 -7 11 -21.5t8 -23.5q14 -15 8 -26.5t-26 -9.5q14 -14 8.5 -26t-25.5 -11q11 -14 5.5 -25.5t-23.5 -10.5q1 -9 -5 -20t-13 -16q13 -14 7.5 -25.5t-24.5 -11.5q-2 -8 -7.5 -19t-10.5 -17q-9 -20 -24 -20t-24 20
q-21 33 -6 65.5t53 39.5q-17 17 -11 31t29 15q-4 11 0 25.5t13 21.5q-5 10 -2.5 26.5t11.5 24.5q-9 11 -8 30t11 29z" />
    <glyph glyph-name="quotedblleft" unicode="&#x201c;" horiz-adv-x="400" 
d="M294 430q21 -14 18 -30t-27 -21q17 -13 15.5 -33t-20.5 -30q-4 -6 -13 -6t-13 6q-5 8 -11.5 22t-7.5 23q-25 -1 -31 13.5t12 31.5q-13 15 -7.5 26.5t25.5 9.5q-12 14 -7 25.5t24 11.5q-1 9 5 20t13 16q-12 14 -6.5 25.5t24.5 10.5q1 7 6.5 19t10.5 18q-12 14 -6.5 25.5
t24.5 10.5q9 14 24 14t24 -14q16 -12 13 -25.5t-23 -17.5q3 -13 -4 -29.5t-19 -23.5q3 -14 -5 -30.5t-20 -23.5q4 -11 -2 -25t-16 -19zM102 428q20 -14 17.5 -32t-25.5 -25q22 -13 20.5 -31t-26.5 -26q-4 -6 -13 -6t-13 6q-22 1 -28 15.5t9 30.5q-8 7 -14.5 21.5t-4.5 24.5
q-2 10 3.5 21t14.5 15q-4 10 1 21.5t16 15.5q-13 15 -7.5 26t25.5 10q8 18 18 36q-7 11 -1.5 23t18.5 14q-2 10 3.5 21t14.5 15q9 22 24 22t24 -22q4 -16 -4 -35t-22 -27q14 -21 5.5 -42.5t-33.5 -26.5q17 -19 10.5 -39.5t-32.5 -25.5z" />
    <glyph glyph-name="quotedblright" unicode="&#x201d;" horiz-adv-x="394" 
d="M114 626q4 6 13 6t13 -6q25 1 30.5 -13.5t-11.5 -31.5q22 -1 28 -15t-9 -30q6 -11 0.5 -22.5t-18.5 -13.5q14 -15 9 -26.5t-26 -10.5q11 -14 5.5 -25.5t-23.5 -10.5q7 -12 1 -23.5t-19 -12.5q8 -12 3 -23.5t-20 -13.5q2 -10 -3.5 -21t-14.5 -15q-9 -13 -24 -13t-24 13
q1 10 7.5 26t14.5 24q-14 16 -7.5 32t28.5 18q-19 18 -13 33.5t32 16.5q-15 15 -10 30.5t25 20.5q1 10 4 26.5t5 26.5q-26 12 -25 29t29 25zM306 628q4 10 13 10t13 -10q8 -7 14 -21.5t5 -24.5q4 -8 9.5 -22.5t9.5 -23.5q12 -14 6.5 -25.5t-24.5 -10.5q-3 -7 -8 -18.5
t-9 -18.5q7 -12 1 -23.5t-19 -12.5q13 -15 7.5 -26t-25.5 -10q11 -13 5.5 -24.5t-22.5 -12.5q10 -14 4.5 -25t-22.5 -11q-9 -13 -24 -13t-24 13q4 10 12 28t13 28q-13 16 -6 32t28 18q-17 16 -11 31t29 17q-13 14 -9.5 28t22.5 19q-1 10 2 26t7 25q-2 11 -1 29.5t4 28.5z
" />
    <glyph glyph-name="emdash" unicode="&#x2013;" horiz-adv-x="662" 
d="M634 312q13 -12 13 -33t-13 -33q-8 -17 -21 -17t-20 17q-7 -8 -20 -8t-21 8q-8 -10 -20 -10t-20 10q-8 -1 -21 -1t-20 1h-41q-8 -7 -21 -7t-20 7q-7 -20 -20 -20t-21 20q-8 -12 -20 -12t-20 12q-8 -10 -21 -10t-20 10q-7 -17 -20 -17t-21 17q-8 -5 -21 -5t-20 5
q-7 -4 -20 -4t-21 4q-8 -13 -20 -13t-20 13h-41q-7 -16 -20 -16t-21 16q-19 12 -19 33t19 33q8 7 21 7t20 -7q7 19 20 19t21 -19q8 20 20 20t20 -20q8 7 21 7t20 -7q7 20 20 20t21 -20q8 6 21 6t20 -6q7 6 20 6t21 -6q8 16 20 16t20 -16q8 12 21 12t20 -12q7 8 20 8t21 -8
q8 20 21 20t20 -20q7 17 20 17t21 -17q8 15 20 15t20 -15q8 20 21 20t20 -20q7 2 20 2t21 -2z" />
    <glyph glyph-name="endash" unicode="&#x2014;" horiz-adv-x="878" 
d="M852 312q6 -12 6 -33t-6 -33q-8 -5 -21 -5t-21 5q-8 -3 -21 -3t-20 3q-8 -12 -21 -12t-21 12q-7 -1 -20 -1t-21 1q-8 -6 -21 -6t-21 6q-8 -3 -21 -3t-21 3q-8 -1 -21 -1t-20 1h-42q-7 -3 -20 -3t-21 3q-8 -4 -21 -4t-21 4q-8 -6 -21 -6t-21 6q-8 -11 -21 -11t-20 11
q-8 -20 -21 -20t-21 20q-7 -4 -20 -4t-21 4q-8 -8 -21 -8t-21 8q-8 -20 -21 -20t-21 20q-8 -6 -21 -6t-20 6q-8 -9 -21 -9t-21 9q-7 -20 -20 -20t-21 20q-8 -7 -21 -7t-21 7q-21 12 -21 33t21 33q8 2 21 2t21 -2h41q8 11 21 11t21 -11q7 4 20 4t21 -4q8 2 21 2t21 -2
q8 14 21 14t21 -14q8 6 21 6t20 -6q8 9 21 9t21 -9q7 7 20 7t21 -7q8 18 21 18t21 -18q8 1 21 1t21 -1q8 14 21 14t20 -14q8 5 21 5t21 -5q7 1 20 1t21 -1q8 14 21 14t21 -14q8 2 21 2t21 -2q8 18 21 18t20 -18q8 3 21 3t21 -3q7 14 20 14t21 -14q8 16 21 16t21 -16z" />
    <glyph glyph-name="tilde" unicode="&#x2dc;" horiz-adv-x="468" 
d="M232 458q-9 -12 -17.5 -9.5t-10.5 17.5q-9 21 2.5 36.5t33.5 14.5q1 30 17.5 36t36.5 -17q8 4 18.5 -0.5t14.5 -12.5q7 -1 16 -8.5t12 -14.5q8 4 17.5 0t12.5 -12q-1 17 10.5 24.5t26.5 -0.5q8 10 15.5 7.5t8.5 -15.5q19 -23 10 -38.5t-39 -11.5q-5 -19 -22 -26.5
t-33 2.5q-30 -13 -60.5 2.5t-37.5 47.5q-2 -10 -12 -17t-20 -5z" />
    <glyph glyph-name="trademark" unicode="&#x2122;" horiz-adv-x="714" 
d="M202 330q8 4 10 -4q4 -2 4 -6t-4 -6q-8 -20 -21 -20t-20 20q-8 -14 -21 -14t-21 14q-7 -15 -20 -15t-21 15q-6 6 0 12q4 8 12 2q-3 15 6.5 22.5t23.5 1.5q-11 8 -11 21t11 20q-13 7 -13 20t13 21q-6 8 -6 21t6 20q-10 7 -10 20t10 21q-17 8 -17 21t17 20v41
q-13 -1 -34.5 -1.5t-35.5 -0.5q0 -5 -4.5 -9.5t-9.5 -4.5q0 -16 -4 -32q-7 -10 -14 0q-25 14 -25.5 37t23.5 37q18 2 36 -2q16 28 44 28t44 -28q12 28 28.5 42t34.5 14t35.5 -13.5t29.5 -40.5q12 -14 11.5 -36t-13.5 -36q-7 -12 -14 0q-11 4 -12.5 12.5t8.5 15.5l-16 20
q-11 -20 -28.5 -22.5t-31.5 12.5q6 -18 -8 -29q20 -8 20 -21t-20 -21q4 -7 4 -20t-4 -21q19 -8 19 -21t-19 -20q12 -8 12 -21t-12 -21q8 -7 8 -20t-8 -21q10 2 19 -6t9 -18zM488 310q-4 -8 -8 0q-13 2 -18 14t1 23q-11 4 -16 15.5t-1 21.5q-8 4 -13.5 15.5t-3.5 21.5
q-7 5 -12 17t-4 21q-13 2 -18 14t1 23q-8 4 -13 16t-4 21q-7 0 -10 1q-3 -4 -7 -7q1 -8 1 -21.5t-1 -21.5q8 -8 8 -21t-8 -21q1 -8 1 -21.5t-1 -21.5q4 -8 4 -21.5t-4 -21.5q17 11 27.5 3.5t6.5 -27.5q3 3 6 0v-14q-10 -6 -26 -6t-26 6q-10 -20 -26 -20t-26 20q-7 7 0 14
q6 2 12 0q-4 15 5 22.5t23 1.5q-8 8 -8 20t8 20q-6 20 0 40q-10 8 -10 20t10 20q-4 20 0 40q-20 8 -20 20t20 20q-6 20 0 40q-13 -10 -24 -5t-12 21q-2 -2 -4 0q-14 7 0 14q3 2 6 0q8 12 17 11t13 -15q8 20 23 21t25 -19q23 2 29.5 -11t-10.5 -30q18 -1 24.5 -13.5
t-4.5 -27.5q23 2 29 -11t-10 -30q20 -1 25.5 -13.5t-6.5 -27.5q7 -6 13.5 -18.5t6.5 -22.5q9 0 19 -4q9 9 23 10q-1 11 6 26t17 21q-8 17 1 34.5t28 20.5q0 11 8 26.5t17 22.5q-14 14 -10 29t24 19q8 8 21 8t21 -8q8 9 21 9t21 -9q10 -7 0 -14h-6q-2 -11 -13.5 -18.5
t-22.5 -5.5q3 -9 3 -23t-3 -23q4 -9 4 -23.5t-4 -23.5q19 -8 19 -23t-19 -23q3 -9 3 -23.5t-3 -23.5q14 -9 14 -23t-14 -23q10 0 19 -7.5t11 -16.5q3 4 6 3t4 -5q14 -7 0 -14q-8 -15 -21 -15t-20 15q-8 -11 -21 -11t-21 11q-7 -8 -20 -8t-21 8q-4 7 0 14q2 4 5.5 5t6.5 -3
q-2 13 7 19.5t21 2.5q-3 8 -3 21.5t3 21.5q-1 8 -1 21.5t1 21.5q-3 8 -3 22t3 22q-21 8 -21 21.5t21 21.5q-8 4 -14 11q-2 -4 -3 -5q-2 -7 -7.5 -18.5t-10.5 -18.5q-1 -8 -6.5 -19.5t-10.5 -17.5q14 -15 8 -26t-26 -10q3 -10 -2 -21.5t-15 -15.5q7 -12 1 -23.5t-19 -13.5
q2 -10 -3 -21.5t-14 -15.5z" />
    <glyph glyph-name="oe" unicode="&#x153;" horiz-adv-x="646" 
d="M382 326q14 -8 18.5 -18t1.5 -19q12 0 22 -12q4 21 18.5 24t27.5 -15q-1 22 15.5 32.5t35.5 2.5q-27 21 -22 43.5t39 29.5q-9 8 -12.5 25t1.5 28q-18 -13 -30.5 -6.5t-12.5 26.5q-2 -17 -12.5 -19t-22.5 12q0 -11 -9 -21t-20 -11q16 -19 9 -33.5t-32 -13.5q-1 -11 -6 -28
t-9 -27zM28 154q-12 10 -11.5 25t13.5 24q-2 10 -1 25.5t6 24.5q-20 13 -17.5 28t25.5 20q-12 13 -8 27t21 18q2 8 8 21t10 21q-6 14 1.5 25.5t22.5 11.5q-2 13 8 23t23 8q2 12 14 19.5t24 4.5q1 26 15.5 30.5t30.5 -15.5q8 24 25 25.5t30 -20.5q14 10 30 4.5t20 -22.5
q14 -2 24 -12t14 -23q9 21 33 18q-5 25 8.5 33.5t33.5 -7.5q9 5 25 8t26 1q14 16 30 13t23 -23q15 7 26 -1.5t10 -24.5q13 -3 19.5 -16t0.5 -26q22 -8 24 -24.5t-17 -29.5q20 -19 16 -45t-28 -39q-7 -10 -22.5 -15t-27.5 0q-8 -11 -24 -15t-28 2q-10 -5 -27 -8.5t-27 -2.5
q-8 -19 -23 -22.5t-28 9.5q4 -8 1.5 -17t-10.5 -13q20 -9 21.5 -26.5t-16.5 -29.5q23 -3 28.5 -18.5t-10.5 -32.5q22 6 32 -6t1 -32q16 14 32 9t20 -26q5 22 22.5 27.5t34.5 -10.5q-13 27 0 41.5t41 4.5q-9 14 -4 32.5t20 26.5q-10 6 0 12q8 7 18.5 5.5t15.5 -9.5
q4 -11 1 -28.5t-10 -26.5q19 -21 12 -36t-36 -13q2 -16 -9.5 -28.5t-27.5 -11.5q-6 -12 -21.5 -20t-28.5 -6q-10 -4 -28.5 -7t-29.5 -3q-13 -16 -28.5 -13t-22.5 22q-13 -3 -26 5.5t-16 21.5q-21 -2 -29 15q-8 -18 -35 -7q-1 -16 -14 -23.5t-27 -0.5q-8 -8 -23 -12t-26 -3
q-11 -10 -29 -11.5t-30 6.5q-13 -14 -28.5 -11t-22.5 21q-12 -2 -23 6t-12 20q-26 0 -32.5 15t11.5 34q-22 13 -24.5 38t17.5 41zM104 202q18 -10 18.5 -29t-16.5 -31q14 -9 17 -27t-7 -31q16 -1 24.5 -14.5t1.5 -28.5q19 21 35 15t17 -34q4 19 17.5 22.5t26.5 -10.5
q4 8 14 19t18 15q2 9 8 24t11 23q-21 14 -18 30.5t29 20.5q-23 20 -21.5 50.5t27.5 47.5q-11 10 -12.5 28.5t8.5 29.5q-26 5 -30 22t19 32q-5 8 -11 22.5t-9 23.5q-13 -2 -22 7.5t-7 22.5q-20 4 -40 10q-3 -12 -14.5 -17t-21.5 1q3 -13 -5 -25.5t-21 -14.5q12 -15 6.5 -32
t-23.5 -22q15 -14 12 -32t-23 -26q2 -10 0 -26.5t-6 -26.5q8 -7 7.5 -19.5t-9.5 -19.5z" />
    <glyph glyph-name="exclamdown" unicode="&#xa1;" horiz-adv-x="200" 
d="M172 436q-2 -22 -21 -39.5t-41 -16.5q-32 -8 -48 11t-4 49q-2 24 16 42t42 16q18 -4 35.5 -23.5t20.5 -38.5zM94 332q6 5 18 11.5t20 8.5q18 -9 17.5 -22.5t-19.5 -20.5q8 -8 7.5 -21.5t-8.5 -21.5q13 -8 12 -21t-14 -21q7 -8 6 -22t-8 -21q17 -8 16 -21.5t-17 -21.5
q0 -8 -0.5 -21.5t-1.5 -21.5q10 -8 9 -21.5t-11 -20.5q14 -9 13.5 -22t-15.5 -21q16 -8 15.5 -22t-16.5 -21q13 -9 12 -22t-14 -21q10 -8 9.5 -21t-11.5 -21q16 -8 15.5 -22t-16.5 -21q10 -8 9.5 -21.5t-11.5 -21.5q2 -17 -8.5 -24.5t-26.5 0.5q-4 -9 -15 -16.5t-21 -7.5
q-4 -9 -14.5 -16.5t-20.5 -7.5q-41 27 -35 58t54 41q-14 13 -11.5 28.5t20.5 22.5q0 10 2 24.5t4.5 29.5t5 29t5.5 24q-25 14 -23 31.5t31 23.5q-5 11 -2.5 29t10.5 28q-5 12 -6 27.5t1 32.5t7 32t13 25q-18 14 -16 32.5t23 27.5q-15 14 -12.5 33t19.5 29z" />
    <glyph glyph-name="cent" unicode="&#xa2;" horiz-adv-x="362" 
d="M216 86q5 -10 4.5 -25.5t-5.5 -25.5q1 -10 1 -25.5t-2 -25.5q-5 -10 -14 -10t-14 10q-22 9 -22 24t22 24q-11 8 -13 20t6 22q-6 -3 -13 4q-10 -1 -27.5 2.5t-27.5 8.5q-17 -10 -29.5 -1.5t-10.5 27.5q-13 2 -21.5 15t-5.5 26q-20 5 -25 21.5t10 31.5q-31 10 -33 30.5
t28 34.5q-19 14 -17 33t22 30q-6 13 -1.5 32t16.5 28q-11 17 -3.5 34t27.5 21q4 10 14 25t17 23q5 9 17 20.5t22 16.5q-3 23 7.5 31t26.5 0q-9 8 -6.5 18.5t16.5 16.5q-1 7 -1 20t1 21q4 3 13 3t13 -3q28 -13 30.5 -33.5t-19.5 -35.5q10 2 17 -7q30 32 60.5 23t37.5 -53
q17 -12 16 -30t-20 -28q4 -11 3 -29.5t-7 -28.5q-10 -14 -29 -14t-29 14q-7 10 -7 29t7 29q-10 9 -24.5 26t-21.5 28q-4 -2 -8 0q10 -8 10 -22t-10 -22q21 -8 21 -22t-21 -22q16 -8 16 -22.5t-16 -22.5q11 -8 11 -22t-11 -22q6 -8 6 -22t-6 -22q12 -8 12 -22t-12 -22
q9 -8 9 -22.5t-9 -22.5v-44q12 -6 15 -16t-3 -18q18 11 35 13q-6 17 4 29.5t28 10.5q-15 15 -10 31t25 20q5 4 12.5 3.5t11.5 -5.5q4 -4 4 -10t-4 -10q0 -13 -5 -32.5t-11 -30.5q-2 -14 -15 -29.5t-26 -20.5q1 -30 -17.5 -39t-41.5 10zM174 140q2 3 5 3t5 -3q-2 8 -2 21.5
t2 21.5q-10 8 -10 21t10 21q-10 8 -10 21.5t10 21.5q-2 8 -2 21.5t2 21.5v42q-10 8 -10 21.5t10 21.5q-20 8 -20 21.5t20 21.5q-14 8 -14 21t14 21q-10 5 -14 9q-10 -2 -22 4q8 -16 0.5 -31t-24.5 -18q21 -17 16.5 -35t-29.5 -24q29 -14 27 -33.5t-33 -27.5q11 -11 11 -28
t-12 -27q14 -11 15.5 -31.5t-10.5 -33.5q7 -7 13 -21t7 -24q12 4 26 -2.5t19 -17.5z" />
    <glyph glyph-name="sterling" unicode="&#xa3;" horiz-adv-x="660" 
d="M272 444q5 -8 12 -22t10 -23q6 -7 13 -21t9 -24q8 16 20 16t20 -16q8 8 21 8t20 -8q7 3 20 3t20 -3q7 16 20 16t21 -16q20 4 40 0q8 -6 8 -17t-8 -17q-9 -5 -23 -5t-23 5q-9 -6 -23 -6t-23 6q-9 -16 -23 -16t-23 16q-10 -6 -28 -4q28 -9 33 -33t-19 -49q8 -10 7 -26.5
t-12 -25.5q-1 -10 -6 -26.5t-10 -25.5q3 -14 -5 -27t-22 -15q20 4 47 2.5t54.5 -6.5t53.5 -13.5t43 -18.5q14 4 30 6q-14 30 0 45.5t45 3.5q-17 16 -11 30.5t28 16.5q12 10 21.5 6t8.5 -20q-2 -9 -8 -23.5t-12 -21.5q2 -11 -4.5 -25t-15.5 -20q13 -26 0.5 -42.5t-40.5 -11.5
q-3 -30 -21 -35.5t-37 17.5q-22 -24 -53 -19t-45 35q-9 -1 -22.5 3t-20.5 9q-11 -9 -24 -5.5t-18 17.5q-12 -13 -25.5 -9t-17.5 21q5 -28 -10.5 -39.5t-40.5 3.5q-12 -18 -38 -24t-45 4q-16 -28 -36 -26t-28 34q-8 2 -20 8.5t-18 13.5q-20 1 -24.5 12.5t10.5 25.5q-4 4 2 4
q0 10 7 24.5t15 20.5q-4 25 11 36.5t38 -1.5q5 26 23 30t34 -16q14 3 35 -2t31 -14q14 4 31 -0.5t29 -14.5q-14 19 -5 36.5t37 20.5q-15 4 -18 17t8 24q-34 -4 -44 15.5t12 45.5q-13 5 -22.5 21.5t-7.5 30.5q-7 -14 -20 -14.5t-21 12.5q-7 -9 -20 -9.5t-21 8.5
q-7 -19 -20 -20t-21 18q-7 -1 -20 -1h-21q-4 8 -5 20t3 20q10 10 25 10t24 -11q10 16 25 15.5t23 -17.5q9 4 24.5 3.5t24.5 -4.5q-9 6 -15.5 20t-4.5 24q-4 10 -10 28t-9 29q-23 7 -25 23.5t18 29.5q-2 10 1 27t8 27q-4 14 4 29t21 20q6 8 18 20.5t20 19.5q3 16 17.5 24
t29.5 3q8 8 24.5 11t26.5 -1q10 3 25.5 1t24.5 -7q14 9 29 2.5t18 -22.5q11 -2 21.5 -13t12.5 -21q13 -6 17 -21t-4 -27q11 -27 -3.5 -54.5t-42.5 -33.5q-10 6 -20 14q-11 12 -8.5 28t16.5 24q-13 9 -20.5 29.5t-4.5 35.5q-21 -15 -40 -6t-21 35q-5 -17 -21.5 -21.5
t-29.5 6.5q12 -22 2 -34.5t-34 -4.5q16 -13 13 -29t-22 -23q12 -16 18 -47t2 -51zM198 14q-1 14 4 25q-9 7 -12 22q-18 -18 -45 -15.5t-41 22.5q-1 -16 -12.5 -25t-26.5 -6q7 -5 11.5 -12t3.5 -15q13 16 30 14t25 -21q9 17 29 20.5t34 -9.5z" />
    <glyph glyph-name="yen" unicode="&#xa5;" horiz-adv-x="620" 
d="M526 152q-8 -17 -21 -17t-20 17q-7 -19 -20 -19t-21 19h-41q-7 -4 -20 -4t-21 4q6 -16 0 -32q26 -7 28.5 -24t-19.5 -31q17 11 26.5 3t4.5 -27q10 2 28 0.5t28 -5.5q8 8 20 8t20 -8q15 -8 15 -19t-15 -19q-17 -15 -43 -12.5t-40 20.5q-14 -17 -36.5 -16.5t-36.5 18.5
q-10 -3 -27 -3.5t-27 2.5q-8 -25 -25.5 -26t-29.5 22q-7 -25 -25 -27.5t-32 20.5q-5 8 -5 19t5 19q6 6 12 0q16 4 43 7.5t43 4.5q1 14 7.5 34t14.5 30q-5 8 -5 21t5 21q-9 -4 -25 -4t-25 4q-9 -22 -25 -22t-25 22q-9 -3 -25 -3t-25 3q-4 8 -4 21t4 21q9 5 25 5t25 -5
q9 11 25 11t25 -11q8 16 20 19t22 -7q-5 13 -3 27.5t11 24.5q-9 -6 -25 -6t-25 6q-9 -20 -25 -20t-25 20q-9 -20 -25 -20t-25 20q-17 8 -17 22t17 22q8 4 21 4t21 -4q8 2 21 2t21 -2q13 6 30 4q-21 12 -13 35q-8 5 -15.5 17t-9.5 22q-10 3 -18 15t-6 23q-22 -4 -30 8t5 31
q-22 -4 -30 8.5t5 30.5q-8 10 -19 28t-18 29q-19 -12 -36 -2.5t-19 31.5q-8 -20 -20 -20t-20 20q-10 8 -10 20t10 20q14 2 38 -0.5t37 -7.5q13 18 33 17t30 -21q10 18 30 19t33 -15q13 4 34 7t35 1q19 -8 19 -20t-19 -20q-9 -7 -23 -7t-23 7q-12 -2 -24 2q1 -10 -1 -28
t-5 -28q11 -3 17.5 -14.5t3.5 -22.5q8 -5 15 -16t7 -20q19 1 25 -10.5t-4 -26.5q22 3 28 -8.5t-7 -28.5q19 2 26 -9t-4 -27q14 0 20 -8q6 9 22 9q3 8 10 19.5t11 18.5q-3 10 3.5 22t16.5 16q-1 10 6 22t15 16q1 9 7.5 21t13.5 17q-8 17 0 37t26 27q-10 1 -23 8.5t-19 15.5
q-10 -4 -28 -4t-28 4q-5 8 -5 19t5 19q11 14 27.5 13t24.5 -17q11 7 30 6.5t30 -8.5q10 26 29 27t31 -25q9 12 25.5 13t26.5 -9q10 -6 10 -17t-10 -17q-11 -9 -22 0q2 -24 -12 -32t-34 5q-4 -11 -15 -28.5t-19 -26.5q14 -17 7 -30t-29 -11q-3 -8 -10 -20.5t-12 -20.5
q-2 -10 -8.5 -23t-13.5 -19q2 -10 -5 -23t-17 -18q-5 -14 -16 -32q10 11 22 8.5t20 -17.5q9 4 24 4t24 -4q9 2 24 2t24 -2q9 -8 9 -22t-9 -22q-8 -12 -21 -12t-20 12q-7 -6 -20 -6t-21 6q-8 -5 -21 -5t-20 5q-7 -18 -20 -18t-21 18q4 -12 4 -32t-4 -32q8 11 21 11t20 -11
q7 18 20 18t21 -18q8 17 21 17t20 -17q7 11 20 11t21 -11q20 -8 20 -21t-20 -21z" />
    <glyph glyph-name="brokenbar" unicode="&#xa6;" horiz-adv-x="100" 
d="M30 632q12 10 33 10t33 -10q12 -8 12 -21t-12 -21q20 -8 20 -21t-20 -20q20 -8 20 -21t-20 -21q2 -21 0 -42q20 -8 20 -21t-20 -21q15 -7 15 -20t-15 -21q1 -8 1 -21t-1 -21q16 -8 16 -21t-16 -21q4 -8 4 -21t-4 -20q12 -8 12 -21t-12 -21q20 -8 20 -21t-20 -21
q20 -8 20 -21t-20 -21q20 -7 20 -20t-20 -21q7 -8 7 -21t-7 -21q15 -8 15 -21t-15 -21q18 -8 18 -21t-18 -20q3 -8 3 -21t-3 -21q14 -8 14 -21t-14 -21q15 -8 15 -21t-15 -21q2 -7 2 -20t-2 -21q6 -8 6 -21t-6 -21q-12 -1 -33 -1t-33 1q-8 8 -8 21t8 21q-7 8 -7 21t7 20
q-6 21 0 42q-14 8 -14 21t14 21q-16 8 -16 21t16 21q-16 7 -16 20t16 21q-16 8 -16 21t16 21q-16 8 -16 21t16 21q-2 8 -2 21t2 20q-16 8 -16 21t16 21q-21 8 -21 21t21 21q-21 8 -21 21t21 21q-16 7 -16 20t16 21q-1 8 -1 21t1 21q-3 8 -3 21t3 21q-14 8 -14 21t14 20
q-15 8 -15 21t15 21q-4 21 0 42q-2 21 0 42q-16 7 -16 20t16 21q-19 8 -19 21t19 21z" />
    <glyph glyph-name="section" unicode="&#xa7;" horiz-adv-x="430" 
d="M40 307q-9 25 4 42.5t38 15.5q-30 5 -42 30t4 53q-24 14 -22 30t29 23q-14 17 -8 31t28 15q-7 17 2.5 29t28.5 9q-4 23 8.5 32t32.5 -3q0 26 15 32t32 -14q9 10 25.5 12t26.5 -6q13 16 30.5 13.5t26.5 -20.5q11 -3 29 -9t28 -10q24 -14 35 -32.5t9.5 -36.5t-15 -34.5
t-39.5 -26.5q-5 -8 -13.5 -7.5t-12.5 9.5q-16 12 -18 34.5t12 37.5q-20 -12 -36 -2.5t-15 32.5q-13 -16 -31 -13t-26 23q-8 -16 -24.5 -19.5t-29.5 9.5q-1 -14 -13.5 -23t-25.5 -7q19 -20 13 -35.5t-34 -14.5q5 -8 9.5 -21.5t4.5 -22.5q13 -1 26 -12t15 -24q19 11 40.5 2.5
t28.5 -30.5q10 0 26.5 -5t25.5 -10q14 7 29.5 0.5t20.5 -20.5q20 13 33.5 4t9.5 -32q13 -1 22.5 -13t7.5 -26q7 -9 10.5 -26t0.5 -28q7 -14 1.5 -32t-18.5 -26q8 -25 -3.5 -39.5t-35.5 -10.5q12 -4 22 -15.5t11 -23.5q5 -11 8.5 -28.5t4.5 -28.5q17 -12 14 -26t-23 -18
q13 -18 5 -31.5t-30 -11.5q-5 -9 -16 -21.5t-19 -18.5q7 -27 -6.5 -37t-37.5 4q-1 -20 -16 -27t-32 5q-8 -8 -23.5 -10.5t-25.5 2.5q-18 -26 -41 -23t-33 33q-23 -18 -43.5 -8.5t-22.5 38.5q-7 9 -5.5 22.5t8.5 21.5q-6 9 -4.5 22.5t8.5 21.5q-13 9 -12 22.5t15 21.5
q4 5 12 5t12 -5q6 -23 0 -46q24 1 30.5 -13.5t-9.5 -32.5q14 7 29 0t19 -23q12 13 28.5 10.5t24.5 -17.5q10 8 28.5 10t30.5 -3q-2 25 11 31.5t32 -10.5q2 8 10 19t15 16q1 9 4 24.5t5 24.5q-14 4 -19.5 17.5t1.5 25.5q-20 -12 -34.5 -2.5t-11.5 32.5q-10 4 -28 10.5
t-29 10.5q-17 -14 -34 -8.5t-21 26.5q-8 -2 -18 2t-14 10q-11 2 -27.5 9.5t-25.5 14.5q-7 5 -19 15.5t-18 17.5q-15 6 -19.5 22t5.5 29q-11 16 -5.5 36.5t23.5 28.5zM344 208q-4 2 -4 6t4 6q-16 5 -21 20.5t5 29.5q-23 -13 -40.5 -1.5t-15.5 37.5q-11 -12 -23.5 -8t-15.5 20
q-10 -4 -22.5 0.5t-17.5 12.5q-10 -5 -22 -1t-17 13q-8 1 -20.5 5t-19.5 8l-12 -16q8 -17 0 -39.5t-24 -32.5q5 -5 10.5 -16.5t7.5 -18.5q10 -2 24 -11t21 -17q11 -3 29 -10t29 -13q27 25 57 16t40 -44q7 5 12 2q-10 20 0 36t36 16z" />
    <glyph glyph-name="dieresis" unicode="&#xa8;" horiz-adv-x="270" 
d="M114 584q-5 -12 -19 -27t-25 -21q-15 2 -28.5 15.5t-15.5 28.5q-14 29 -0.5 44.5t44.5 5.5q8 -8 22 -22.5t22 -23.5zM250 580q10 -29 -5 -43t-43 -1q-20 -4 -34 10t-10 34q-11 27 2.5 42.5t41.5 7.5q18 -1 33 -16.5t15 -33.5z" />
    <glyph glyph-name="copyright" unicode="&#xa9;" horiz-adv-x="670" 
d="M338 0q-12 -20 -30 -19t-28 23q-10 1 -26.5 5t-25.5 8q-12 -4 -26.5 2.5t-19.5 17.5q-11 0 -24 8.5t-17 18.5q-14 -2 -25.5 8.5t-9.5 24.5q-12 1 -21 13t-8 24q-17 2 -24 15t1 27q-14 4 -19 18t2 26q-4 8 -7 23t-3 24q-15 8 -16 22.5t13 24.5q0 9 1 24t2 24q-7 10 -4 25
t14 22q-11 13 -6 27t23 17q-6 13 1 26.5t22 15.5q4 8 13 19.5t16 17.5q4 8 15.5 18t19.5 14q1 14 14 23t27 4q5 12 19.5 18.5t26.5 1.5q3 29 19.5 32.5t32.5 -19.5q9 26 27 27.5t31 -23.5q13 26 31 24.5t27 -28.5q14 14 30.5 10t22.5 -23q16 13 30.5 7t15.5 -27
q14 5 26.5 -3.5t14.5 -23.5q7 -6 17.5 -16t17.5 -16q10 -4 18.5 -15t9.5 -22q8 -6 15 -19t7 -23q23 -1 28 -14.5t-12 -29.5q20 -5 23.5 -19.5t-13.5 -27.5q15 -8 16 -23t-13 -25q20 -10 19.5 -25t-22.5 -23q4 -10 0.5 -24t-10.5 -22q15 -15 10 -29t-26 -16q15 -18 8 -30.5
t-30 -10.5q11 -19 2 -30.5t-30 -7.5q-3 -10 -14 -20t-21 -12q-4 -10 -17 -18.5t-23 -8.5q-2 -20 -16.5 -26.5t-30.5 6.5q-5 -19 -21.5 -23.5t-30.5 10.5q-10 -18 -28.5 -19t-30.5 15zM338 594q-10 -6 -27.5 -7t-28.5 3q-6 -16 -22 -20t-29 6q-5 -10 -19 -16t-25 -5
q-5 -10 -17 -18.5t-22 -10.5q-3 -9 -13 -20t-19 -15q-2 -9 -10 -21.5t-15 -18.5q4 -11 -1.5 -25t-16.5 -19q17 -13 13 -27t-24 -19q16 -11 15 -25t-19 -22q22 -8 23.5 -23t-19.5 -25q9 -7 12.5 -21.5t-1.5 -24.5q12 -4 17.5 -18t0.5 -25q13 -2 21 -14.5t4 -25.5q8 -5 18 -16
t14 -19q17 8 29 -1t10 -28q17 14 30.5 7.5t13.5 -28.5q11 4 27 -0.5t24 -13.5q13 26 30.5 25t25.5 -29q9 27 26.5 28.5t30.5 -24.5q5 22 21 26t30 -13q7 8 20.5 15t24.5 7q7 6 19 15.5t19 13.5q-1 12 9 23t22 12q4 8 12 20.5t13 19.5q1 9 7 23t11 21q1 9 4 23.5t7 22.5
q-17 11 -16 25t20 22q-22 7 -23.5 21.5t19.5 25.5q-4 8 -7.5 22.5t-3.5 23.5q-4 8 -9.5 22t-8.5 22q-7 6 -15 18.5t-10 21.5q-9 4 -18.5 15t-12.5 20q-16 -6 -27.5 3t-10.5 26q-13 -6 -27 1t-18 21q-14 -16 -30 -11.5t-21 24.5q-13 -28 -30.5 -26.5t-26.5 30.5zM444 394
q-4 6 -4 16t4 16q-10 2 -21.5 11t-13.5 20q-14 -6 -36 -2t-33 15q-9 -11 -26.5 -15t-30.5 3q5 -22 -7.5 -32t-33.5 0q16 -21 8 -36t-34 -12q14 -14 10.5 -32t-20.5 -26q7 -4 7.5 -12.5t-5.5 -13.5q15 -6 20 -23t-4 -30q17 0 27 -13.5t5 -30.5q14 2 27 -7.5t16 -22.5
q13 11 28.5 7.5t22.5 -18.5q8 29 27 31t33 -24q8 11 25 18.5t31 4.5q4 0 4 -4q2 -5 -0.5 -12t-7.5 -10q-4 -22 -21 -28.5t-34 8.5q-7 -28 -25.5 -31t-33.5 23q-14 -15 -33 -12.5t-28 20.5q-19 -20 -35.5 -13.5t-15.5 34.5q-16 -4 -28 6.5t-11 27.5q-10 5 -18.5 18.5
t-8.5 24.5q-8 8 -12 24t-2 26q-5 4 -5.5 11t3.5 11q-3 10 -0.5 26.5t7.5 25.5q-2 11 3.5 25.5t15.5 20.5q-4 15 5.5 27t25.5 11q-1 19 11 27t29 0q5 15 20.5 20t28.5 -5q7 20 20 21t22 -19q14 28 33.5 26.5t28.5 -32.5q18 20 38.5 15t27.5 -31q-1 -14 -4 -37t-6 -37
q-3 -7 -8 -7t-8 7z" />
    <glyph glyph-name="ordfeminine" unicode="&#xaa;" horiz-adv-x="300" 
d="M244 494q10 -19 8.5 -49t-14.5 -47q22 -2 25 -14.5t-15 -25.5l20 4q4 6 10 4q7 -1 9.5 -6t-1.5 -10q-8 -31 -35 -41t-53 9q-25 12 -23.5 28.5t27.5 24.5q-7 10 -5.5 24.5t9.5 22.5q-1 2 -3 8q-8 -5 -23 -4q3 -13 -5 -26t-21 -16q7 -20 -4.5 -32.5t-31.5 -7.5
q0 -26 -15 -32t-33 12q-32 -2 -43 19t7 47q-14 10 -12 23t18 18q-10 14 -5 29.5t22 20.5q-5 15 3.5 32t23.5 21q-16 25 -6 39.5t39 7.5q0 13 11.5 24t25.5 10q4 13 17 17t23 -4q4 7 11 6.5t11 -8.5q7 11 20 12.5t22 -8.5q28 -28 24 -69t-38 -63zM200 602q-16 -12 -35 -16
q-2 -13 -14.5 -26.5t-25.5 -17.5q17 -24 7 -43t-40 -18q6 -14 1.5 -35.5t-15.5 -31.5q14 -2 22 -11.5t7 -21.5q5 11 17 16t25 0q-12 22 -1 41t36 20q-20 21 -12 41.5t36 24.5q-18 11 -15.5 23.5t23.5 16.5q-8 5 -13 17t-3 21zM250 278q14 -9 14 -23t-14 -23q-8 -18 -20 -18
t-20 18q-8 -16 -20 -16t-20 16q-8 -12 -20 -12t-20 12q-8 -14 -20 -14t-20 14q-20 -4 -40 0q-20 9 -20 23t20 23q8 14 20 14t20 -14q8 17 20 17t20 -17q8 12 20 12t20 -12q8 18 20 18t20 -18q8 18 20 18t20 -18z" />
    <glyph glyph-name="guillemotleft" unicode="&#xab;" horiz-adv-x="466" 
d="M26 202q-4 9 -4 23t4 23q-4 9 -4 23t4 23q-3 19 8.5 27t27.5 0q1 13 12.5 22t24.5 5q-3 17 8 26t28 2q5 8 16.5 16.5t20.5 10.5q2 11 13.5 19.5t22.5 7.5q13 -8 13 -22.5t-13 -22.5q10 -8 10 -22.5t-10 -22.5q5 -24 -8.5 -33.5t-34.5 2.5q-3 -13 -17 -22t-27 -8
q1 -12 -5 -21t-16 -12q19 -9 21 -29q20 12 33.5 2.5t8.5 -32.5q22 13 35.5 4t7.5 -35q5 -9 5 -23.5t-5 -23.5q6 -9 6 -23.5t-6 -23.5q-12 -2 -23 6.5t-13 21.5q-16 -7 -27 2t-9 26q-13 -3 -24 5.5t-12 22.5q-21 -13 -32.5 -4t-3.5 32q-17 -8 -28.5 1t-7.5 27zM254 204
q-9 8 -9 22.5t9 22.5q-1 8 -1 22.5t1 22.5q-1 16 10.5 24.5t26.5 2.5q0 14 11.5 22.5t25.5 4.5q-2 16 9 25t27 3q2 13 13 21.5t24 5.5q3 11 15 19t22 8q16 -8 16 -22t-16 -22q5 -8 5 -22t-5 -22q-3 -8 -13 -15t-19 -8q3 -17 -7 -24.5t-26 0.5q1 -14 -9 -21.5t-23 -1.5
q-5 -8 -15 -15t-18 -9q10 -2 23.5 -11t18.5 -19q22 14 35 4.5t7 -34.5q11 -1 24.5 -10.5t17.5 -19.5q16 -9 16 -23.5t-16 -23.5q21 -9 21 -23.5t-21 -23.5q-18 -10 -29 -1t-7 29q-14 -4 -25.5 5t-10.5 23q-14 -4 -25 5t-11 23q-8 4 -19.5 12.5t-16.5 15.5q-12 -2 -23 7
t-13 21z" />
    <glyph glyph-name="logicalnot" unicode="&#xac;" horiz-adv-x="680" 
d="M600 0q-4 8 -4 22t4 22q-9 8 -9 22t9 22q-8 8 -8 22t8 22q-18 8 -18 22t18 22q-13 8 -13.5 20t9.5 21q-8 -4 -19 -3t-18 6q-7 -14 -20 -14t-21 14q-8 -2 -21 -2t-20 2q-8 -3 -21 -3t-21 3q-7 -16 -20 -16t-21 16q-8 -20 -21 -20t-20 20q-7 -7 -20 -7t-21 7q-8 -8 -21 -8
t-20 8q-7 -2 -20 -2t-21 2q-8 -2 -21 -2t-20 2q-8 -4 -21 -4t-21 4q-7 -3 -20 -3t-21 3q-8 -17 -21 -17t-20 17q-7 -20 -20 -20t-21 20q-21 9 -21 24t21 24q8 14 21 14t21 -14q8 12 21 12t21 -12q8 14 21 14t21 -14q8 17 21 17t20 -17q8 4 21 4t21 -4q8 12 21 12t21 -12
q8 18 21 18t21 -18q8 20 21 20t21 -20q8 16 21 16t21 -16q8 6 21 6t21 -6q8 8 21 8t21 -8q7 10 20 10t21 -10q8 4 21 4t21 -4q8 4 21 4t21 -4q8 8 21 8t21 -8q15 -8 15 -22.5t-15 -22.5q12 -8 12 -22t-12 -22q12 -8 12 -22.5t-12 -22.5q16 -8 16 -22.5t-16 -22.5
q19 -8 19 -22t-19 -22q16 -8 16 -22.5t-16 -22.5q-10 -10 -26 -10t-26 10z" />
    <glyph glyph-name="registered" unicode="&#xae;" horiz-adv-x="672" 
d="M338 0q-11 -7 -29.5 -5.5t-28.5 9.5q-12 -7 -28 -2.5t-24 15.5q-14 -9 -28.5 -3t-17.5 23q-12 -1 -25 7t-16 20q-8 4 -19 15t-16 18q-12 1 -21 13t-8 24q-17 1 -24.5 14t1.5 28q-13 4 -18 18t1 26q-20 5 -23.5 19.5t13.5 27.5q-18 7 -18.5 22t15.5 25q-14 10 -13 25
t16 23q-10 11 -6.5 26t16.5 21q-3 11 2 24.5t15 19.5q-7 13 0.5 26.5t22.5 15.5q-8 18 1 29.5t28 7.5q4 9 14.5 19t20.5 13q-3 21 10 29.5t31 -2.5q4 13 18.5 19t27.5 1q9 7 25.5 11t26.5 2q9 28 27 29t31 -25q12 14 30 13t28 -17q11 4 28 0t25 -13q16 13 30.5 6.5
t15.5 -26.5q21 15 34 7t7 -34q14 2 24.5 -8t10.5 -24q11 -3 19.5 -14.5t8.5 -22.5q7 -6 14 -19t8 -23q19 -2 24 -16t-8 -28q10 -7 13 -22t-3 -25q10 -8 11 -23t-8 -25q21 -10 20 -25t-23 -23q11 -11 8 -25.5t-18 -20.5q15 -15 10 -29t-26 -16q-2 -9 -9 -21.5t-13 -19.5
q11 -19 2 -30.5t-30 -7.5q5 -18 -6.5 -28t-28.5 -4q2 -20 -10.5 -28.5t-29.5 1.5q-6 -10 -21 -16t-26 -4q-7 -14 -23 -18t-29 5q-11 -3 -29.5 -4.5t-29.5 0.5zM338 594q-10 -8 -27.5 -9.5t-28.5 5.5q-7 -14 -22.5 -18t-28.5 4q-7 -6 -21 -12.5t-23 -8.5q3 -19 -9 -28t-30 -1
q8 -19 -2 -29.5t-30 -5.5q-4 -7 -12 -20t-13 -20q2 -11 -3.5 -24.5t-14.5 -19.5q-1 -9 -5 -23.5t-6 -22.5q22 -11 20.5 -25.5t-24.5 -21.5q21 -8 22.5 -23t-18.5 -25q5 -8 8.5 -22t2.5 -24q10 -5 15.5 -18.5t2.5 -24.5q11 -4 19 -16.5t6 -23.5q14 1 24 -10t8 -25
q9 -4 21 -13t18 -16q16 12 29.5 5.5t14.5 -26.5q14 14 30 9.5t21 -23.5q11 14 28.5 13t27.5 -17q10 15 27.5 16.5t29.5 -12.5q7 13 23 16.5t28 -3.5q-1 23 13.5 29.5t31.5 -7.5q-7 24 5 33t33 -4q-3 14 7 25t24 10q-5 13 2.5 26t22.5 14q-10 13 -4.5 27t22.5 17
q-17 13 -14 27.5t25 18.5q-17 11 -16 25t20 22q-16 8 -17.5 22t13.5 25q-23 4 -26.5 18.5t15.5 27.5q-16 3 -21.5 17t3.5 27q-8 5 -16 17.5t-9 22.5q-6 6 -16 17t-15 18q-10 2 -21.5 11t-16.5 18q-9 4 -23 10.5t-22 11.5q-15 -20 -31 -16t-20 29q-11 -4 -29 -2.5t-28 6.5z
M440 140q-7 5 -15 16.5t-12 19.5q-16 -2 -24 9.5t-3 25.5q-23 -7 -32 4t4 32q-17 -3 -25.5 8t-1.5 27q-10 3 -18 14.5t-9 21.5q0 4 2 8q10 4 18 -2q8 17 27 22.5t34 -5.5q-17 22 -10.5 37.5t29.5 16.5q-19 5 -23 20t11 32q-20 -23 -38 -17t-20 36q-8 -6 -22 -8.5t-24 0.5
q22 -9 22 -23t-22 -23q13 -9 13 -23t-13 -23q13 -9 13 -23t-13 -23q4 -9 4 -23t-4 -23q4 -23 0 -46q15 -9 15 -23t-15 -23q14 2 28 -6.5t18 -21.5v-14q-9 -20 -23.5 -20t-23.5 20q-8 -5 -23 -5t-23 5q-9 -16 -23.5 -16t-23.5 16q-9 7 0 14q0 20 14.5 28.5t31.5 -0.5
q-8 8 -8 21.5t8 21.5q-16 8 -16 21.5t16 21.5q-19 8 -19 21.5t19 21.5q-2 8 -2 21.5t2 21.5q-14 8 -14 21.5t14 21.5q-2 8 -2 21.5t2 21.5q-13 -2 -23 6.5t-9 21.5q-7 -7 -14 0q-2 8 0 16q8 4 21 4t21 -4q8 12 21.5 12t21.5 -12q8 11 21.5 11t21.5 -11q8 20 21 20t21 -20
q19 19 40 12.5t28 -31.5q28 1 38 -17.5t-6 -41.5q17 -21 9 -39.5t-36 -19.5q-1 -22 -16 -33t-34 -7q14 -12 11 -28q8 -5 16 -16.5t11 -19.5q6 -6 14.5 -16.5t13.5 -18.5q12 -2 20.5 -13t6.5 -23q11 8 20 3t8 -19q4 -7 0 -14q-6 -10 -15.5 -9t-14.5 11q-7 -4 -18.5 -5.5
t-19.5 1.5z" />
    <glyph glyph-name="plusminus" unicode="&#xb1;" horiz-adv-x="398" 
d="M28 300q10 22 25.5 22t25.5 -22q10 14 25 14t25 -14q10 14 25.5 14t25.5 -14q-6 10 -6 25.5t6 25.5q-8 10 -8 26t8 26q-25 10 -25 25.5t25 25.5q8 14 21 14t21 -14q2 -10 2 -25.5t-2 -25.5q5 -10 5 -26t-5 -26q10 -10 10 -25.5t-10 -25.5q10 7 25.5 7t25.5 -7q10 8 26 8
t26 -8q10 2 25.5 2t25.5 -2q8 -8 8 -21t-8 -21q-10 -7 -26 -7t-26 7q-10 -2 -26 -2t-26 2q-10 -10 -26 -10t-26 10q3 -10 3 -25.5t-3 -25.5q2 -10 2 -26t-2 -26q18 -10 18 -25.5t-18 -25.5q-20 -6 -40 0q-10 10 -10 25.5t10 25.5q-17 10 -17 26t17 26q-2 10 -2 25.5t2 25.5
q-10 -22 -25.5 -22t-25.5 22q-10 -13 -25 -13t-25 13q-10 -16 -25.5 -16t-25.5 16q-2 8 -2 21t2 21zM372 -2q-8 -16 -22 -16t-22 16q-8 -10 -22 -10t-22 10q-8 -9 -21.5 -9t-21.5 9q-8 -4 -22 -4t-22 4q-8 -20 -22 -20t-22 20q-8 -10 -21.5 -10t-21.5 10q-22 -2 -44 0
q-8 -21 -22 -21t-22 21q-4 6 -4 16t4 16q8 11 22 11t22 -11q8 8 22 8t22 -8q8 5 21.5 5t21.5 -5q8 3 22 3t22 -3q8 7 22 7t22 -7q8 3 21.5 3t21.5 -3q8 22 22 22t22 -22q8 2 22 2t22 -2q12 -6 12 -16t-12 -16z" />
    <glyph glyph-name="acute" unicode="&#xb4;" horiz-adv-x="228" 
d="M34 534q-9 -2 -13.5 4t-0.5 14q7 8 19.5 18.5t21.5 15.5q-8 25 4.5 35.5t35.5 -1.5q5 10 18 20.5t23 13.5q22 4 39.5 -11t16.5 -37q0 -20 -13 -26t-28 8q1 -23 -12 -28.5t-29 10.5q-5 -9 -17.5 -14.5t-23.5 -3.5q0 -21 -12.5 -26.5t-28.5 8.5z" />
    <glyph glyph-name="mu" unicode="&#xb5;" horiz-adv-x="594" 
d="M60 0q-7 8 -7 21t7 20q-6 8 -6 21t6 21q-2 7 -2 20t2 21q-14 8 -14 21t14 20q-5 8 -5 21t5 21q-8 7 -8 20t8 21q-8 8 -8 21t8 20q-8 8 -8 21t8 21q-8 7 -8 20t8 21q-14 8 -14 21t14 20q-11 8 -11 21t11 21q-3 7 -3 20t3 21q8 13 21 12.5t20 -14.5q8 8 20.5 7.5t20.5 -9.5
q3 -8 3 -21.5t-3 -21.5q16 -8 16 -21.5t-16 -21.5q3 -8 3 -21t-3 -21q4 -8 4 -21.5t-4 -21.5q11 -8 11 -21.5t-11 -21.5q1 -8 1 -21t-1 -21q14 -8 14 -21.5t-14 -21.5q16 -8 16 -21.5t-16 -21.5q14 -7 17 -22.5t-6 -27.5q10 -4 20 -16t12 -22q11 4 25.5 -1t21.5 -15
q10 3 27 8t28 8q-7 28 8 40t40 -2q2 10 8.5 25.5t12.5 24.5q-11 8 -11 21.5t11 21.5q-12 8 -12 21.5t12 21.5q-2 8 -2 21.5t2 21.5q-17 8 -17 21.5t17 21.5q-10 8 -10 21.5t10 21.5q-3 8 -3 21.5t3 21.5q-20 8 -20 21.5t20 21.5q-7 8 -7 21.5t7 21.5q8 1 21 1t20 -1
q7 4 20 4t21 -4q20 -8 20 -21.5t-20 -21.5q2 -8 2 -21.5t-2 -21.5q12 -8 12 -21.5t-12 -21.5q2 -8 2 -21.5t-2 -21.5q14 -8 14 -21t-14 -21q18 -8 18 -21.5t-18 -21.5q2 -8 2 -21.5t-2 -21.5q8 -8 8 -21.5t-8 -21.5q13 -8 13 -21.5t-13 -21.5q24 -4 28.5 -21t-13.5 -33
q19 14 33 8t13 -27q3 15 15.5 26t27.5 11q-11 9 -8.5 17t16.5 9h16q6 -7 4 -16.5t-10 -13.5q10 -17 2.5 -31t-27.5 -13q1 -21 -12.5 -30.5t-32.5 1.5q-7 -12 -22.5 -15.5t-27.5 4.5q-23 -16 -41.5 -6t-17.5 39q-18 20 -25 51q-1 -8 -8.5 -12.5t-17.5 -1.5q10 -37 -8 -51
t-51 6q-5 -29 -26.5 -36t-42.5 15q-13 -2 -32.5 3t-29.5 13q-26 -8 -42 13q-3 -5 -8 -7q3 -10 6 -26t3 -27q27 -1 32.5 -17.5t-14.5 -34.5q7 -9 9.5 -26t-0.5 -27q6 -25 -10 -46t-42 -22q-34 -8 -48 10.5t2 49.5q-21 13 -18.5 27.5t26.5 19.5q-5 13 0 32.5t16 29.5
q-19 12 -16.5 27t24.5 20z" />
    <glyph glyph-name="paragraph" unicode="&#xb6;" horiz-adv-x="532" 
d="M302 -80q14 24 36 17q-5 16 20 25q-11 8 -11 21t11 21q-2 8 -2 21.5t2 21.5q-11 8 -11 21t11 21q-11 8 -11 21t11 21q-7 8 -7 21.5t7 21.5q-20 8 -20 21t20 21q-21 8 -21 21t21 21q-17 8 -17 21t17 21q-9 8 -9 21t9 21q-20 8 -20 21.5t20 21.5q-8 8 -8 21t8 21
q-3 8 -3 21t3 21q-13 8 -13 21.5t13 21.5q-11 8 -11 21t11 21q-22 10 -15 28q-11 -5 -22 -1.5t-19 15.5q4 -8 4 -21t-4 -21q20 -8 20 -21t-20 -21q16 -8 16 -21.5t-16 -21.5q5 -8 5 -21t-5 -21q21 -8 21 -21t-21 -21q6 -8 6 -21.5t-6 -21.5q7 -8 7 -21t-7 -21q14 -8 14 -21
t-14 -21q12 -8 12 -21t-12 -21q6 -8 6 -21t-6 -21q7 -8 7 -21.5t-7 -21.5q2 -21 0 -42q8 -8 8 -21t-8 -21q4 -8 4 -21.5t-4 -21.5q19 -8 19 -21t-19 -21q3 -8 3 -21t-3 -21zM424 538q3 -8 3 -21t-3 -21q4 -8 4 -21t-4 -20q11 -8 11 -21t-11 -21q6 -7 6 -20t-6 -21
q18 -8 18 -21t-18 -21q4 -8 4 -21t-4 -20q14 -8 14 -21t-14 -21q19 -8 19 -21t-19 -21q13 -7 13 -20t-13 -21q16 -8 16 -21t-16 -21q4 -8 4 -21t-4 -20q12 -8 12 -21t-12 -21v-41q13 -8 13 -21t-13 -21q18 -1 37.5 -16t24.5 -32q3 3 9 3t9 -3q8 -4 8 -12t-8 -12
q-10 -26 -27 -25.5t-27 26.5q-14 -34 -35 -33.5t-33 35.5q-10 -7 -27 -6.5t-27 7.5q-10 -18 -28 -18t-28 17q-13 -4 -34.5 -4.5t-35.5 2.5q-10 -26 -27.5 -26.5t-28.5 25.5q-10 4 -10 12t10 12q4 8 11 9t11 -7q-1 26 19 41t45 7q-9 8 -9 20t9 20q-9 8 -9 20t9 20
q-17 8 -17 21t17 20q-19 7 -19 20t19 20q-19 7 -19 20t19 20v40q-3 7 -3 20t3 21q-14 8 -14 20t14 20q-26 13 -12 31q-10 -5 -22 -1t-18 15q-17 -21 -32.5 -16t-16.5 32q-19 -13 -32.5 -4t-11.5 31q-23 -9 -34 2.5t-1 33.5q-10 5 -17 19t-6 25q-26 5 -28.5 20.5t19.5 29.5
q-4 10 -2 24t10 22q-8 16 0 28t26 11q-3 22 10 30.5t32 -2.5q8 11 23.5 16t27.5 0q8 14 24.5 16t26.5 -11q3 5 6.5 4.5t5.5 -6.5q15 11 39.5 10t37.5 -14q15 11 39 10.5t38 -12.5q13 20 32 30t39.5 10.5t40.5 -8.5t34 -28q2 -4 2 -13t-2 -13q-8 -32 -28 -34t-36 26
q-2 -11 -9 -28.5t-13 -27.5zM171 381q17 17 32.5 17t23.5 -13q1 2 3 4.5t4 4.5q-15 8 -15 20t15 20q-13 8 -13 20t13 20q-15 8 -15 20t15 20v40q-4 8 -4 20t4 20q-8 -6 -14 2q-4 -15 -15 -18t-22 9q-5 -11 -18.5 -22.5t-25.5 -13.5q19 -20 12.5 -41t-33.5 -26
q12 -8 16.5 -26t-2.5 -32q25 7 37 -7.5t2 -37.5z" />
    <glyph glyph-name="periodcentered" unicode="&#xb7;" horiz-adv-x="216" 
d="M24 278q-11 20 -2.5 37.5t31.5 19.5q4 24 23 31.5t38 -8.5q23 20 40.5 10.5t15.5 -39.5q28 -4 35 -23.5t-13 -39.5q4 -14 -4 -32t-21 -26q-10 -8 -28 -15.5t-31 -8.5q-16 -4 -34.5 5t-25.5 24q-26 5 -33.5 25t9.5 40z" />
    <glyph glyph-name="ordmasculine" unicode="&#xba;" horiz-adv-x="282" 
d="M34 416q-6 10 -5 25.5t8 24.5q1 9 4 24t5 24q-15 15 -9.5 28.5t26.5 15.5q-5 14 3 25t23 9q3 11 15 18.5t24 5.5q6 26 22 28.5t30 -20.5q16 12 29 5t11 -27q23 -2 29.5 -18t-10.5 -32q11 -9 13 -25.5t-8 -26.5q14 -11 12.5 -28t-16.5 -26q-2 -10 -6 -25.5t-7 -24.5
q14 -19 6.5 -32t-30.5 -9q2 -17 -8.5 -25.5t-26.5 -2.5q-8 -12 -23.5 -15.5t-26.5 4.5q-8 -8 -14 2q-12 2 -30 10.5t-27 16.5q-11 12 -15 34t2 37zM80 444q8 -9 8.5 -24t-6.5 -24q17 -3 21.5 -15.5t-7.5 -25.5q14 13 25.5 9t12.5 -21q1 19 13.5 25t28.5 -7q-14 16 -8 32
t26 20q-11 11 -10 28t14 27q-20 12 -22.5 34.5t15.5 38.5q-11 5 -17 19t-3 25q-10 -6 -20.5 -1t-12.5 16q4 -17 -6.5 -26t-26.5 -2q8 -15 2 -35t-21 -28q23 -14 21.5 -34.5t-27.5 -30.5zM216 280q18 -9 18 -23t-18 -23q-8 -8 -21 -8t-21 8q-8 -14 -21 -14t-21 14
q-8 -9 -21 -9t-21 9q-8 -11 -21 -11t-21 11q-16 9 -16 23t16 23q8 19 21 19t21 -19q8 14 21 14t21 -14q8 10 21 10t21 -10q8 18 21 18t21 -18z" />
    <glyph glyph-name="guillemotright" unicode="&#xbb;" horiz-adv-x="460" 
d="M252 338q-18 8 -18 22.5t18 22.5q-20 8 -20 22.5t20 22.5q15 6 26.5 -2.5t9.5 -24.5q17 9 28.5 0.5t8.5 -27.5q11 0 22 -9t14 -19q17 8 28 -0.5t9 -26.5q15 5 26.5 -3t9.5 -24q4 -9 4 -23t-4 -23q22 -9 22 -23t-22 -23q4 -20 -7 -29t-29 1q7 -22 -4.5 -31t-31.5 3
q3 -18 -8.5 -27t-27.5 -1q1 -14 -10.5 -23t-25.5 -5q4 -19 -7.5 -27.5t-28.5 -0.5q-22 9 -22 23.5t22 23.5q-11 9 -11 23.5t11 23.5q4 10 17.5 19t24.5 11q-4 22 9 31t33 -1q1 8 5 13t9 10q-23 5 -15 38q-21 -11 -34 -1t-8 33q-23 -14 -36 -4.5t-7 35.5zM20 338
q-20 8 -20 22t20 22q-3 8 -3 22t3 22q10 -1 21 -9.5t15 -17.5q14 4 25 -4.5t12 -22.5q9 -2 20 -11t16 -17q12 2 23.5 -6.5t13.5 -20.5q11 1 22.5 -8t13.5 -19q6 -8 6 -22.5t-6 -22.5q16 -8 16 -22.5t-16 -22.5q5 -20 -6 -29t-30 1q4 -20 -6.5 -28.5t-28.5 0.5q-5 -8 -16 -17
t-20 -11q1 -14 -10 -23t-25 -5q-1 -13 -12 -21.5t-24 -6.5q-22 9 -22 23.5t22 23.5q-1 9 -1 23.5t1 23.5q-3 21 10 30t32 0q-6 25 7 34.5t35 -4.5q4 9 15 17.5t21 11.5q-10 0 -17.5 7t-8.5 17q-6 5 -16.5 12t-16.5 12q-9 0 -19 7t-13 16q-7 4 -17.5 11.5t-15.5 12.5z" />
    <glyph glyph-name="questiondown" unicode="&#xbf;" horiz-adv-x="300" 
d="M246 442q17 -16 12 -30t-28 -15q-3 -13 -16 -19.5t-26 0.5q-20 2 -38 21t-20 39q-6 28 12 47t46 15q28 6 46 -12t12 -46zM54 2q-2 9 3 21t13 17q1 8 5.5 20t9.5 18q-10 12 -5 24t21 13q0 8 5 20t10 18q-1 9 4 21t12 17q-4 10 1 21.5t14 16.5q-1 8 4 20t12 17q1 8 5.5 20
t9.5 18q1 8 6 20t10 18q10 4 19 -1.5t9 -16.5q-2 -9 -7 -22.5t-9 -21.5q5 -11 0.5 -25t-15.5 -20q-1 -9 -6 -23t-10 -21q10 -13 5.5 -27t-20.5 -18q4 -10 -1 -24t-15 -20q5 -16 -1.5 -37t-19.5 -31q12 -15 7.5 -33.5t-21.5 -26.5q2 -10 0.5 -25.5t-5.5 -24.5q31 -4 37.5 -25
t-16.5 -42q11 -1 28.5 -8t26.5 -15q14 13 41.5 23.5t46.5 10.5q4 2 7 -1t3 -7q4 -13 -2.5 -29t-18.5 -23q5 -10 3 -26t-10 -24q-10 -44 -37.5 -48.5t-50.5 34.5q-14 -15 -30.5 -12t-23.5 22q-11 0 -25 9t-19 20q-8 6 -17.5 19.5t-11.5 23.5q-13 8 -16.5 25t5.5 29
q-26 15 -23 33.5t31 25.5q-11 17 -4.5 36.5t26.5 26.5z" />
    <glyph glyph-name="Agrave" unicode="&#xc0;" horiz-adv-x="662" 
d="M12 -4q-12 8 -12 19t12 19q5 5 12 4t10 -8q5 16 22 22t31 -2q1 14 12.5 31t24.5 23q-26 26 -16.5 50t46.5 26q-27 25 -19 47.5t45 23.5q-10 18 -3 38.5t27 27.5q-13 17 -6.5 35.5t26.5 24.5q-5 13 0 30.5t17 25.5q-14 13 -10 29t23 21q-17 13 -13.5 27t24.5 18
q-12 10 -9.5 22t16.5 17q-3 7 -1.5 18t5.5 17q12 22 40 30t50 -6q10 -20 21.5 -49.5t22 -61t19 -62t12.5 -52.5q18 -1 22 -13t-9 -25q16 -2 20.5 -14.5t-6.5 -25.5q13 -5 18 -20t-1 -27q9 -9 15.5 -26.5t5.5 -29.5q38 -4 47 -30t-17 -53q4 -11 10.5 -29t10.5 -28
q16 1 22 -9.5t-3 -23.5q7 2 14.5 -1t9.5 -10q9 13 23 13t23 -13q5 -6 5 -17t-5 -17q-10 -24 -26.5 -24t-26.5 25q-13 -23 -34.5 -22.5t-34.5 23.5q-10 -20 -28.5 -20.5t-29.5 19.5q-15 -42 -42.5 -43t-45.5 40q-4 18 0 36q11 21 28 20.5t26 -22.5q-2 18 11 27t29 2
q-8 7 0 15q-16 5 -21.5 20.5t4.5 29.5q-11 7 -16 22.5t0 27.5q-17 4 -22 20t5 30q-8 -14 -21 -14t-20 14q-7 -19 -20 -19t-21 19q-8 -14 -20 -14t-20 14q-8 -15 -21 -15t-20 15q-7 -17 -18 -19.5t-19 10.5q3 -11 -3 -22t-18 -14q19 -17 13 -31.5t-31 -14.5q8 -13 3 -27
t-20 -18q20 -8 20.5 -21.5t-17.5 -23.5q9 5 20 1t16 -13q9 19 25 20t26 -19q2 -20 0 -40q-16 -18 -39 -16t-35 22q-10 -17 -25 -16.5t-23 18.5q-9 -7 -24 -7.5t-25 5.5q-13 -10 -36 -12t-37 6zM408 266q-4 7 -8 19.5t-5 19.5q-10 5 -14.5 17t0.5 22q-5 6 -9.5 18.5
t-3.5 20.5q-6 6 -10.5 18.5t-3.5 21.5q-5 6 -9.5 18.5t-3.5 20.5q-13 4 -17 16t3 23q-14 5 -17 19q-2 -5 -4 -10.5t-4 -8.5q-2 -7 -5.5 -19t-5.5 -20q1 -8 -2.5 -20.5t-9.5 -18.5q8 -11 4.5 -23t-16.5 -17q4 -9 0 -21.5t-12 -17.5q11 -11 8 -23t-19 -16q4 -8 2 -18.5
t-9 -17.5q22 9 39 -3q8 7 22 7t22 -7q22 4 44 0q8 4 22 4t22 -4zM234 696q-8 20 1 29t29 0q5 6 14.5 15.5t15.5 13.5q13 4 25.5 -4t13.5 -22q7 -4 20 -12.5t20 -13.5q16 8 28.5 0t10.5 -26q0 -6 -5 -11.5t-11 -6.5q-10 -13 -23 -10t-18 19q-11 -10 -23 -6.5t-17 16.5
q-10 -7 -22.5 -4t-18.5 13q-10 -10 -23 -7t-17 17z" />
    <glyph glyph-name="Aacute" unicode="&#xc1;" 
d="M12 -4q-10 8 -10 19t10 19q6 8 13 7t9 -11q2 26 18.5 32t34.5 -12q-18 27 -6.5 44t43.5 10q-25 26 -15.5 50t45.5 26q-26 25 -17.5 47t43.5 24q-23 23 -15.5 43.5t39.5 22.5q-1 13 5.5 31.5t14.5 28.5q-13 15 -7.5 32.5t24.5 23.5q-7 12 -3 27.5t16 22.5q-4 10 -0.5 24
t11.5 21q-14 10 -11.5 22t18.5 17q-1 7 0.5 18t3.5 17q10 28 38.5 36t51.5 -12q45 -9 74 -32.5t39.5 -55t1.5 -67.5t-40 -70q15 -3 19 -15t-6 -23q15 -3 19.5 -15.5t-5.5 -24.5q9 -7 14 -21.5t3 -25.5q11 -8 17.5 -25.5t3.5 -30.5q14 -13 23 -38.5t7 -44.5q20 -5 26 -23
t-5 -34q7 -4 13 -14.5t6 -18.5q6 1 13.5 -2.5t10.5 -8.5q23 2 46 0q3 -6 3 -17t-3 -17q-10 -15 -26.5 -14.5t-26.5 15.5q-13 -30 -34.5 -30t-34.5 31q-10 -10 -28.5 -11t-29.5 10q-15 -41 -42.5 -42t-45.5 39q-2 18 0 36q11 26 28 25.5t26 -27.5q5 10 18.5 18.5t23.5 9.5
q-10 6 -2 16q-18 4 -23.5 20t6.5 30q-8 8 -13 23.5t-3 26.5q-12 7 -17 22.5t0 27.5q-8 -19 -21 -19t-20 19q-7 -10 -20 -10t-21 10q-8 -4 -20 -4t-20 4q-8 -15 -21 -15t-20 15q-7 -10 -20 -10t-21 10q13 -14 7.5 -28.5t-24.5 -16.5q-1 -9 -7 -23.5t-11 -22.5
q5 -11 -0.5 -25.5t-16.5 -19.5q2 -8 3 -22.5t0 -22.5q11 11 22.5 7.5t13.5 -19.5q9 17 25 17t26 -16q19 -8 19 -20t-19 -20q-16 -30 -39.5 -28t-34.5 34q-10 -16 -25 -15t-23 17q-9 -4 -24.5 -5t-24.5 3q-13 -3 -36 -5t-37 -1zM364 266q7 18 19 21q1 9 12 18q-15 3 -19.5 15
t5.5 24q-5 6 -9.5 18.5t-3.5 20.5q-11 5 -15.5 17t1.5 23q-20 1 -24 13t11 26q-5 7 -9 19t-5 20q-4 6 -7.5 17.5t-5.5 19.5q0 -8 -3.5 -19.5t-8.5 -17.5q-2 -7 -5.5 -19t-5.5 -20q7 -10 3.5 -22t-15.5 -17q5 -10 1 -22.5t-13 -17.5q13 -12 9 -24t-21 -15q7 -10 3.5 -22
t-14.5 -17q8 -10 5 -21.5t-13 -16.5q9 2 20.5 2t19.5 -3q8 5 22 5t22 -5q8 5 22 5t22 -5zM238 654q-10 -3 -14.5 2.5t0.5 15.5q4 10 17 21t24 13q-4 20 8.5 31t31.5 3q5 9 18 19.5t23 14.5q12 -8 29.5 -23t26.5 -25q1 -22 -11.5 -28t-29.5 10q-4 -12 -17 -17.5t-24 -0.5
q-4 -12 -17 -17.5t-24 -0.5q1 -23 -12 -28.5t-29 10.5z" />
    <glyph glyph-name="Acircumflex" unicode="&#xc2;" 
d="M12 -4q-16 8 -16 19t16 19q12 0 22 -4q8 8 25 14t28 6q-5 18 6.5 35t30.5 19q-3 18 6.5 42t23.5 34q-19 22 -10.5 44t36.5 27q-2 14 6 34.5t18 31.5q-20 19 -13.5 37.5t33.5 22.5q-17 17 -11.5 34t28.5 22q-18 15 -14 30.5t27 19.5q-13 12 -9.5 26.5t20.5 18.5
q-5 8 -3 20.5t10 18.5q-16 8 -14.5 19.5t18.5 15.5q10 32 38 39.5t52 -15.5q33 -12 56.5 -37.5t34 -57t7 -66t-22.5 -64.5q17 -2 21 -14t-8 -24q12 -5 16.5 -17t-2.5 -23q22 -1 27.5 -16t-10.5 -31q11 -8 17.5 -25.5t3.5 -30.5q24 -9 33.5 -34.5t-3.5 -48.5q8 -10 14 -27.5
t7 -29.5q5 -6 10.5 -16t8.5 -17q8 5 15.5 2t8.5 -13q9 20 23 20t23 -20q10 -6 10 -17t-10 -17t-26.5 -6t-26.5 7q-13 -3 -34.5 -3t-34.5 4q-10 -2 -28.5 -2t-29.5 1q-16 -26 -43.5 -27.5t-44.5 24.5q-4 18 0 36q11 26 28 25t26 -27q-5 26 8 34.5t34 -6.5q-6 8 -2 16
q-12 6 -17.5 21.5t0.5 28.5q-10 8 -15 23.5t-1 26.5q-8 8 -13.5 23.5t-3.5 26.5h-41q-7 -4 -20 -4t-21 4q-8 -18 -20 -18t-20 18q-8 -14 -21 -14t-20 14q-7 -10 -20 -10t-21 10q8 -13 2.5 -27t-19.5 -18q9 -13 3.5 -27.5t-21.5 -18.5q-1 -9 -6.5 -23t-10.5 -22
q19 -6 22.5 -18t-10.5 -22q9 3 17 -1.5t10 -15.5q10 5 25.5 5t25.5 -4q4 -8 4 -20t-4 -20q-16 -34 -39.5 -32t-34.5 38q-10 -11 -25 -10.5t-23 12.5q-8 -15 -23.5 -15.5t-25.5 13.5q-13 -16 -35.5 -18t-37.5 12zM364 266q16 13 37 4q-7 6 -9.5 16t3.5 19q-5 7 -9 19t-5 20
q-8 5 -12 17.5t-1 21.5q-8 5 -12.5 17.5t-1.5 22.5q-21 1 -25.5 13t12.5 26q-17 2 -21.5 14t7.5 25q-10 2 -13 4q-3 -2 -12 -4q12 -11 9 -23.5t-20 -15.5q13 -12 9.5 -24.5t-21.5 -14.5q11 -11 7 -23.5t-19 -16.5q13 -12 9.5 -24.5t-21.5 -14.5q5 -9 1.5 -21.5t-12.5 -17.5
q15 -15 7 -28q15 2 25 -11q8 5 22 5t22 -5q8 4 22 4t22 -4zM320 772q20 10 30 1.5t3 -29.5q9 -2 19 -10.5t13 -17.5q20 11 30.5 2.5t2.5 -30.5q13 2 23 -6.5t9 -21.5q-12 -8 -25 -3t-18 18q-10 -2 -23.5 3t-20.5 13q-13 -11 -26.5 -6t-16.5 21q-4 -14 -17 -19.5t-26 2.5
q0 -24 -13.5 -29.5t-30.5 11.5q-3 -17 -16 -22t-27 5q-5 18 5.5 27.5t27.5 2.5q2 10 12 19t20 10q-5 17 6 26.5t27 3.5q-4 17 6 26t26 3z" />
    <glyph glyph-name="Atilde" unicode="&#xc3;" 
d="M12 -4q-7 8 -7 19t7 19q12 2 22 -4q8 8 25 14t28 6q-12 23 -0.5 40t37.5 14q-28 28 -19 51.5t49 24.5q-31 26 -22.5 48t48.5 23q-18 20 -10.5 40.5t34.5 25.5q-8 15 -2 34t22 26q-22 18 -17 35.5t34 20.5q-5 11 -1 27t14 23q-4 10 0 24t11 21q1 8 3 20t4 19q-2 7 -1 18
t5 17q10 30 38 37.5t52 -13.5q30 -14 51 -40t31.5 -57.5t9 -65t-16.5 -62.5q6 -6 10.5 -18t2.5 -20q13 -4 17.5 -16.5t-3.5 -23.5q26 -1 31.5 -15.5t-14.5 -31.5q17 -6 23.5 -23.5t-2.5 -32.5q13 -13 22.5 -39t7.5 -44q29 -1 35.5 -19t-14.5 -38q13 -1 19 -11t0 -22
q9 7 16.5 3.5t7.5 -14.5q9 10 23 10t23 -10q6 -17 0 -34q-10 -22 -26.5 -21.5t-26.5 22.5q-13 -17 -34.5 -16.5t-34.5 17.5q-10 -27 -28.5 -27.5t-29.5 26.5q-16 -13 -43.5 -14t-44.5 11q-14 7 -14 18t14 18q10 16 27 15.5t27 -17.5q1 16 14 25t28 3q-4 2 -5 7t3 9
q-17 4 -22.5 20t5.5 30q-25 2 -30 18t14 32q-21 2 -27.5 15.5t4.5 28.5q-8 -6 -18.5 -5t-16.5 11q-7 -20 -20 -20t-21 20q-8 -18 -20 -18t-20 18q-8 -11 -21 -11t-20 11q-7 -4 -20 -4t-21 4q-2 -9 -7 -23.5t-10 -21.5q18 -17 12.5 -31.5t-30.5 -14.5q10 -13 4.5 -27
t-21.5 -18q14 -6 17 -16t-4 -20q10 5 17.5 -0.5t8.5 -20.5q9 20 25 20.5t26 -19.5q7 -8 7 -20t-7 -20q-14 -4 -37 -2t-37 8q-10 -16 -25 -15t-23 17q-8 -21 -23.5 -21.5t-25.5 19.5q-13 -14 -35.5 -15.5t-37.5 9.5zM364 266q10 27 27 20q-2 10 4 19q-13 4 -17.5 16t3.5 23
q-21 2 -25 14t12 25q-6 7 -10.5 19.5t-3.5 20.5q-20 1 -24.5 13t11.5 26q-3 7 -7.5 19.5t-6.5 19.5q-9 0 -15 3q-2 -1 -4.5 -2t-5.5 -1q14 -12 10 -24t-21 -15q17 -13 13 -25.5t-25 -13.5q1 -8 -3 -20.5t-9 -19.5q1 -8 -3 -20.5t-9 -18.5q5 -9 1 -21.5t-12 -17.5
q12 -12 8 -24t-20 -15q22 2 44 0q8 10 22 10t22 -10q8 13 22 13t22 -13zM230 682q-16 0 -28 8q2 12 13 27.5t22 22.5q10 5 27.5 11.5t27.5 8.5q13 14 23.5 9.5t10.5 -22.5q10 1 19.5 -6t9.5 -18q9 7 18 3t11 -15q2 12 13 20t23 5q8 8 15 5t9 -13q2 -14 -7.5 -29.5
t-21.5 -20.5q1 -30 -16 -37.5t-39 13.5q-22 2 -53 17.5t-45 32.5q-4 -6 -14 -13t-18 -9z" />
    <glyph glyph-name="Adieresis" unicode="&#xc4;" horiz-adv-x="668" 
d="M12 -4q-12 8 -12 19t12 19q5 4 12 2.5t10 -6.5q5 16 21.5 22.5t31.5 -2.5q1 14 12 31t25 23q-8 20 1.5 43.5t28.5 32.5q-23 23 -15 45.5t41 25.5q4 13 11.5 33.5t12.5 32.5q3 11 9.5 30t10.5 30q2 11 7 28.5t10 27.5q-17 14 -12.5 29.5t25.5 20.5q-12 12 -8.5 26t19.5 19
q-9 9 -7 21.5t14 17.5q0 17 4 35q9 33 37 40.5t53 -16.5q18 -17 33.5 -45t26 -60t15 -63.5t0.5 -56.5q8 -5 12 -17t1 -21q10 -5 14 -17.5t0 -22.5q16 -4 21.5 -18.5t-4.5 -28.5q17 -6 23.5 -23.5t-2.5 -32.5q23 -9 32.5 -35t-2.5 -48q17 -6 23.5 -23.5t-2.5 -33.5
q11 -2 16.5 -12t2.5 -21q5 -1 12.5 -4t11.5 -7q9 6 23 6t23 -6t9 -17t-9 -17q-10 -13 -26.5 -12.5t-26.5 13.5q-13 -25 -34.5 -25t-34.5 26q-10 -18 -28.5 -18.5t-29.5 17.5q-15 -42 -42.5 -43t-45.5 40q-14 7 -14 18t14 18q10 16 27 15.5t27 -17.5q4 11 17 20t25 8
q-6 8 -2 16q-11 7 -16.5 22.5t-0.5 27.5q-26 2 -31 18t15 32q-18 3 -24 16t2 27q-8 -8 -19 -6t-17 13q-7 -14 -20 -14t-21 14q-8 -13 -20 -13t-20 13q-8 -10 -21 -10t-20 10q-7 -4 -20 -4t-21 4q17 -16 11.5 -30t-28.5 -15q5 -12 -0.5 -26.5t-17.5 -19.5q4 -11 -1.5 -25
t-15.5 -20q13 -7 15 -18.5t-6 -21.5q11 7 19.5 2t10.5 -19q10 9 25.5 9.5t25.5 -8.5q12 -8 12 -20t-12 -20q-14 -7 -37 -5t-37 11q-10 -12 -25 -11.5t-23 13.5q-9 -8 -24 -8.5t-25 6.5q-12 -26 -34.5 -27.5t-38.5 21.5zM408 266q-3 8 -7 20t-6 19q-3 7 -7.5 19t-6.5 20
q-4 7 -7.5 19.5t-5.5 19.5q-22 1 -26.5 13.5t12.5 26.5q-21 1 -25.5 13t12.5 26q-17 2 -21 14.5t7 24.5q-5 1 -8.5 3.5t-5.5 4.5q-5 -5 -11 -8q8 -10 4.5 -22.5t-15.5 -16.5q3 -9 -1 -21t-11 -18q6 -10 2.5 -22.5t-14.5 -17.5q2 -9 -1.5 -21t-10.5 -18q2 -8 -1.5 -20.5
t-9.5 -18.5q22 -17 12 -30q12 0 20 -9q8 9 22 9t22 -9q8 13 22 13t22 -13q8 8 22 8t22 -8zM302 704q-7 -10 -20.5 -25t-23.5 -23q-25 -8 -38.5 5.5t-5.5 38.5q-3 20 10.5 35.5t33.5 14.5q28 11 42 -3.5t2 -42.5zM438 700q10 -29 -5 -43t-43 -1q-18 -2 -32 12t-12 32
q3 14 16.5 30t27.5 20q17 -2 32 -17.5t16 -32.5z" />
    <glyph glyph-name="Aring" unicode="&#xc5;" horiz-adv-x="668" 
d="M12 -4q-18 8 -18 19t18 19q5 7 12 5.5t10 -9.5q2 26 18.5 32t34.5 -12q-13 24 -2 41t39 13q-24 26 -14.5 49.5t44.5 26.5q-16 21 -8 43t34 28q-8 17 0 37.5t24 28.5q-16 18 -9.5 36.5t29.5 23.5q-3 13 2 30.5t15 25.5q-2 11 2 26.5t11 23.5q-20 13 -16.5 27.5t27.5 17.5
q0 8 2 20t5 19q-14 8 -13 19.5t17 15.5q8 37 36 44.5t54 -20.5q63 -3 101 -23.5t48.5 -52t-7.5 -70.5t-67 -79q11 -5 14.5 -16.5t-1.5 -21.5q8 -6 12 -18.5t2 -21.5q7 -7 12 -22t5 -25q17 -6 23.5 -23.5t-2.5 -32.5q34 -5 43 -31.5t-13 -51.5q5 -11 11.5 -28.5t9.5 -28.5
q7 -4 13.5 -14.5t5.5 -18.5q7 4 14.5 0.5t9.5 -11.5q23 4 46 0q16 -6 16 -17t-16 -17q-10 -4 -26.5 -4t-26.5 5q-13 -32 -34.5 -32t-34.5 33q-10 -10 -28.5 -10t-29.5 9q-16 -28 -43.5 -29t-44.5 26q-15 7 -15 18t15 18q10 16 27 15.5t27 -17.5q8 6 21 15t21 13q-2 8 -2 16
q-5 8 -10.5 24t-6.5 26q-27 2 -32 17.5t16 32.5q-14 4 -20 17t-1 26q-8 -10 -19 -8.5t-18 15.5q-7 -8 -20 -8t-21 8q-8 -7 -20 -7t-20 7q-8 -8 -21 -8t-20 8q-7 -4 -20 -4t-21 4q13 -14 7.5 -28.5t-24.5 -16.5q16 -16 10.5 -30.5t-28.5 -15.5q-2 -9 -7.5 -23t-9.5 -22
q12 -8 13 -22t-10 -23q11 10 22 6t14 -18q9 23 25 23.5t26 -22.5q17 -8 17 -20t-17 -20q-15 -10 -38 -8t-36 14q-9 -8 -24 -7t-24 9q-8 -18 -23.5 -18.5t-25.5 16.5q-13 -2 -36 -3.5t-37 -2.5zM364 266q11 20 27 15q-5 13 4 24q-12 4 -16.5 16.5t2.5 22.5q-6 6 -10 18.5
t-3 20.5q-19 1 -23.5 14t9.5 26q-3 7 -7 19t-6 20q-10 4 -14.5 16.5t0.5 22.5q-13 8 -15 25q-3 -15 -10 -25q2 -8 -1.5 -20.5t-9.5 -18.5q8 -10 4.5 -22.5t-16.5 -16.5q12 -12 8.5 -24.5t-20.5 -15.5q4 -9 0 -21.5t-12 -17.5q0 -8 -3.5 -20t-7.5 -19q3 -11 -4 -27q9 8 19 5
t17 -17q8 9 22 9t22 -9q8 12 22 12t22 -12zM380 722q17 -16 11.5 -30.5t-29.5 -14.5q0 -23 -14 -28.5t-30 9.5q-28 -5 -47 14.5t-13 47.5q-11 34 7.5 52.5t52.5 7.5q31 10 50.5 -8t11.5 -50zM318 754q4 -17 -5 -28t-25 -9q11 -2 20 -12t10 -21q2 12 14 22.5t24 11.5
q-8 6 -19.5 17t-18.5 19z" />
    <glyph glyph-name="AE" unicode="&#xc6;" horiz-adv-x="914" 
d="M469 264q9 21 26 18q-5 17 19 28q-8 8 -8 22.5t8 22.5q-22 8 -22 23t22 23v46q-29 13 -17 32q-5 -13 -28 -10q12 -17 4.5 -28t-27.5 -6q11 -17 4.5 -27.5t-26.5 -6.5q8 -14 1 -24.5t-24 -9.5q-2 -7 -9 -18.5t-13 -16.5q9 -15 1.5 -25.5t-24.5 -8.5q6 -11 4 -20
q11 -2 19 -14q8 6 22.5 6t22.5 -6q8 14 22.5 14t22.5 -14zM491 504q10 -14 6 -25q5 9 17 13q-6 6 -8 14q-7 -3 -15 -2zM494 586q-8 -5 -14.5 -2t-7.5 12q-10 4 -11 13.5t7 16.5q8 10 21 10t21 -10q8 2 21 2t20 -2q7 18 20.5 18.5t21.5 -17.5q7 7 20 7t21 -7q8 9 21 9t21 -9
q8 10 21 10t20 -10q7 11 20.5 11.5t21.5 -10.5q7 16 20 16t21 -16q8 5 21 5t21 -5q22 -8 23.5 -22t-20.5 -25q17 -8 17.5 -23t-15.5 -25q7 -8 8.5 -23t-5.5 -24h-38q-9 6 -9.5 17t7.5 19q-20 0 -27.5 14t2.5 31q-12 -5 -27.5 0t-23.5 15q-9 -15 -23.5 -15t-23.5 15
q-8 -5 -23 -5t-23 5q-9 -1 -23.5 -1t-23.5 1q17 -8 17 -20t-17 -20q19 -8 19 -20t-19 -20q6 -20 0 -40q15 -8 15 -20t-15 -20q8 -8 8 -20t-8 -20q4 -8 4 -20t-4 -20q9 12 25 12.5t26 -11.5q8 24 23.5 24.5t26.5 -22.5q9 24 25 24t26 -23q4 15 20 27.5t32 12.5q-8 6 -8 15
t8 15q6 10 17 10t17 -10q30 -14 29.5 -35t-31.5 -33q5 -10 8 -25.5t3.5 -32t-0.5 -32t-5 -26.5q-8 -10 -19 -10t-19 10q-6 18 0 36q-17 -4 -28.5 7.5t-7.5 28.5q-8 -19 -21 -18.5t-21 19.5q-8 -7 -21 -6.5t-20 7.5q-8 -7 -21.5 -6.5t-20.5 7.5q-13 -19 -30 -10
q9 -19 -11 -31q17 -8 17 -21t-17 -20q10 -7 10 -20t-10 -21q2 -8 2 -21t-2 -21q35 -7 39.5 -28t-26.5 -40q16 9 32.5 1.5t20.5 -25.5q10 17 26 17t26 -17q10 3 26 3t26 -3q6 14 23 19.5t30 -2.5q-11 19 -2 33t31 11q1 11 4 29t6 28q7 8 18 8t18 -8q15 -9 13.5 -22t-17.5 -19
q3 -8 1.5 -20.5t-6.5 -20.5q1 -8 -0.5 -21t-3.5 -20q15 -10 13 -22.5t-18 -18.5q-20 -45 -50.5 -44t-47.5 47q-10 -24 -27 -23.5t-27 24.5q-9 -5 -24 -5t-24 5q-9 -5 -24 -5t-24 5q-14 -33 -38 -33t-38 33q-12 -17 -32.5 -17.5t-33.5 16.5q-10 -21 -28 -21.5t-29 19.5
q-7 -22 -22 -22.5t-25 19.5q-4 9 -0.5 20.5t12.5 15.5q8 13 20.5 12.5t19.5 -14.5q8 10 24.5 13t27.5 -4q-10 17 -2 30t28 11q-10 9 -10 24t11 24q-20 9 -20 24t20 24q-21 10 -21 24.5t19 22.5q-8 -2 -20 -2t-19 3q-8 -9 -21 -9t-20 9q-8 -16 -21 -16t-21 16q-7 -11 -20 -11
t-21 11q-8 -16 -21 -16t-21 16q-1 -10 -8.5 -20.5t-16.5 -14.5q4 -13 -4.5 -23.5t-21.5 -10.5q11 -18 3 -28.5t-28 -6.5q2 -12 -6 -22.5t-20 -11.5q1 -10 -4.5 -23.5t-13.5 -20.5q14 13 28 8t16 -24q6 19 19 20t23 -16q9 -11 4.5 -23t-18.5 -15q-12 -7 -30 -5t-28 11
q-11 -4 -29.5 -3t-28.5 5q-10 -32 -30 -33t-34 30q-10 -17 -29 -19.5t-33 12.5q0 8 4 19.5t8 18.5q10 18 28.5 20t31.5 -15q-3 25 13.5 36t38.5 -1q0 10 8 18.5t18 9.5q-4 14 5.5 24t23.5 8q-8 20 2 31.5t30 6.5q-11 22 0 35.5t35 6.5q3 11 13.5 25.5t21.5 20.5
q-17 27 -6 42t42 6q-8 20 3 35t32 14q-13 22 -2.5 37.5t35.5 11.5q-14 21 -4.5 36.5t34.5 12.5q-8 17 0 31t26 15q1 10 8 23.5t14 21.5q-1 9 4 21.5t11 18.5z" />
    <glyph glyph-name="Ccedilla" unicode="&#xc7;" horiz-adv-x="658" 
d="M360 -16q-3 -14 -14 -32q14 7 22 -12q27 7 42.5 -9.5t7.5 -42.5q6 -15 -2 -30t-24 -19q-6 -15 -23 -21t-31 2q-10 -3 -26 2t-23 13q-16 -1 -19.5 8t7.5 20q2 5 8 9.5t11 5.5q7 -2 13.5 -9.5t8.5 -14.5q4 -2 4 -4q15 17 25 -1q-5 26 19 31q-22 5 -10 30q-8 -14 -20.5 -14
t-21.5 14q-4 -3 -7 -1t-1 7q-10 16 -9 31t12 25q-16 4 -23 19q-10 1 -25.5 5t-24.5 9q-12 -3 -26.5 4t-19.5 17q-16 -8 -29.5 0.5t-12.5 26.5q-22 -10 -33 0.5t-3 32.5q-16 -2 -26 10t-5 28q-17 0 -25 13t0 29q-6 8 -11.5 22t-6.5 24q-10 8 -13 23.5t2 26.5q-3 10 -4 26
t1 26q-7 10 -5 26.5t10 25.5q-17 15 -13 30t27 19q-1 11 5 26t16 21q-9 16 -0.5 29.5t27.5 12.5q4 10 14.5 21t19.5 16q-5 20 7 30.5t31 2.5q3 14 16 22t27 4q3 17 17.5 23.5t29.5 -3.5q7 9 23 12.5t26 -0.5q9 14 25.5 15t26.5 -11q12 20 29 18.5t25 -23.5q15 19 32.5 27
t34 5t30.5 -16.5t21 -37.5q13 24 29.5 22.5t24.5 -27.5q2 -9 2 -24t-2 -24q24 -9 24 -24t-24 -24q3 -9 3 -24t-3 -24q-16 -4 -32 0q-8 8 -13 24t-3 27q-17 -3 -26.5 8t-3.5 28q-14 -7 -27 0t-15 24q-11 -5 -27.5 -1t-23.5 14q-11 -4 -29 -2.5t-28 6.5q-9 -17 -27 -19t-31 13
q-4 -20 -21 -25t-32 8q-5 -11 -20 -19.5t-27 -8.5q2 -17 -10 -28t-29 -9q3 -14 -6.5 -28t-23.5 -17q4 -13 -2.5 -28.5t-17.5 -21.5q10 -12 7 -29.5t-16 -25.5q7 -9 8.5 -24.5t-3.5 -25.5q25 -3 29 -18t-16 -30q10 -6 16.5 -20t4.5 -25q7 -6 16 -18.5t12 -21.5
q11 -1 22 -12.5t12 -22.5q10 -2 22.5 -11t16.5 -18q11 1 25 -6t19 -17q11 5 26 0.5t22 -14.5q10 7 26 5t24 -11q4 10 10 2q11 17 31.5 19t34.5 -13q9 4 24 8.5t25 5.5q5 8 16.5 16.5t20.5 10.5q3 10 11.5 22.5t16.5 18.5q-10 14 -4.5 25.5t22.5 12.5q-14 15 -8 27t26 11
q13 8 23.5 2.5t10.5 -20.5q7 -12 0.5 -24t-19.5 -13q5 -11 -1 -23t-18 -14q12 -14 6.5 -25.5t-24.5 -10.5q4 -11 -2 -22.5t-17 -14.5q9 -13 3 -24.5t-22 -12.5q-4 -20 -22 -26.5t-35 4.5q-7 -25 -27 -29.5t-36 15.5q-10 -31 -30 -32t-34 28z" />
    <glyph glyph-name="Egrave" unicode="&#xc8;" horiz-adv-x="532" 
d="M60 588q-9 -11 -24 -11t-24 11q-10 8 -10 19t10 19q10 22 26 21t23 -24q10 9 26 8.5t26 -10.5q11 13 28.5 12.5t27.5 -14.5q11 25 30 25t29 -26q11 20 30 20t30 -19q10 10 28 10.5t28 -8.5q10 1 26.5 1.5t26.5 0.5q9 5 24 5.5t25 -2.5q14 -8 15 -22.5t-12 -24.5
q14 -8 14.5 -23t-12.5 -25q22 -7 23 -22t-20 -25q-6 -17 -17 -17.5t-19 15.5q-17 5 -18.5 17t14.5 21q-7 8 -14.5 22t-8.5 24q-12 -7 -29.5 -3t-25.5 15q-8 -17 -22.5 -17t-22.5 17q-8 -9 -22 -9t-22 9q-6 -15 -16 -19.5t-18 2.5q2 -13 -11 -23q6 -20 0 -40q16 -8 16 -20
t-16 -20q6 -8 6 -20t-6 -20q14 -8 14 -20t-14 -20q14 -9 10 -26q10 8 22 4.5t19 -17.5q9 18 24.5 18.5t25.5 -16.5q10 5 25.5 5t25.5 -4q10 8 26 21t26 21q-2 14 0 28q6 16 17 16t17 -16q25 -14 24.5 -34.5t-26.5 -31.5q4 -11 5.5 -31t-1.5 -32q26 -9 26.5 -25.5
t-24.5 -27.5q-7 -4 -18 -4t-18 4q-10 7 -10 18t10 18q-22 -12 -37 -1t-11 37q-10 -6 -25.5 -5.5t-25.5 6.5q-10 -1 -26 -0.5t-26 2.5q-10 0 -25.5 0.5t-25.5 0.5q13 -8 13 -21t-13 -21q14 -8 14 -21t-14 -20q15 -7 15 -20t-15 -21q10 -8 10 -21t-10 -21q32 -8 35.5 -29
t-24.5 -38q14 4 30.5 -3.5t22.5 -21.5q10 4 26.5 4t26.5 -4q10 10 26.5 10t26.5 -10q10 4 27 9.5t27 7.5q-16 21 -7 34t34 9q-24 15 -21 33t30 25q8 16 19 16t19 -16q1 -8 -0.5 -21t-4.5 -21q11 -9 10 -22t-15 -19q18 -11 16 -24t-21 -18q15 -10 13 -22.5t-18 -18.5
q-14 -28 -35.5 -26.5t-32.5 30.5q-21 -24 -54.5 -23t-53.5 27q-8 -9 -20 -9t-20 9q-11 -29 -26.5 -44t-32.5 -15t-33 14t-28 43q-11 -32 -31.5 -32.5t-34.5 29.5q-13 -10 -34.5 -11.5t-35.5 6.5q-4 8 -4 20t4 20q11 2 30 2t30 -2q9 6 25.5 12t26.5 7q-20 16 -16.5 34
t28.5 25q-7 8 -7 22.5t7 22.5q-6 8 -6 22t6 22q-3 8 -3 22.5t3 22.5q-8 8 -8 22t8 22q-16 8 -16 22.5t16 22.5q-10 8 -10 22t10 22q-13 8 -13 22.5t13 22.5q-32 13 -32.5 35.5t30.5 36.5q-20 7 -22 22.5t14 27.5q-17 -3 -22.5 6.5t4.5 23.5q-13 -19 -28 -16.5t-20 24.5z
M156 696q1 10 10.5 19t19.5 10q0 11 9.5 20.5t20.5 8.5q8 -4 20 -12.5t19 -13.5q11 0 23 -8t17 -18q11 1 23 -7.5t16 -18.5q-4 -12 -16 -18q-8 1 -21 3.5t-20 5.5q-11 -11 -23 -8t-17 18q-11 -12 -24 -9t-17 18q-10 -9 -23 -6t-17 16z" />
    <glyph glyph-name="Eacute" unicode="&#xc9;" horiz-adv-x="532" 
d="M60 588q-9 -5 -24 -5t-24 5q-9 19 0 38q10 9 25.5 8t23.5 -11q10 3 26 2.5t26 -4.5q11 20 28.5 19.5t27.5 -21.5q11 22 30 21.5t29 -22.5q11 20 30 20t30 -19q10 19 27.5 20t28.5 -18q9 24 25.5 24.5t27.5 -22.5q8 11 23.5 12t25.5 -9q14 -8 15 -22.5t-12 -24.5
q21 -8 21.5 -23t-19.5 -25q16 -7 17 -22t-14 -25q-6 -9 -17 -9.5t-19 7.5q-9 6 -10.5 18t6.5 20q-9 6 -16 20.5t-7 25.5q-13 -8 -30 -4t-25 16q-8 -2 -22.5 -2t-22.5 2q-8 -4 -22 -4t-22 4q-7 -7 -20.5 -7.5t-22.5 5.5q5 -8 4.5 -19.5t-6.5 -18.5q5 -8 5 -20t-5 -20
q14 -8 14 -20t-14 -20q4 -8 4 -20t-4 -20q17 -8 17 -20t-17 -20q11 -16 2 -36q10 14 25 13.5t24 -16.5q8 24 23.5 24.5t26.5 -22.5q9 13 25 13.5t26 -12.5q-5 26 11 39t41 3q-2 14 0 28q6 15 17 15t17 -15q4 -13 3.5 -33.5t-5.5 -32.5q23 -10 24.5 -30t-20.5 -33
q6 -10 6.5 -26.5t-4.5 -26.5q-7 -17 -18 -17t-18 17q-16 6 -17.5 16t11.5 17q-22 -11 -35 1t-7 38q-10 -2 -25.5 -2t-25.5 3q-10 -5 -26 -4.5t-26 6.5q-8 -13 -21 -15t-23 7q9 -20 -7 -33q13 -8 13 -21t-13 -20q12 -7 12 -20t-12 -21q12 -8 12 -21t-12 -21q13 -10 16 -31.5
t-5 -35.5q20 18 37 10t16 -35q10 17 26.5 17t26.5 -17q10 8 26.5 8t26.5 -8q5 18 22 23t32 -6q-12 19 -4 32.5t31 10.5q-13 14 -10 32t19 26q19 2 38 0q15 -10 13.5 -23t-18.5 -19q11 -9 9.5 -22t-14.5 -19q17 -10 15.5 -23t-20.5 -19q19 -10 17 -23t-22 -18
q-14 -13 -35 -11.5t-33 15.5q-21 -27 -54.5 -25.5t-53.5 29.5q-8 -10 -20 -10t-20 10q-11 -27 -26.5 -40.5t-32.5 -13.5t-33 13t-28 39q-11 -25 -31.5 -25.5t-34.5 22.5q-12 -17 -34 -18.5t-36 13.5q-16 8 -16 20t16 20q11 17 30 17t30 -17q9 7 25.5 12.5t26.5 6.5
q-8 13 -4 31.5t16 27.5q-11 8 -11 22.5t11 22.5q-9 8 -9 22t9 22q-22 8 -22 22.5t22 22.5q-13 8 -13 22t13 22q-3 8 -3 22.5t3 22.5q-8 8 -8 22t8 22q-10 8 -10 22.5t10 22.5q-8 14 -8.5 36t6.5 36q-18 7 -20.5 22.5t12.5 27.5q-16 -2 -21.5 7.5t3.5 22.5q-11 -14 -26 -11.5
t-22 19.5zM192 652q-10 -2 -14 3.5t0 14.5q-4 20 9 31t32 3q-5 20 8 31t32 3q-1 17 12 27.5t29 6.5q12 -8 29.5 -23t26.5 -25q-4 -10 -17 -16t-24 -2q-1 -19 -14 -24.5t-27 6.5q1 -22 -12 -27.5t-29 9.5q-5 -11 -17.5 -16.5t-23.5 -1.5z" />
    <glyph glyph-name="Ecircumflex" unicode="&#xca;" horiz-adv-x="530" 
d="M60 588q-9 -2 -24 -2t-24 2q-14 8 -14 19t14 19q10 9 25.5 8.5t23.5 -11.5q11 10 27 9.5t25 -11.5q11 5 28 4.5t28 -6.5q11 17 30 17t29 -18q10 28 29 29t31 -28q10 6 28 6.5t28 -4.5q10 6 26 6.5t27 -4.5q8 17 23.5 18t25.5 -15q17 -8 18.5 -22.5t-15.5 -24.5
q13 -8 14 -23t-12 -25q19 -7 20 -22t-17 -25q-6 -16 -17 -17t-19 15q-16 5 -17.5 17t13.5 21q-21 0 -28.5 14.5t5.5 31.5q-11 0 -28 4t-27 8q-8 -4 -22.5 -4t-22.5 4q-8 -20 -22 -20t-22 20q-8 -4 -22.5 -4t-22.5 4q6 -20 0 -40q8 -8 8 -20t-8 -20q13 -8 13 -20t-13 -20
q10 -8 10 -20t-10 -20q18 -8 18 -20t-18 -20q8 -7 9 -17.5t-5 -18.5q10 8 24 7t23 -10q9 14 24.5 14.5t25.5 -12.5q9 22 25 22t26 -21q-6 26 9.5 39t39.5 4q-11 5 -10.5 13.5t13.5 13.5q6 9 17 9t17 -9q16 -13 15 -33.5t-17 -32.5q5 -11 6.5 -31t-2.5 -32q11 -10 11.5 -26.5
t-9.5 -26.5q-18 -2 -36 0q-14 7 -14 18t14 18l-48 36q-10 -11 -26 -10.5t-25 11.5q-11 -24 -27 -23.5t-25 25.5q-10 -5 -25.5 -4.5t-25.5 5.5q7 -8 7 -21t-7 -21q14 -8 14 -21t-14 -20q17 -7 17 -20t-17 -21q18 -8 18 -21t-18 -21q26 -8 30 -29t-19 -38q11 -4 27.5 -11.5
t25.5 -13.5q10 4 26.5 4t26.5 -4q10 26 26.5 26t26.5 -26q10 4 27 9.5t27 7.5q1 11 9 24.5t18 18.5q-17 14 -14.5 32t23.5 26q8 13 19 13t19 -13q13 -10 11 -23t-16 -19q1 -8 -1 -21t-4 -20q16 -10 14.5 -23t-19.5 -19q15 -10 13 -22.5t-18 -18.5q-14 -24 -35.5 -23
t-32.5 27q-22 -37 -55.5 -35.5t-52.5 39.5q-8 -4 -20 -4t-20 4q-11 -25 -26.5 -38t-32.5 -13t-33 12t-28 37q-12 -10 -32.5 -11t-33.5 8q-11 -25 -33 -26.5t-37 21.5q-18 8 -18 20t18 20q11 12 30 12t30 -12q5 15 21.5 21t30.5 -2q-19 15 -15 33.5t27 25.5q-10 8 -10 22.5
t10 22.5q-14 8 -14 22t14 22q-8 8 -8 22.5t8 22.5q-21 8 -21 22t21 22q-2 8 -2 22.5t2 22.5q-3 8 -3 22t3 22q-22 8 -22 22.5t22 22.5q-8 14 -9 36t7 36q-15 8 -17.5 23.5t9.5 26.5q-7 4 -12.5 13t-5.5 17q-9 -1 -24 1.5t-24 6.5zM246 772q19 9 29 0.5t4 -28.5q15 5 25 -3.5
t7 -24.5q18 9 28 0.5t5 -28.5q13 2 23 -6.5t9 -21.5q-15 -18 -28.5 -13.5t-14.5 28.5q-11 -5 -25 0t-19 16q-8 3 -21.5 7.5t-21.5 7.5q-2 -19 -15.5 -24.5t-27.5 7.5q-1 -22 -14.5 -27.5t-29.5 9.5q-3 -16 -16.5 -21t-26.5 4q5 7 15.5 16.5t17.5 13.5q2 9 12 18.5t20 10.5
q-1 14 9 23.5t24 6.5q-2 14 8 23.5t24 5.5z" />
    <glyph glyph-name="Edieresis" unicode="&#xcb;" horiz-adv-x="530" 
d="M60 588q-9 -6 -24 -6t-24 6q-9 8 -9 19t9 19q9 2 24.5 1t24.5 -4q10 6 26 5.5t26 -7.5q11 11 28.5 10t27.5 -12q11 9 29.5 9t29.5 -10q11 12 30 12t30 -11q10 11 28 11.5t28 -9.5q10 1 26.5 1.5t26.5 0.5q8 22 23.5 22.5t25.5 -19.5q10 -8 11 -22.5t-8 -24.5q7 -9 8 -24
t-6 -24q21 -7 22 -22t-19 -25q-6 -16 -17 -17t-19 15q-16 5 -17.5 17t13.5 21q-20 1 -27.5 15.5t4.5 30.5q-11 -2 -28 2t-27 10q-8 -3 -22.5 -3t-22.5 3q-8 -20 -22 -20t-22 20q-14 -10 -35 -5q12 -8 9 -18t-19 -17q4 -8 4 -20t-4 -20q14 -8 14 -20t-14 -20q19 -8 19 -20
t-19 -20q8 -8 8 -20t-8 -20q15 -6 18.5 -15t-5.5 -17q10 3 20.5 1.5t17.5 -8.5q8 25 23.5 25.5t26.5 -23.5q9 22 25 22t26 -21q-1 21 15.5 34t36.5 8q-4 14 0 28q6 13 17 13t17 -13q0 -13 -0.5 -33.5t-1.5 -32.5q19 -10 20 -30t-16 -33q18 -9 18.5 -26t-16.5 -27
q-7 -4 -18 -4t-18 4q-15 7 -15 18t15 18q-14 -1 -29 10.5t-19 25.5q-10 -5 -25.5 -4.5t-25.5 5.5q-11 -14 -27 -13.5t-25 15.5q-7 -17 -19 -21t-22 6q3 -16 -10 -26q20 -8 20 -21t-20 -20q15 -7 15 -20t-15 -21q7 -8 7 -21t-7 -21q22 -9 26 -30t-15 -37q15 7 32 -1t21 -24
q10 10 26.5 10t26.5 -10q10 14 26.5 14t26.5 -14q8 10 24.5 16t29.5 1q-12 19 -4 32.5t31 10.5q-18 14 -15.5 32t24.5 26q8 10 19 10t19 -10q14 -10 12.5 -23t-17.5 -19q11 -9 9.5 -22t-14.5 -19q8 -9 6 -22t-11 -20q4 -8 2.5 -21t-7.5 -20q-14 -28 -35.5 -27t-32.5 31
q-21 -20 -54.5 -18.5t-53.5 22.5q-8 -8 -20 -8t-20 8q-11 -12 -26.5 -18t-32.5 -6t-33 5.5t-28 16.5q-11 -20 -31.5 -21t-34.5 18q-12 -13 -34 -14.5t-36 9.5q-20 8 -20 20t20 20q11 15 30 15t30 -15q2 22 17 29t31 -6q-15 15 -10.5 32t26.5 23q-3 8 -3 22.5t3 22.5
q-17 8 -17 22t17 22q-11 8 -11 22.5t11 22.5q-6 8 -6 22t6 22q-9 8 -9 22.5t9 22.5q-21 8 -21 22t21 22q-9 8 -9 22.5t9 22.5q-13 14 -13.5 36t11.5 36q-20 6 -22.5 21.5t14.5 28.5q-9 2 -14.5 11.5t-3.5 18.5q-10 -1 -25 1.5t-23 6.5zM222 704q10 -26 -4 -41t-40 -7
q-25 -8 -38.5 5.5t-5.5 38.5q-2 19 11.5 34.5t32.5 15.5q10 -7 24 -21.5t20 -24.5zM358 700q7 -25 -8 -38.5t-40 -5.5q-28 -12 -42 2t-2 42q0 16 14 32t30 18q21 2 36 -13.5t12 -36.5z" />
    <glyph glyph-name="Igrave" unicode="&#xcc;" horiz-adv-x="328" 
d="M56 690q5 6 14.5 15t15.5 14q-7 18 2.5 27.5t27.5 1.5q18 10 30 2t9 -28q18 10 30.5 2t9.5 -28q8 -4 20 -12t19 -14q2 -8 -3 -13t-12 -5q15 -10 25 -31q9 1 24 2t24 1q17 -8 17 -20t-17 -20q-8 -12 -21 -12t-21 12q-4 -12 -19 -19.5t-28 -4.5q4 -14 0.5 -34.5
t-11.5 -31.5q21 -8 21 -22.5t-21 -22.5q14 -8 14 -22t-14 -22q19 -8 19 -22.5t-19 -22.5q8 -8 8 -22t-8 -22q6 -8 6 -22.5t-6 -22.5q20 -8 20 -22t-20 -22q13 -8 13 -22.5t-13 -22.5q8 -11 8.5 -30.5t-7.5 -30.5q4 -11 8.5 -29.5t5.5 -29.5q20 15 33.5 7t9.5 -33q9 10 24 10
t24 -10q12 -7 12 -18t-12 -18q-14 -18 -34 -16t-31 22q-13 0 -36 0.5t-37 1.5q-14 -7 -37 -7.5t-36 5.5q-10 -30 -30 -32t-35 26q-14 8 -14 19t14 19q9 10 23 10t23 -10q1 19 14 24.5t27 -5.5q-8 13 -4 31t17 26q-15 8 -15 21t15 21q-4 8 -4 21.5t4 21.5q-20 8 -20 21.5
t20 21.5q-2 8 -2 21t2 21q-14 8 -14 21t14 21q-12 8 -12 21.5t12 21.5q-12 8 -12 21.5t12 21.5q-11 8 -11 21t11 21q-44 15 -45.5 43.5t41.5 48.5q-16 1 -23 12.5t1 25.5q-18 0 -36 2q-8 -19 -19 -19t-19 19q-9 8 -9 19t9 19q9 10 22.5 9.5t21.5 -12.5q19 35 47 34t43 -39
q10 30 31 39q-4 2 -10 6q-12 -15 -24.5 -12t-15.5 22q-11 -13 -24 -10t-17 19q-10 -7 -22.5 -3.5t-17.5 13.5z" />
    <glyph glyph-name="Iacute" unicode="&#xcd;" horiz-adv-x="328" 
d="M60 586q-8 -7 -19 -7t-19 7q-8 8 -8 19t8 19q8 2 22 1t22 -4q18 23 46 21.5t44 -26.5q15 32 42.5 33.5t45.5 -28.5q8 13 23 14t25 -11q9 -8 9 -20t-9 -20q-8 -3 -21 -3t-21 3q-8 -8 -22 -15t-25 -9q29 -17 25 -37.5t-36 -28.5v-45q8 -8 8 -22t-8 -22q21 -8 21 -22.5
t-21 -22.5q2 -22 0 -44q13 -8 13 -22.5t-13 -22.5q11 -8 11 -22t-11 -22q20 -8 20 -22.5t-20 -22.5q13 -11 13.5 -30t-12.5 -31q17 -7 21 -26t-7 -33q16 8 29.5 0t13.5 -26q9 14 24 14t24 -14q14 -7 14 -18t-14 -18q-13 -8 -33.5 -6t-31.5 12q-14 -14 -36.5 -13.5
t-36.5 15.5q-14 -20 -36.5 -21t-36.5 19q-11 -19 -31 -20.5t-34 14.5q-18 8 -18 19t18 19q9 14 23 14t23 -14q5 10 17.5 15.5t23.5 3.5q-23 17 -19 35t32 22q-21 8 -21 21t21 21q-13 8 -13 21.5t13 21.5q-9 8 -9 21.5t9 21.5q-18 8 -18 21t18 21q-14 8 -14 21t14 21
q-4 8 -4 21.5t4 21.5q-7 8 -7 21.5t7 21.5q-17 8 -17 21t17 21q-22 16 -23.5 45t19.5 47q-19 -2 -25.5 10t3.5 28q-18 -6 -36 2zM94 654q-8 0 -12 5.5t-2 12.5q4 11 17 21.5t24 12.5q7 8 19.5 18.5t20.5 15.5q-3 20 9.5 30.5t31.5 3.5q28 11 45.5 -4t10.5 -44
q2 -23 -11 -28.5t-30 10.5q-7 -4 -20 -9.5t-21 -8.5q-2 -17 -14.5 -22.5t-26.5 4.5q-6 -8 -18.5 -13.5t-22.5 -4.5z" />
    <glyph glyph-name="Icircumflex" unicode="&#xce;" horiz-adv-x="328" 
d="M60 586q-8 -14 -19 -14t-19 14q-16 8 -16 19t16 19q9 6 22.5 5t21.5 -8q17 7 45.5 6t44.5 -11q15 24 42.5 25.5t45.5 -20.5q9 5 24 6t24 -3q9 -8 9 -20t-9 -20q-8 -19 -21 -19t-21 19q2 -26 -12.5 -33.5t-34.5 9.5q9 -14 5.5 -35t-16.5 -31q2 -8 2 -22.5t-2 -22.5
q20 -8 20 -22t-20 -22q1 -8 1 -22.5t-1 -22.5q5 -8 5 -22t-5 -22q8 -8 8 -22.5t-8 -22.5q12 -8 12 -22t-12 -22q9 -8 9 -22.5t-9 -22.5q2 -11 2 -30.5t-1 -30.5q29 -5 33.5 -23.5t-19.5 -35.5q20 15 33.5 7t9.5 -33q9 13 24 13t24 -13q4 -18 0 -36q-14 -19 -34 -17t-31 23
q-14 -30 -37 -29.5t-36 31.5q-13 -25 -36 -25.5t-37 23.5q-11 -8 -31.5 -9.5t-33.5 3.5q-14 8 -14 19t14 19q23 6 46 0q6 7 19 13t22 6q-5 13 -1 30.5t14 26.5q-1 8 -1 21t1 21q-2 8 -2 21.5t2 21.5q-10 8 -10 21.5t10 21.5q-17 8 -17 21t17 21q-3 8 -3 21t3 21
q-14 8 -14 21.5t14 21.5q-15 8 -15 21.5t15 21.5q-16 8 -16 21t16 21q-44 16 -45 44.5t41 47.5q-12 2 -19 14t-3 24q-8 -16 -19 -15t-17 17zM158 768q11 1 21.5 -8t11.5 -20q6 -4 16 -13t16 -15q10 -1 20.5 -9.5t12.5 -18.5q9 -2 19 -11t13 -17q-13 -10 -26 -5.5t-17 20.5
q-10 -1 -23.5 4t-20.5 12q-16 -19 -29 -14t-14 29q-6 -8 -19 -13.5t-24 -3.5q0 -23 -13.5 -28.5t-30.5 10.5q0 -23 -13.5 -28t-29.5 11q-3 16 7.5 25t25.5 5q4 8 14 17t18 12q5 7 15 16t18 14q1 11 11 20t21 9z" />
    <glyph glyph-name="Idieresis" unicode="&#xcf;" horiz-adv-x="328" 
d="M60 586q-8 -12 -19 -12t-19 12q-8 19 0 38q9 16 22.5 15t21.5 -18q17 9 45.5 7.5t44.5 -12.5q14 39 41.5 40.5t46.5 -35.5q8 19 23 20.5t25 -17.5q6 -8 6 -20t-6 -20q-8 -13 -21 -13t-21 13q-8 -5 -23 -12.5t-24 -11.5q7 -14 4 -35t-15 -31q5 -8 5 -22.5t-5 -22.5
q20 -8 20 -22t-20 -22q4 -8 4 -22.5t-4 -22.5q14 -8 14 -22t-14 -22q13 -8 13 -22.5t-13 -22.5q8 -8 8 -22t-8 -22q20 -8 20 -22.5t-20 -22.5q28 -11 28.5 -30t-27.5 -31q4 -11 8.5 -29.5t5.5 -29.5q9 -3 22.5 -11t20.5 -15q9 17 24 17t24 -17q9 -7 9 -18t-9 -18
q-14 -13 -34 -11t-31 17q-15 -34 -37.5 -33.5t-35.5 35.5q-13 -32 -36 -32.5t-37 30.5q-11 -8 -31.5 -9.5t-33.5 3.5q-2 19 0 38q9 16 23 16t23 -16q2 16 13.5 22t24.5 -1q-22 17 -17 34t33 21q-15 8 -15 21t15 21q-16 8 -16 21.5t16 21.5q-12 8 -12 21.5t12 21.5
q-4 8 -4 21t4 21q-20 8 -20 21t20 21q-22 8 -22 21.5t22 21.5q-15 8 -15 21.5t15 21.5q-20 8 -20 21t20 21q-33 16 -34.5 44.5t30.5 47.5q-22 -3 -29 9t7 29q-7 -3 -18 -2.5t-18 4.5zM136 704q2 -18 -11.5 -33t-32.5 -15q-14 2 -28 16t-16 28q-13 28 1 43.5t43 6.5
q14 -3 28 -17.5t16 -28.5zM272 700l-48 -44q-13 4 -26.5 17.5t-17.5 26.5q-12 28 2 43.5t42 6.5q15 -4 30 -19.5t18 -30.5z" />
    <glyph glyph-name="Ntilde" unicode="&#xd1;" horiz-adv-x="778" 
d="M182 624q13 1 21.5 -8.5t6.5 -22.5q16 4 24.5 -5.5t3.5 -25.5q8 -3 17 -13t10 -18q21 7 30 -3t-2 -29q11 -1 19.5 -11t8.5 -20q9 -3 18 -12.5t10 -18.5q15 3 23 -7t4 -24q17 5 26 -4.5t2 -26.5q17 5 26 -4.5t2 -26.5q14 2 23 -7.5t5 -23.5q14 1 22.5 -8t4.5 -23
q8 -3 17 -13t11 -19q18 6 26.5 -4t1.5 -27q17 5 25.5 -5t2.5 -26q15 3 23 -7t4 -24q13 4 22 3q2 4 4 6q-18 7 -18.5 19.5t16.5 20.5q-15 7 -15.5 20t13.5 21q-16 7 -16.5 19.5t14.5 20.5q-14 7 -15 19.5t13 20.5q-10 7 -11 19.5t9 20.5q-4 7 -5 20t3 20q-9 7 -9.5 20t7.5 21
q-18 7 -18.5 19.5t16.5 20.5q-10 7 -11 19.5t9 20.5q-8 10 -20 27t-20 27q-12 -12 -33 -12t-33 12q-14 8 -13.5 21t15.5 21q14 28 32.5 26t26.5 -32q13 22 33 20.5t30 -24.5q13 2 34 3t34 1q10 21 29 23t33 -17q6 -8 6 -20t-6 -20q-23 -2 -46 0q3 -20 -10.5 -35t-33.5 -13
q12 -8 12 -21.5t-12 -21.5q16 -8 16 -21t-16 -21q2 -8 2 -21.5t-2 -21.5q16 -8 16 -21t-17 -21q10 -8 10 -21.5t-10 -21.5q8 -8 8 -21.5t-8 -21.5q15 -8 15 -21t-15 -21q6 -8 6 -21.5t-6 -21.5q7 -8 7 -21.5t-7 -21.5q11 -8 11 -21t-12 -21q19 -8 19 -21.5t-19 -21.5
q9 -8 9 -21t-9 -21q3 -8 3 -21.5t-3 -21.5q-4 -8 -12 -8t-12 8q-18 -6 -26 3.5t-1 26.5q-13 -1 -21 9t-5 22q-17 -5 -25.5 4t-1.5 26q-8 4 -16 13.5t-11 17.5q-14 14 -26 30q-8 3 -16.5 13t-10.5 18q-16 -5 -25 4.5t-2 25.5q-11 1 -19 10.5t-7 20.5q-6 4 -14.5 13.5
t-12.5 16.5q-11 0 -19.5 9.5t-7.5 20.5q-5 5 -13 15t-13 16q-11 1 -19.5 10t-7.5 20q-9 3 -17.5 12.5t-9.5 18.5q-11 1 -19 10.5t-7 19.5q-20 -8 -28.5 2t1.5 29q-14 -2 -22.5 7.5t-4.5 22.5q-19 -6 -27.5 3.5t1.5 27.5q-5 -2 -8.5 -2h-6.5q-3 -5 -12 -11q10 -8 10 -21
t-10 -21q7 -8 7 -21.5t-6 -21.5q8 -8 8 -21.5t-8 -21.5q17 -8 17 -21t-17 -21q15 -8 15 -21.5t-15 -21.5q7 -8 7.5 -21.5t-6.5 -21.5q9 -8 9 -21t-9 -21q5 -8 5 -21.5t-5 -21.5q24 -9 25 -26.5t-22 -28.5q11 -4 17.5 -16.5t2.5 -23.5q12 6 26.5 1.5t20.5 -16.5q8 10 22 10
t22 -10q10 -7 10 -18t-10 -18q-13 -13 -31 -11t-28 17q-13 -14 -34.5 -13t-34.5 15q-11 -22 -31 -22t-32 21q-10 -25 -29.5 -26.5t-33.5 21.5q-14 8 -14 19t14 19q7 7 18 7t18 -7q-1 22 9.5 29.5t25.5 -1.5q-13 14 -7 28t28 20q-16 8 -16 21t16 20q-4 7 -4 20t4 21
q-11 8 -11 21t11 21q-6 8 -6 21t6 20q-15 7 -15 20t15 21q-4 8 -4 21t4 20q-12 7 -12 20t12 21q-3 8 -3 21t3 21q-10 8 -10 21t10 20q-10 7 -10 20t10 21q-12 9 -27 27.5t-21 32.5q-8 -20 -21 -20t-21 20q-8 19 0 38q18 22 43.5 19t38.5 -29q11 38 35.5 40.5t42.5 -32.5z
M268 680q-9 -12 -17.5 -9.5t-10.5 17.5q-14 24 -3 39.5t38 10.5q6 16 23 22t32 -2q10 8 20.5 3.5t12.5 -16.5q14 6 23 -1.5t6 -22.5q10 11 19.5 7t10.5 -18q2 13 13 20.5t23 3.5q6 4 13.5 1.5t10.5 -9.5q17 -22 8 -38t-37 -12q-1 -26 -18 -33.5t-37 9.5q-35 -23 -65.5 -7.5
t-32.5 57.5q-2 -10 -12 -17t-20 -5z" />
    <glyph glyph-name="Ograve" unicode="&#xd2;" horiz-adv-x="696" 
d="M242 694l14.5 14.5t15.5 14.5q4 7 13 16t17 13q9 -2 21.5 -10t17.5 -16q13 3 25.5 -5t14.5 -21q13 3 25 -5t14 -21q2 -8 -3 -13.5t-13 -4.5q-6 -6 -13 -7q4 -8 6 -13q13 10 29 6t22 -19q14 6 28 -0.5t19 -20.5q13 4 27 -4.5t17 -22.5q11 -2 23 -12.5t16 -20.5
q16 1 26.5 -11t6.5 -28q7 -7 15.5 -21t11.5 -23q4 -8 11 -23t10 -24q25 -4 29 -20t-16 -31q22 -8 23 -25t-19 -28q12 -11 11 -29t-15 -28q21 -16 17 -32.5t-30 -20.5q18 -18 11.5 -33t-31.5 -14q1 -11 -7 -24t-19 -18q3 -15 -7 -26t-26 -10q6 -23 -6 -32t-32 2
q-5 -11 -18.5 -18t-24.5 -5q-1 -23 -15 -28.5t-31 10.5q-7 -10 -23 -13t-27 3q-9 -13 -26 -14t-27 10q-11 -10 -28 -8.5t-26 12.5q-14 -15 -30 -11t-21 24q-13 -7 -28 0t-19 21q-19 -11 -32 -2.5t-10 30.5q-14 0 -25.5 10.5t-12.5 23.5q-16 -1 -26 11.5t-6 27.5q-6 7 -14 21
t-12 23q-13 5 -19 20t0 28q-22 5 -25.5 21t13.5 30q-27 8 -28.5 24.5t23.5 29.5q-8 10 -7 27t11 27q-11 13 -7.5 28.5t19.5 21.5q-10 14 -3.5 28.5t23.5 17.5q-13 19 -4.5 32t30.5 9q-8 19 2 30t30 6q4 9 16 18.5t22 12.5q-3 23 10 31t32 -6q2 19 16.5 25t29.5 -7
q9 4 24 7.5t25 3.5q8 15 24.5 16.5t26.5 -12.5q9 17 20 22q-1 1 -1 3q-10 -7 -22.5 -4t-17.5 14q-11 -12 -24 -9.5t-17 18.5q-10 -10 -23 -7t-17 17zM100 332q5 -9 6.5 -24t-3.5 -24q11 -7 14 -21.5t-4 -25.5q20 -2 25.5 -16.5t-8.5 -29.5q8 -6 15 -19.5t7 -23.5
q10 -3 19.5 -15t9.5 -23q18 7 28.5 -3t5.5 -29q13 4 25 -4t14 -21q15 15 29.5 9.5t15.5 -26.5q12 20 27 18t22 -24q2 4 6 2q9 10 25.5 12t26.5 -7q4 18 19 22.5t28 -8.5q4 11 17 18t24 5q2 10 13 19.5t22 10.5q-5 14 4 26t24 13q-19 19 -12.5 34t33.5 13q-4 12 0 29.5
t14 25.5q-30 13 -29 33t33 30q-21 8 -22.5 24.5t17.5 28.5q-11 7 -15 23t2 28q-27 -2 -34 13t12 35q-12 4 -21 17t-8 26q-8 5 -19.5 16t-16.5 19q-13 -4 -26.5 5t-15.5 23q-11 -1 -25.5 4.5t-21.5 13.5q-11 -14 -27.5 -12t-24.5 18q-8 -16 -25 -17t-28 12q-7 -9 -22 -13.5
t-25 -0.5q3 -24 -10 -31.5t-32 7.5q0 -14 -11.5 -23.5t-25.5 -6.5q6 -16 -3 -27.5t-26 -10.5q4 -13 -2.5 -26.5t-19.5 -17.5q8 -12 4 -27.5t-18 -21.5q7 -11 5 -28t-11 -26z" />
    <glyph glyph-name="Oacute" unicode="&#xd3;" horiz-adv-x="696" 
d="M24 324q-4 10 -3 27t7 27q-14 14 -10.5 29.5t22.5 20.5q-1 10 5.5 24.5t14.5 21.5q-10 16 -2 29t28 12q-6 17 4 28.5t28 7.5q7 6 18.5 16t19.5 15q-4 25 9 32.5t33 -7.5q8 6 22 11.5t24 6.5q6 17 21 20.5t28 -9.5q10 2 25.5 3.5t25.5 0.5q11 22 28 20.5t25 -24.5
q16 22 32 18.5t19 -31.5q12 2 26.5 -4.5t20.5 -16.5q9 -4 23 -12.5t21 -14.5q14 2 26.5 -8t12.5 -25q10 -4 20 -16.5t13 -22.5q6 -7 14.5 -21t12.5 -23q27 1 33.5 -13t-12.5 -34q5 -9 8.5 -25t4.5 -26q10 -9 11.5 -26t-7.5 -27q14 -12 12.5 -29.5t-16.5 -27.5
q23 -17 19.5 -33t-32.5 -20q17 -17 10.5 -32t-30.5 -15q-4 -9 -12 -22t-14 -20q7 -19 -3 -30t-30 -6q0 -15 -12 -24.5t-26 -5.5q1 -21 -12.5 -28.5t-30.5 5.5q-1 -24 -15 -29.5t-31 11.5q-5 -23 -21 -26.5t-29 16.5q-9 -17 -25.5 -18.5t-27.5 14.5q-11 -14 -28 -12.5
t-26 16.5q-13 -11 -29 -7.5t-22 20.5q-16 -12 -30.5 -5.5t-16.5 26.5q-10 1 -23.5 9.5t-18.5 18.5q-11 2 -23 13t-15 21q-14 1 -24 13.5t-8 25.5q-13 4 -21 17.5t-5 26.5q-11 6 -17.5 21t-1.5 27q-19 6 -22.5 21.5t10.5 29.5q-21 8 -23 25t18 29zM100 332q11 -8 12.5 -23
t-9.5 -25q7 -8 10.5 -22.5t-0.5 -24.5q20 -2 25.5 -16.5t-8.5 -29.5q16 -2 23 -15.5t-1 -27.5q8 -5 17 -17t12 -21q7 -5 17.5 -15t16.5 -17q13 4 25 -4t14 -21q9 -1 23.5 -7t21.5 -10q11 14 26 12t23 -18q2 2 6 2q8 25 24 26.5t28 -21.5q4 20 18.5 24.5t28.5 -10.5
q4 11 16.5 18.5t24.5 4.5q-3 16 8 25.5t27 4.5q-1 11 8 23.5t20 15.5q-5 13 1 28t20 19q2 10 6 27.5t8 27.5q-4 12 -2.5 32t6.5 31q-18 8 -20 25t15 28q-9 7 -13 23.5t0 27.5q-8 8 -14.5 23t-7.5 25q-7 7 -16 20.5t-13 22.5q-24 -11 -35.5 -0.5t-0.5 35.5q-17 -9 -30 -0.5
t-12 28.5q-13 -9 -28 -3.5t-19 21.5q-10 -5 -26.5 -3.5t-25.5 9.5q-8 -15 -25 -16.5t-28 11.5q-7 -8 -22 -12.5t-25 -1.5q-4 -11 -17.5 -18.5t-24.5 -5.5q-6 -7 -17.5 -16t-19.5 -14q11 -20 2 -32t-31 -6q-2 -10 -8.5 -23.5t-13.5 -20.5q19 -16 14.5 -31t-28.5 -18
q10 -11 8 -28t-14 -26zM256 656q-8 8 -14 18q1 15 13.5 25.5t27.5 8.5q-1 16 11.5 26.5t28.5 7.5q-4 20 9 30.5t32 3.5q20 2 37 -13t19 -35q-5 -10 -17.5 -15.5t-23.5 -2.5q-7 -6 -19.5 -11.5t-21.5 -6.5q-6 -7 -19 -12.5t-22 -5.5q-5 -10 -18 -16t-23 -2z" />
    </font>
</defs>
</svg>
